Rajdhani-Medium.ufo
<glyph name="parenleft" format="2">
  <advance width="290"/>
  <unicode hex="0028"/>
  <outline>
    <contour>
      <point x="213" y="588" type="line" smooth="yes"/>
      <point x="224" y="588"/>
      <point x="227" y="592"/>
      <point x="227" y="601" type="curve" smooth="yes"/>
      <point x="227" y="632" type="line" smooth="yes"/>
      <point x="227" y="640"/>
      <point x="224" y="643"/>
      <point x="214" y="643" type="curve" smooth="yes"/>
      <point x="210" y="643" type="line" smooth="yes"/>
      <point x="116" y="643"/>
      <point x="53" y="586"/>
      <point x="53" y="470" type="curve" smooth="yes"/>
      <point x="53" y="71" type="line" smooth="yes"/>
      <point x="53" y="-45"/>
      <point x="116" y="-102"/>
      <point x="210" y="-102" type="curve" smooth="yes"/>
      <point x="213" y="-102" type="line" smooth="yes"/>
      <point x="224" y="-102"/>
      <point x="227" y="-99"/>
      <point x="227" y="-91" type="curve" smooth="yes"/>
      <point x="227" y="-60" type="line" smooth="yes"/>
      <point x="227" y="-51"/>
      <point x="224" y="-47"/>
      <point x="213" y="-47" type="curve" smooth="yes"/>
      <point x="211" y="-47" type="line" smooth="yes"/>
      <point x="149" y="-47"/>
      <point x="114" y="-8"/>
      <point x="114" y="65" type="curve" smooth="yes"/>
      <point x="114" y="476" type="line" smooth="yes"/>
      <point x="114" y="549"/>
      <point x="149" y="588"/>
      <point x="210" y="588" type="curve" smooth="yes"/>
    </contour>
  </outline>
</glyph>
<glyph name="currency" format="2">
  <advance width="496"/>
  <unicode hex="00A4"/>
  <outline>
    <contour>
      <point x="226" y="197" type="line" smooth="yes"/>
      <point x="170" y="197"/>
      <point x="142" y="227"/>
      <point x="142" y="284" type="curve" smooth="yes"/>
      <point x="142" y="345" type="line" smooth="yes"/>
      <point x="142" y="402"/>
      <point x="170" y="432"/>
      <point x="226" y="432" type="curve" smooth="yes"/>
      <point x="270" y="432" type="line" smooth="yes"/>
      <point x="327" y="432"/>
      <point x="355" y="402"/>
      <point x="355" y="345" type="curve" smooth="yes"/>
      <point x="355" y="284" type="line" smooth="yes"/>
      <point x="355" y="227"/>
      <point x="327" y="197"/>
      <point x="270" y="197" type="curve" smooth="yes"/>
    </contour>
    <contour>
      <point x="407" y="199" type="line"/>
      <point x="419" y="222"/>
      <point x="426" y="249"/>
      <point x="426" y="281" type="curve" smooth="yes"/>
      <point x="426" y="352" type="line" smooth="yes"/>
      <point x="426" y="384"/>
      <point x="419" y="411"/>
      <point x="407" y="433" type="curve"/>
      <point x="461" y="485" type="line" smooth="yes"/>
      <point x="469" y="493"/>
      <point x="468" y="499"/>
      <point x="461" y="506" type="curve" smooth="yes"/>
      <point x="437" y="531" type="line" smooth="yes"/>
      <point x="430" y="538"/>
      <point x="423" y="539"/>
      <point x="415" y="531" type="curve" smooth="yes"/>
      <point x="360" y="478" type="line"/>
      <point x="338" y="490"/>
      <point x="311" y="496"/>
      <point x="279" y="496" type="curve" smooth="yes"/>
      <point x="218" y="496" type="line" smooth="yes"/>
      <point x="186" y="496"/>
      <point x="158" y="490"/>
      <point x="136" y="478" type="curve"/>
      <point x="81" y="531" type="line" smooth="yes"/>
      <point x="73" y="539"/>
      <point x="67" y="538"/>
      <point x="60" y="531" type="curve" smooth="yes"/>
      <point x="36" y="506" type="line" smooth="yes"/>
      <point x="29" y="499"/>
      <point x="28" y="493"/>
      <point x="36" y="485" type="curve" smooth="yes"/>
      <point x="89" y="433" type="line"/>
      <point x="77" y="412"/>
      <point x="70" y="384"/>
      <point x="70" y="352" type="curve" smooth="yes"/>
      <point x="70" y="281" type="line" smooth="yes"/>
      <point x="70" y="249"/>
      <point x="77" y="221"/>
      <point x="90" y="199" type="curve"/>
      <point x="36" y="147" type="line" smooth="yes"/>
      <point x="28" y="139"/>
      <point x="29" y="133"/>
      <point x="36" y="126" type="curve" smooth="yes"/>
      <point x="60" y="102" type="line"/>
      <point x="67" y="94"/>
      <point x="73" y="93"/>
      <point x="81" y="101" type="curve" smooth="yes"/>
      <point x="136" y="153" type="line"/>
      <point x="158" y="141"/>
      <point x="186" y="134"/>
      <point x="218" y="134" type="curve" smooth="yes"/>
      <point x="279" y="134" type="line" smooth="yes"/>
      <point x="311" y="134"/>
      <point x="338" y="141"/>
      <point x="361" y="153" type="curve"/>
      <point x="415" y="101" type="line" smooth="yes"/>
      <point x="424" y="93"/>
      <point x="430" y="94"/>
      <point x="437" y="102" type="curve"/>
      <point x="461" y="126" type="line" smooth="yes"/>
      <point x="468" y="133"/>
      <point x="469" y="139"/>
      <point x="461" y="147" type="curve" smooth="yes"/>
    </contour>
  </outline>
</glyph>
<glyph name="onequarter" format="2">
  <advance width="710"/>
  <unicode hex="00BC"/>
  <outline>
    <contour>
      <point x="575" y="626" type="line" smooth="yes"/>
      <point x="582" y="635"/>
      <point x="579" y="643"/>
      <point x="569" y="643" type="curve" smooth="yes"/>
      <point x="541" y="643" type="line" smooth="yes"/>
      <point x="531" y="643"/>
      <point x="525" y="639"/>
      <point x="517" y="628" type="curve" smooth="yes"/>
      <point x="463" y="555"/>
      <point x="120" y="89"/>
      <point x="66" y="16" type="curve" smooth="yes"/>
      <point x="58" y="6"/>
      <point x="63" y="0"/>
      <point x="73" y="0" type="curve" smooth="yes"/>
      <point x="99" y="0" type="line" smooth="yes"/>
      <point x="110" y="0"/>
      <point x="116" y="3"/>
      <point x="125" y="15" type="curve" smooth="yes"/>
    </contour>
    <contour>
      <point x="583" y="0" type="line" smooth="yes"/>
      <point x="589" y="0"/>
      <point x="592" y="2"/>
      <point x="592" y="10" type="curve" smooth="yes"/>
      <point x="592" y="70" type="line"/>
      <point x="635" y="70" type="line" smooth="yes"/>
      <point x="642" y="70"/>
      <point x="645" y="73"/>
      <point x="645" y="79" type="curve" smooth="yes"/>
      <point x="645" y="106" type="line" smooth="yes"/>
      <point x="645" y="112"/>
      <point x="642" y="115"/>
      <point x="635" y="115" type="curve" smooth="yes"/>
      <point x="592" y="115" type="line"/>
      <point x="592" y="329" type="line" smooth="yes"/>
      <point x="592" y="339"/>
      <point x="587" y="343"/>
      <point x="579" y="343" type="curve" smooth="yes"/>
      <point x="532" y="343" type="line" smooth="yes"/>
      <point x="521" y="343"/>
      <point x="516" y="339"/>
      <point x="511" y="329" type="curve"/>
      <point x="392" y="119" type="line" smooth="yes"/>
      <point x="388" y="112"/>
      <point x="386" y="107"/>
      <point x="386" y="99" type="curve" smooth="yes"/>
      <point x="386" y="83" type="line" smooth="yes"/>
      <point x="386" y="74"/>
      <point x="391" y="70"/>
      <point x="400" y="70" type="curve" smooth="yes"/>
      <point x="543" y="70" type="line"/>
      <point x="543" y="10" type="line" smooth="yes"/>
      <point x="543" y="2"/>
      <point x="546" y="0"/>
      <point x="553" y="0" type="curve" smooth="yes"/>
    </contour>
    <contour>
      <point x="543" y="303" type="line"/>
      <point x="543" y="115" type="line"/>
      <point x="438" y="115" type="line"/>
    </contour>
    <contour>
      <point x="100" y="588" type="line"/>
      <point x="100" y="310" type="line" smooth="yes"/>
      <point x="100" y="302"/>
      <point x="104" y="300"/>
      <point x="110" y="300" type="curve" smooth="yes"/>
      <point x="145" y="300" type="line" smooth="yes"/>
      <point x="151" y="300"/>
      <point x="154" y="302"/>
      <point x="154" y="310" type="curve" smooth="yes"/>
      <point x="154" y="633" type="line" smooth="yes"/>
      <point x="154" y="641"/>
      <point x="151" y="643"/>
      <point x="145" y="643" type="curve" smooth="yes"/>
      <point x="112" y="643" type="line" smooth="yes"/>
      <point x="104" y="643"/>
      <point x="100" y="640"/>
      <point x="94" y="637" type="curve"/>
      <point x="39" y="605" type="line"/>
      <point x="31" y="601"/>
      <point x="29" y="597"/>
      <point x="29" y="589" type="curve" smooth="yes"/>
      <point x="29" y="562" type="line" smooth="yes"/>
      <point x="29" y="554"/>
      <point x="33" y="550"/>
      <point x="43" y="556" type="curve" smooth="yes"/>
    </contour>
  </outline>
</glyph>
<glyph name="onehalf" format="2">
  <advance width="728"/>
  <unicode hex="00BD"/>
  <outline>
    <contour>
      <point x="575" y="626" type="line" smooth="yes"/>
      <point x="582" y="635"/>
      <point x="579" y="643"/>
      <point x="569" y="643" type="curve" smooth="yes"/>
      <point x="541" y="643" type="line" smooth="yes"/>
      <point x="531" y="643"/>
      <point x="525" y="639"/>
      <point x="517" y="628" type="curve" smooth="yes"/>
      <point x="463" y="555"/>
      <point x="120" y="89"/>
      <point x="66" y="16" type="curve" smooth="yes"/>
      <point x="58" y="6"/>
      <point x="63" y="0"/>
      <point x="73" y="0" type="curve" smooth="yes"/>
      <point x="99" y="0" type="line" smooth="yes"/>
      <point x="110" y="0"/>
      <point x="116" y="3"/>
      <point x="125" y="15" type="curve" smooth="yes"/>
    </contour>
    <contour>
      <point x="432" y="10" type="line" smooth="yes"/>
      <point x="432" y="3"/>
      <point x="435" y="0"/>
      <point x="443" y="0" type="curve" smooth="yes"/>
      <point x="652" y="0" type="line" smooth="yes"/>
      <point x="660" y="0"/>
      <point x="663" y="3"/>
      <point x="663" y="10" type="curve" smooth="yes"/>
      <point x="663" y="36" type="line" smooth="yes"/>
      <point x="663" y="43"/>
      <point x="660" y="46"/>
      <point x="652" y="46" type="curve" smooth="yes"/>
      <point x="491" y="46" type="line"/>
      <point x="491" y="50" type="line" smooth="yes"/>
      <point x="491" y="63"/>
      <point x="502" y="72"/>
      <point x="531" y="92" type="curve" smooth="yes"/>
      <point x="608" y="145" type="line" smooth="yes"/>
      <point x="645" y="171"/>
      <point x="659" y="195"/>
      <point x="659" y="241" type="curve" smooth="yes"/>
      <point x="659" y="254" type="line" smooth="yes"/>
      <point x="659" y="312"/>
      <point x="624" y="343"/>
      <point x="553" y="343" type="curve" smooth="yes"/>
      <point x="535" y="343" type="line" smooth="yes"/>
      <point x="463" y="343"/>
      <point x="429" y="311"/>
      <point x="429" y="253" type="curve" smooth="yes"/>
      <point x="429" y="235" type="line" smooth="yes"/>
      <point x="429" y="228"/>
      <point x="433" y="225"/>
      <point x="439" y="225" type="curve" smooth="yes"/>
      <point x="476" y="225" type="line" smooth="yes"/>
      <point x="483" y="225"/>
      <point x="487" y="228"/>
      <point x="487" y="235" type="curve" smooth="yes"/>
      <point x="487" y="247" type="line" smooth="yes"/>
      <point x="487" y="279"/>
      <point x="499" y="296"/>
      <point x="544" y="296" type="curve" smooth="yes"/>
      <point x="549" y="296" type="line" smooth="yes"/>
      <point x="595" y="296"/>
      <point x="607" y="279"/>
      <point x="607" y="249" type="curve" smooth="yes"/>
      <point x="607" y="243" type="line" smooth="yes"/>
      <point x="607" y="214"/>
      <point x="598" y="199"/>
      <point x="569" y="179" type="curve" smooth="yes"/>
      <point x="488" y="124" type="line" smooth="yes"/>
      <point x="451" y="98"/>
      <point x="432" y="81"/>
      <point x="432" y="41" type="curve" smooth="yes"/>
    </contour>
    <contour>
      <point x="100" y="588" type="line"/>
      <point x="100" y="310" type="line" smooth="yes"/>
      <point x="100" y="302"/>
      <point x="104" y="300"/>
      <point x="110" y="300" type="curve" smooth="yes"/>
      <point x="145" y="300" type="line" smooth="yes"/>
      <point x="151" y="300"/>
      <point x="154" y="302"/>
      <point x="154" y="310" type="curve" smooth="yes"/>
      <point x="154" y="633" type="line" smooth="yes"/>
      <point x="154" y="641"/>
      <point x="151" y="643"/>
      <point x="145" y="643" type="curve" smooth="yes"/>
      <point x="112" y="643" type="line" smooth="yes"/>
      <point x="104" y="643"/>
      <point x="100" y="640"/>
      <point x="94" y="637" type="curve"/>
      <point x="39" y="605" type="line"/>
      <point x="31" y="601"/>
      <point x="29" y="597"/>
      <point x="29" y="589" type="curve" smooth="yes"/>
      <point x="29" y="562" type="line" smooth="yes"/>
      <point x="29" y="554"/>
      <point x="33" y="550"/>
      <point x="43" y="556" type="curve" smooth="yes"/>
    </contour>
  </outline>
</glyph>
<glyph name="threequarters" format="2">
  <advance width="784"/>
  <unicode hex="00BE"/>
  <outline>
    <contour>
      <point x="650" y="626" type="line"/>
      <point x="658" y="635"/>
      <point x="654" y="643"/>
      <point x="644" y="643" type="curve" smooth="yes"/>
      <point x="616" y="643" type="line" smooth="yes"/>
      <point x="606" y="643"/>
      <point x="600" y="639"/>
      <point x="592" y="628" type="curve" smooth="yes"/>
      <point x="538" y="555"/>
      <point x="195" y="89"/>
      <point x="141" y="16" type="curve" smooth="yes"/>
      <point x="133" y="6"/>
      <point x="138" y="0"/>
      <point x="148" y="0" type="curve" smooth="yes"/>
      <point x="174" y="0" type="line" smooth="yes"/>
      <point x="185" y="0"/>
      <point x="191" y="3"/>
      <point x="200" y="15" type="curve" smooth="yes"/>
    </contour>
    <contour>
      <point x="651" y="0" type="line" smooth="yes"/>
      <point x="657" y="0"/>
      <point x="660" y="2"/>
      <point x="660" y="10" type="curve" smooth="yes"/>
      <point x="660" y="70" type="line"/>
      <point x="703" y="70" type="line" smooth="yes"/>
      <point x="710" y="70"/>
      <point x="713" y="73"/>
      <point x="713" y="79" type="curve" smooth="yes"/>
      <point x="713" y="106" type="line" smooth="yes"/>
      <point x="713" y="112"/>
      <point x="710" y="115"/>
      <point x="703" y="115" type="curve" smooth="yes"/>
      <point x="660" y="115" type="line"/>
      <point x="660" y="329" type="line" smooth="yes"/>
      <point x="660" y="339"/>
      <point x="655" y="343"/>
      <point x="647" y="343" type="curve" smooth="yes"/>
      <point x="600" y="343" type="line" smooth="yes"/>
      <point x="589" y="343"/>
      <point x="584" y="339"/>
      <point x="579" y="329" type="curve"/>
      <point x="460" y="119" type="line" smooth="yes"/>
      <point x="456" y="112"/>
      <point x="455" y="107"/>
      <point x="455" y="99" type="curve" smooth="yes"/>
      <point x="455" y="83" type="line" smooth="yes"/>
      <point x="455" y="74"/>
      <point x="459" y="70"/>
      <point x="468" y="70" type="curve" smooth="yes"/>
      <point x="611" y="70" type="line"/>
      <point x="611" y="10" type="line" smooth="yes"/>
      <point x="611" y="2"/>
      <point x="615" y="0"/>
      <point x="621" y="0" type="curve" smooth="yes"/>
    </contour>
    <contour>
      <point x="611" y="303" type="line"/>
      <point x="611" y="115" type="line"/>
      <point x="506" y="115" type="line"/>
    </contour>
    <contour>
      <point x="158" y="494" type="line" smooth="yes"/>
      <point x="151" y="494"/>
      <point x="148" y="491"/>
      <point x="148" y="484" type="curve" smooth="yes"/>
      <point x="148" y="457" type="line" smooth="yes"/>
      <point x="148" y="451"/>
      <point x="151" y="448"/>
      <point x="158" y="448" type="curve" smooth="yes"/>
      <point x="180" y="448" type="line" smooth="yes"/>
      <point x="216" y="448"/>
      <point x="236" y="437"/>
      <point x="236" y="403" type="curve" smooth="yes"/>
      <point x="236" y="397" type="line" smooth="yes"/>
      <point x="236" y="358"/>
      <point x="218" y="345"/>
      <point x="178" y="345" type="curve" smooth="yes"/>
      <point x="171" y="345" type="line" smooth="yes"/>
      <point x="139" y="345"/>
      <point x="109" y="351"/>
      <point x="109" y="396" type="curve" smooth="yes"/>
      <point x="109" y="408" type="line" smooth="yes"/>
      <point x="109" y="416"/>
      <point x="106" y="419"/>
      <point x="100" y="419" type="curve" smooth="yes"/>
      <point x="68" y="419" type="line" smooth="yes"/>
      <point x="62" y="419"/>
      <point x="58" y="416"/>
      <point x="58" y="408" type="curve" smooth="yes"/>
      <point x="58" y="390" type="line" smooth="yes"/>
      <point x="58" y="322"/>
      <point x="104" y="300"/>
      <point x="162" y="300" type="curve" smooth="yes"/>
      <point x="186" y="300" type="line" smooth="yes"/>
      <point x="254" y="300"/>
      <point x="287" y="331"/>
      <point x="287" y="393" type="curve" smooth="yes"/>
      <point x="287" y="408" type="line" smooth="yes"/>
      <point x="287" y="443"/>
      <point x="271" y="466"/>
      <point x="239" y="472" type="curve"/>
      <point x="273" y="481"/>
      <point x="287" y="508"/>
      <point x="287" y="537" type="curve" smooth="yes"/>
      <point x="287" y="553" type="line" smooth="yes"/>
      <point x="287" y="610"/>
      <point x="254" y="643"/>
      <point x="184" y="643" type="curve" smooth="yes"/>
      <point x="160" y="643" type="line" smooth="yes"/>
      <point x="90" y="643"/>
      <point x="58" y="611"/>
      <point x="58" y="553" type="curve" smooth="yes"/>
      <point x="58" y="532" type="line" smooth="yes"/>
      <point x="58" y="525"/>
      <point x="62" y="522"/>
      <point x="68" y="522" type="curve" smooth="yes"/>
      <point x="100" y="522" type="line" smooth="yes"/>
      <point x="106" y="522"/>
      <point x="109" y="525"/>
      <point x="109" y="532" type="curve" smooth="yes"/>
      <point x="109" y="547" type="line" smooth="yes"/>
      <point x="109" y="582"/>
      <point x="122" y="598"/>
      <point x="169" y="598" type="curve" smooth="yes"/>
      <point x="177" y="598" type="line" smooth="yes"/>
      <point x="224" y="598"/>
      <point x="236" y="579"/>
      <point x="236" y="547" type="curve" smooth="yes"/>
      <point x="236" y="539" type="line" smooth="yes"/>
      <point x="236" y="506"/>
      <point x="222" y="494"/>
      <point x="180" y="494" type="curve" smooth="yes"/>
    </contour>
  </outline>
</glyph>
<glyph name="multiply" format="2">
  <advance width="501"/>
  <unicode hex="00D7"/>
  <outline>
    <contour>
      <point x="295" y="321" type="line"/>
      <point x="405" y="431" type="line" smooth="yes"/>
      <point x="413" y="439"/>
      <point x="412" y="445"/>
      <point x="405" y="452" type="curve" smooth="yes"/>
      <point x="381" y="476" type="line"/>
      <point x="374" y="484"/>
      <point x="368" y="485"/>
      <point x="359" y="476" type="curve" smooth="yes"/>
      <point x="250" y="367" type="line"/>
      <point x="140" y="476" type="line"/>
      <point x="132" y="485"/>
      <point x="126" y="484"/>
      <point x="119" y="476" type="curve"/>
      <point x="95" y="452" type="line" smooth="yes"/>
      <point x="88" y="445"/>
      <point x="87" y="439"/>
      <point x="95" y="431" type="curve" smooth="yes"/>
      <point x="204" y="321" type="line"/>
      <point x="94" y="211" type="line" smooth="yes"/>
      <point x="86" y="203"/>
      <point x="87" y="197"/>
      <point x="95" y="190" type="curve"/>
      <point x="119" y="166" type="line" smooth="yes"/>
      <point x="126" y="159"/>
      <point x="132" y="158"/>
      <point x="140" y="166" type="curve" smooth="yes"/>
      <point x="250" y="276" type="line"/>
      <point x="359" y="166" type="line"/>
      <point x="368" y="158"/>
      <point x="374" y="159"/>
      <point x="381" y="166" type="curve" smooth="yes"/>
      <point x="405" y="190" type="line"/>
      <point x="413" y="197"/>
      <point x="414" y="203"/>
      <point x="405" y="211" type="curve"/>
    </contour>
  </outline>
</glyph>
<glyph name="Oslash" format="2">
  <advance width="565"/>
  <unicode hex="00D8"/>
  <outline>
    <contour>
      <point x="419" y="151" type="line" smooth="yes"/>
      <point x="419" y="95"/>
      <point x="391" y="64"/>
      <point x="335" y="64" type="curve" smooth="yes"/>
      <point x="230" y="64" type="line" smooth="yes"/>
      <point x="192" y="64"/>
      <point x="167" y="78"/>
      <point x="155" y="104" type="curve"/>
      <point x="419" y="472" type="line"/>
    </contour>
    <contour>
      <point x="146" y="492" type="line" smooth="yes"/>
      <point x="146" y="548"/>
      <point x="173" y="579"/>
      <point x="230" y="579" type="curve" smooth="yes"/>
      <point x="335" y="579" type="line" smooth="yes"/>
      <point x="372" y="579"/>
      <point x="397" y="565"/>
      <point x="410" y="539" type="curve"/>
      <point x="146" y="171" type="line"/>
    </contour>
    <contour>
      <point x="498" y="637" type="line"/>
      <point x="490" y="643"/>
      <point x="484" y="642"/>
      <point x="477" y="633" type="curve" smooth="yes"/>
      <point x="454" y="601" type="line"/>
      <point x="429" y="628"/>
      <point x="391" y="643"/>
      <point x="344" y="643" type="curve" smooth="yes"/>
      <point x="221" y="643" type="line" smooth="yes"/>
      <point x="129" y="643"/>
      <point x="73" y="588"/>
      <point x="73" y="495" type="curve" smooth="yes"/>
      <point x="73" y="148" type="line" smooth="yes"/>
      <point x="73" y="124"/>
      <point x="77" y="103"/>
      <point x="84" y="84" type="curve"/>
      <point x="50" y="37" type="line" smooth="yes"/>
      <point x="44" y="28"/>
      <point x="45" y="21"/>
      <point x="52" y="16" type="curve" smooth="yes"/>
      <point x="66" y="5" type="line"/>
      <point x="74" y="0"/>
      <point x="81" y="1"/>
      <point x="87" y="9" type="curve" smooth="yes"/>
      <point x="110" y="41" type="line"/>
      <point x="136" y="15"/>
      <point x="174" y="0"/>
      <point x="221" y="0" type="curve" smooth="yes"/>
      <point x="344" y="0" type="line" smooth="yes"/>
      <point x="435" y="0"/>
      <point x="491" y="55"/>
      <point x="491" y="148" type="curve" smooth="yes"/>
      <point x="491" y="495" type="line" smooth="yes"/>
      <point x="491" y="519"/>
      <point x="487" y="540"/>
      <point x="481" y="558" type="curve"/>
      <point x="515" y="606" type="line" smooth="yes"/>
      <point x="521" y="615"/>
      <point x="521" y="622"/>
      <point x="513" y="627" type="curve" smooth="yes"/>
    </contour>
  </outline>
</glyph>
<glyph name="oslash" format="2">
  <advance width="521"/>
  <unicode hex="00F8"/>
  <outline>
    <contour>
      <point x="378" y="151" type="line" smooth="yes"/>
      <point x="378" y="95"/>
      <point x="351" y="64"/>
      <point x="295" y="64" type="curve" smooth="yes"/>
      <point x="226" y="64" type="line" smooth="yes"/>
      <point x="185" y="64"/>
      <point x="159" y="80"/>
      <point x="148" y="110" type="curve"/>
      <point x="378" y="341" type="line"/>
    </contour>
    <contour>
      <point x="142" y="359" type="line" smooth="yes"/>
      <point x="142" y="415"/>
      <point x="169" y="446"/>
      <point x="226" y="446" type="curve" smooth="yes"/>
      <point x="295" y="446" type="line" smooth="yes"/>
      <point x="336" y="446"/>
      <point x="362" y="429"/>
      <point x="372" y="398" type="curve"/>
      <point x="142" y="168" type="line"/>
    </contour>
    <contour>
      <point x="481" y="488" type="line" smooth="yes"/>
      <point x="475" y="494"/>
      <point x="467" y="494"/>
      <point x="461" y="487" type="curve"/>
      <point x="427" y="453" type="line"/>
      <point x="402" y="490"/>
      <point x="359" y="510"/>
      <point x="304" y="510" type="curve" smooth="yes"/>
      <point x="217" y="510" type="line" smooth="yes"/>
      <point x="126" y="510"/>
      <point x="69" y="455"/>
      <point x="69" y="362" type="curve" smooth="yes"/>
      <point x="69" y="148" type="line" smooth="yes"/>
      <point x="69" y="131"/>
      <point x="71" y="115"/>
      <point x="75" y="101" type="curve"/>
      <point x="28" y="54" type="line" smooth="yes"/>
      <point x="21" y="47"/>
      <point x="21" y="41"/>
      <point x="28" y="34" type="curve" smooth="yes"/>
      <point x="40" y="22" type="line"/>
      <point x="46" y="15"/>
      <point x="52" y="15"/>
      <point x="60" y="22" type="curve"/>
      <point x="94" y="56" type="line"/>
      <point x="119" y="20"/>
      <point x="162" y="0"/>
      <point x="217" y="0" type="curve" smooth="yes"/>
      <point x="304" y="0" type="line" smooth="yes"/>
      <point x="395" y="0"/>
      <point x="452" y="55"/>
      <point x="452" y="148" type="curve" smooth="yes"/>
      <point x="452" y="362" type="line" smooth="yes"/>
      <point x="452" y="379"/>
      <point x="450" y="395"/>
      <point x="446" y="409" type="curve"/>
      <point x="493" y="456" type="line" smooth="yes"/>
      <point x="500" y="463"/>
      <point x="500" y="469"/>
      <point x="493" y="476" type="curve" smooth="yes"/>
    </contour>
  </outline>
</glyph>
<glyph name="Aogonek" format="2">
  <advance width="539"/>
  <unicode hex="0104"/>
  <outline>
    <contour>
      <point x="165" y="222" type="line"/>
      <point x="268" y="568" type="line"/>
      <point x="272" y="568" type="line"/>
      <point x="375" y="222" type="line"/>
    </contour>
    <contour>
      <point x="325" y="629" type="line" smooth="yes"/>
      <point x="322" y="640"/>
      <point x="316" y="643"/>
      <point x="306" y="643" type="curve" smooth="yes"/>
      <point x="234" y="643" type="line" smooth="yes"/>
      <point x="224" y="643"/>
      <point x="218" y="640"/>
      <point x="215" y="629" type="curve" smooth="yes"/>
      <point x="28" y="14" type="line" smooth="yes"/>
      <point x="25" y="4"/>
      <point x="28" y="0"/>
      <point x="37" y="0" type="curve" smooth="yes"/>
      <point x="87" y="0" type="line" smooth="yes"/>
      <point x="96" y="0"/>
      <point x="99" y="3"/>
      <point x="102" y="14" type="curve" smooth="yes"/>
      <point x="149" y="160" type="line"/>
      <point x="391" y="160" type="line"/>
      <point x="436" y="19" type="line"/>
      <point x="375" y="-67" type="line" smooth="yes"/>
      <point x="360" y="-88"/>
      <point x="368" y="-111"/>
      <point x="402" y="-111" type="curve" smooth="yes"/>
      <point x="439" y="-111"/>
      <point x="482" y="-100"/>
      <point x="482" y="-81" type="curve" smooth="yes"/>
      <point x="482" y="-70"/>
      <point x="477" y="-67"/>
      <point x="456" y="-67" type="curve" smooth="yes"/>
      <point x="417" y="-67" type="line"/>
      <point x="465" y="0" type="line"/>
      <point x="503" y="0" type="line" smooth="yes"/>
      <point x="512" y="0"/>
      <point x="515" y="4"/>
      <point x="512" y="14" type="curve" smooth="yes"/>
    </contour>
  </outline>
</glyph>
<glyph name="iogonek" format="2">
  <advance width="221"/>
  <unicode hex="012F"/>
  <outline>
    <contour>
      <point x="87" y="510" type="line" smooth="yes"/>
      <point x="78" y="510"/>
      <point x="74" y="507"/>
      <point x="74" y="496" type="curve" smooth="yes"/>
      <point x="74" y="14" type="line" smooth="yes"/>
      <point x="74" y="5"/>
      <point x="77" y="1"/>
      <point x="84" y="0" type="curve"/>
      <point x="43" y="-60" type="line" smooth="yes"/>
      <point x="28" y="-80"/>
      <point x="30" y="-114"/>
      <point x="62" y="-114" type="curve" smooth="yes"/>
      <point x="97" y="-114"/>
      <point x="139" y="-99"/>
      <point x="140" y="-80" type="curve"/>
      <point x="142" y="-70"/>
      <point x="137" y="-67"/>
      <point x="118" y="-67" type="curve"/>
      <point x="111" y="-68"/>
      <point x="88" y="-69"/>
      <point x="77" y="-69" type="curve" smooth="yes"/>
      <point x="75" y="-69"/>
      <point x="107" y="-23"/>
      <point x="124" y="0" type="curve"/>
      <point x="133" y="0" type="line" smooth="yes"/>
      <point x="143" y="0"/>
      <point x="147" y="3"/>
      <point x="147" y="14" type="curve" smooth="yes"/>
      <point x="147" y="496" type="line" smooth="yes"/>
      <point x="147" y="507"/>
      <point x="142" y="510"/>
      <point x="133" y="510" type="curve" smooth="yes"/>
    </contour>
    <contour>
      <point x="87" y="702" type="line" smooth="yes"/>
      <point x="78" y="702"/>
      <point x="74" y="698"/>
      <point x="74" y="688" type="curve" smooth="yes"/>
      <point x="74" y="594" type="line" smooth="yes"/>
      <point x="74" y="585"/>
      <point x="78" y="580"/>
      <point x="87" y="580" type="curve" smooth="yes"/>
      <point x="133" y="580" type="line" smooth="yes"/>
      <point x="142" y="580"/>
      <point x="147" y="585"/>
      <point x="147" y="594" type="curve" smooth="yes"/>
      <point x="147" y="688" type="line" smooth="yes"/>
      <point x="147" y="698"/>
      <point x="142" y="702"/>
      <point x="133" y="702" type="curve" smooth="yes"/>
    </contour>
  </outline>
</glyph>
<glyph name="dvAnusvara" format="2">
  <unicode hex="0902"/>
  <outline>
    <contour>
      <point x="-82" y="790" type="line" smooth="yes"/>
      <point x="-82" y="800"/>
      <point x="-88" y="804"/>
      <point x="-97" y="804" type="curve" smooth="yes"/>
      <point x="-143" y="804" type="line" smooth="yes"/>
      <point x="-153" y="804"/>
      <point x="-158" y="800"/>
      <point x="-158" y="790" type="curve" smooth="yes"/>
      <point x="-158" y="742" type="line" smooth="yes"/>
      <point x="-158" y="732"/>
      <point x="-153" y="727"/>
      <point x="-143" y="727" type="curve" smooth="yes"/>
      <point x="-97" y="727" type="line" smooth="yes"/>
      <point x="-87" y="727"/>
      <point x="-82" y="732"/>
      <point x="-82" y="742" type="curve" smooth="yes"/>
    </contour>
  </outline>
</glyph>
<glyph name="dvAA" format="2">
  <advance width="833"/>
  <unicode hex="0906"/>
  <outline>
    <contour>
      <point x="478" y="623" type="line" smooth="yes"/>
      <point x="460" y="623"/>
      <point x="449" y="610"/>
      <point x="449" y="593" type="curve" smooth="yes"/>
      <point x="449" y="304" type="line" smooth="yes"/>
      <point x="449" y="297"/>
      <point x="447" y="293"/>
      <point x="439" y="293" type="curve" smooth="yes"/>
      <point x="309" y="293" type="line"/>
      <point x="298" y="314"/>
      <point x="281" y="328"/>
      <point x="259" y="336" type="curve"/>
      <point x="259" y="340" type="line"/>
      <point x="299" y="357"/>
      <point x="323" y="396"/>
      <point x="323" y="452" type="curve" smooth="yes"/>
      <point x="323" y="474" type="line" smooth="yes"/>
      <point x="323" y="569"/>
      <point x="271" y="623"/>
      <point x="174" y="623" type="curve" smooth="yes"/>
      <point x="84" y="623" type="line" smooth="yes"/>
      <point x="73" y="623"/>
      <point x="68" y="618"/>
      <point x="68" y="608" type="curve" smooth="yes"/>
      <point x="68" y="578" type="line" smooth="yes"/>
      <point x="68" y="568"/>
      <point x="73" y="563"/>
      <point x="84" y="563" type="curve" smooth="yes"/>
      <point x="167" y="563" type="line" smooth="yes"/>
      <point x="226" y="563"/>
      <point x="256" y="533"/>
      <point x="256" y="475" type="curve" smooth="yes"/>
      <point x="256" y="455" type="line" smooth="yes"/>
      <point x="256" y="398"/>
      <point x="226" y="368"/>
      <point x="167" y="368" type="curve" smooth="yes"/>
      <point x="109" y="368" type="line" smooth="yes"/>
      <point x="99" y="368"/>
      <point x="94" y="363"/>
      <point x="94" y="353" type="curve" smooth="yes"/>
      <point x="94" y="322" type="line" smooth="yes"/>
      <point x="94" y="312"/>
      <point x="99" y="307"/>
      <point x="110" y="307" type="curve" smooth="yes"/>
      <point x="167" y="307" type="line" smooth="yes"/>
      <point x="226" y="307"/>
      <point x="256" y="278"/>
      <point x="256" y="221" type="curve" smooth="yes"/>
      <point x="256" y="188" type="line" smooth="yes"/>
      <point x="256" y="130"/>
      <point x="226" y="99"/>
      <point x="167" y="99" type="curve" smooth="yes"/>
      <point x="51" y="99" type="line" smooth="yes"/>
      <point x="39" y="99"/>
      <point x="35" y="94"/>
      <point x="35" y="85" type="curve" smooth="yes"/>
      <point x="35" y="53" type="line" smooth="yes"/>
      <point x="35" y="43"/>
      <point x="39" y="38"/>
      <point x="51" y="38" type="curve" smooth="yes"/>
      <point x="171" y="38" type="line" smooth="yes"/>
      <point x="266" y="38"/>
      <point x="323" y="93"/>
      <point x="323" y="188" type="curve" smooth="yes"/>
      <point x="323" y="227" type="line"/>
      <point x="323" y="233" type="line"/>
      <point x="439" y="233" type="line" smooth="yes"/>
      <point x="447" y="233"/>
      <point x="449" y="229"/>
      <point x="449" y="223" type="curve" smooth="yes"/>
      <point x="449" y="15" type="line" smooth="yes"/>
      <point x="449" y="4"/>
      <point x="455" y="0"/>
      <point x="465" y="0" type="curve" smooth="yes"/>
      <point x="503" y="0" type="line" smooth="yes"/>
      <point x="513" y="0"/>
      <point x="518" y="4"/>
      <point x="518" y="15" type="curve" smooth="yes"/>
      <point x="518" y="553" type="line" smooth="yes"/>
      <point x="518" y="559"/>
      <point x="521" y="563"/>
      <point x="528" y="563" type="curve" smooth="yes"/>
      <point x="672" y="563" type="line" smooth="yes"/>
      <point x="680" y="563"/>
      <point x="682" y="559"/>
      <point x="682" y="553" type="curve" smooth="yes"/>
      <point x="682" y="15" type="line" smooth="yes"/>
      <point x="682" y="4"/>
      <point x="688" y="0"/>
      <point x="697" y="0" type="curve" smooth="yes"/>
      <point x="736" y="0" type="line" smooth="yes"/>
      <point x="746" y="0"/>
      <point x="751" y="4"/>
      <point x="751" y="15" type="curve" smooth="yes"/>
      <point x="751" y="553" type="line" smooth="yes"/>
      <point x="751" y="559"/>
      <point x="754" y="563"/>
      <point x="761" y="563" type="curve" smooth="yes"/>
      <point x="836" y="563" type="line" smooth="yes"/>
      <point x="848" y="563"/>
      <point x="852" y="568"/>
      <point x="852" y="578" type="curve" smooth="yes"/>
      <point x="852" y="608" type="line" smooth="yes"/>
      <point x="852" y="618"/>
      <point x="848" y="623"/>
      <point x="836" y="623" type="curve" smooth="yes"/>
    </contour>
  </outline>
</glyph>
<glyph name="dvEcandra" format="2">
  <advance width="520"/>
  <unicode hex="090D"/>
  <outline>
    <contour>
      <point x="311" y="717" type="line" smooth="yes"/>
      <point x="390" y="717"/>
      <point x="430" y="759"/>
      <point x="430" y="841" type="curve" smooth="yes"/>
      <point x="430" y="848" type="line" smooth="yes"/>
      <point x="430" y="862"/>
      <point x="424" y="868"/>
      <point x="413" y="868" type="curve" smooth="yes"/>
      <point x="383" y="868" type="line" smooth="yes"/>
      <point x="373" y="868"/>
      <point x="367" y="863"/>
      <point x="367" y="849" type="curve" smooth="yes"/>
      <point x="367" y="842" type="line" smooth="yes"/>
      <point x="367" y="793"/>
      <point x="350" y="775"/>
      <point x="301" y="775" type="curve" smooth="yes"/>
      <point x="239" y="775" type="line" smooth="yes"/>
      <point x="190" y="775"/>
      <point x="173" y="793"/>
      <point x="173" y="842" type="curve" smooth="yes"/>
      <point x="173" y="849" type="line" smooth="yes"/>
      <point x="173" y="863"/>
      <point x="167" y="868"/>
      <point x="157" y="868" type="curve" smooth="yes"/>
      <point x="128" y="868" type="line" smooth="yes"/>
      <point x="116" y="868"/>
      <point x="110" y="862"/>
      <point x="110" y="848" type="curve" smooth="yes"/>
      <point x="110" y="841" type="line" smooth="yes"/>
      <point x="110" y="759"/>
      <point x="150" y="717"/>
      <point x="229" y="717" type="curve" smooth="yes"/>
    </contour>
    <contour>
      <point x="-3" y="623" type="line" smooth="yes"/>
      <point x="-14" y="623"/>
      <point x="-19" y="618"/>
      <point x="-19" y="608" type="curve" smooth="yes"/>
      <point x="-19" y="578" type="line" smooth="yes"/>
      <point x="-19" y="568"/>
      <point x="-14" y="563"/>
      <point x="-3" y="563" type="curve" smooth="yes"/>
      <point x="72" y="563" type="line" smooth="yes"/>
      <point x="79" y="563"/>
      <point x="82" y="559"/>
      <point x="82" y="553" type="curve" smooth="yes"/>
      <point x="82" y="192" type="line" smooth="yes"/>
      <point x="82" y="97"/>
      <point x="143" y="30"/>
      <point x="245" y="30" type="curve" smooth="yes"/>
      <point x="416" y="30" type="line"/>
      <point x="427" y="31"/>
      <point x="431" y="35"/>
      <point x="431" y="46" type="curve" smooth="yes"/>
      <point x="431" y="78" type="line" smooth="yes"/>
      <point x="431" y="87"/>
      <point x="427" y="93"/>
      <point x="416" y="93" type="curve" smooth="yes"/>
      <point x="256" y="93" type="line" smooth="yes"/>
      <point x="187" y="93"/>
      <point x="150" y="130"/>
      <point x="150" y="195" type="curve" smooth="yes"/>
      <point x="150" y="553" type="line" smooth="yes"/>
      <point x="150" y="559"/>
      <point x="153" y="563"/>
      <point x="161" y="563" type="curve" smooth="yes"/>
      <point x="383" y="563" type="line" smooth="yes"/>
      <point x="390" y="563"/>
      <point x="393" y="559"/>
      <point x="393" y="553" type="curve" smooth="yes"/>
      <point x="393" y="422" type="line" smooth="yes"/>
      <point x="393" y="356"/>
      <point x="358" y="338"/>
      <point x="309" y="338" type="curve" smooth="yes"/>
      <point x="276" y="338" type="line" smooth="yes"/>
      <point x="265" y="338"/>
      <point x="260" y="333"/>
      <point x="260" y="323" type="curve" smooth="yes"/>
      <point x="260" y="292" type="line" smooth="yes"/>
      <point x="260" y="282"/>
      <point x="265" y="277"/>
      <point x="276" y="277" type="curve" smooth="yes"/>
      <point x="316" y="277" type="line" smooth="yes"/>
      <point x="404" y="277"/>
      <point x="461" y="322"/>
      <point x="461" y="422" type="curve" smooth="yes"/>
      <point x="461" y="553" type="line" smooth="yes"/>
      <point x="461" y="559"/>
      <point x="464" y="563"/>
      <point x="472" y="563" type="curve" smooth="yes"/>
      <point x="527" y="563" type="line" smooth="yes"/>
      <point x="538" y="563"/>
      <point x="543" y="568"/>
      <point x="543" y="578" type="curve" smooth="yes"/>
      <point x="543" y="608" type="line" smooth="yes"/>
      <point x="543" y="618"/>
      <point x="538" y="623"/>
      <point x="527" y="623" type="curve" smooth="yes"/>
    </contour>
  </outline>
</glyph>
<glyph name="dvAI" format="2">
  <advance width="524"/>
  <unicode hex="0910"/>
  <outline>
    <contour>
      <point x="469" y="623" type="line" smooth="yes"/>
      <point x="455" y="623"/>
      <point x="452" y="627"/>
      <point x="445" y="639" type="curve" smooth="yes"/>
      <point x="299" y="865" type="line" smooth="yes"/>
      <point x="293" y="875"/>
      <point x="287" y="878"/>
      <point x="277" y="878" type="curve" smooth="yes"/>
      <point x="234" y="878" type="line" smooth="yes"/>
      <point x="226" y="878"/>
      <point x="221" y="873"/>
      <point x="221" y="866" type="curve" smooth="yes"/>
      <point x="221" y="862"/>
      <point x="223" y="859"/>
      <point x="225" y="855" type="curve"/>
      <point x="284" y="768" type="line" smooth="yes"/>
      <point x="325" y="707"/>
      <point x="364" y="658"/>
      <point x="396" y="623" type="curve"/>
      <point x="-3" y="623" type="line" smooth="yes"/>
      <point x="-14" y="623"/>
      <point x="-19" y="618"/>
      <point x="-19" y="608" type="curve" smooth="yes"/>
      <point x="-19" y="578" type="line" smooth="yes"/>
      <point x="-19" y="568"/>
      <point x="-14" y="563"/>
      <point x="-3" y="563" type="curve" smooth="yes"/>
      <point x="72" y="563" type="line" smooth="yes"/>
      <point x="79" y="563"/>
      <point x="82" y="559"/>
      <point x="82" y="553" type="curve" smooth="yes"/>
      <point x="82" y="192" type="line" smooth="yes"/>
      <point x="82" y="97"/>
      <point x="143" y="30"/>
      <point x="245" y="30" type="curve" smooth="yes"/>
      <point x="416" y="30" type="line"/>
      <point x="427" y="31"/>
      <point x="431" y="35"/>
      <point x="431" y="46" type="curve" smooth="yes"/>
      <point x="431" y="78" type="line" smooth="yes"/>
      <point x="431" y="87"/>
      <point x="427" y="93"/>
      <point x="416" y="93" type="curve" smooth="yes"/>
      <point x="256" y="93" type="line" smooth="yes"/>
      <point x="187" y="93"/>
      <point x="150" y="130"/>
      <point x="150" y="195" type="curve" smooth="yes"/>
      <point x="150" y="553" type="line" smooth="yes"/>
      <point x="150" y="559"/>
      <point x="153" y="563"/>
      <point x="161" y="563" type="curve" smooth="yes"/>
      <point x="383" y="563" type="line" smooth="yes"/>
      <point x="390" y="563"/>
      <point x="393" y="559"/>
      <point x="393" y="553" type="curve" smooth="yes"/>
      <point x="393" y="422" type="line" smooth="yes"/>
      <point x="393" y="356"/>
      <point x="358" y="338"/>
      <point x="309" y="338" type="curve" smooth="yes"/>
      <point x="276" y="338" type="line" smooth="yes"/>
      <point x="265" y="338"/>
      <point x="260" y="333"/>
      <point x="260" y="323" type="curve" smooth="yes"/>
      <point x="260" y="292" type="line" smooth="yes"/>
      <point x="260" y="282"/>
      <point x="265" y="277"/>
      <point x="276" y="277" type="curve" smooth="yes"/>
      <point x="316" y="277" type="line" smooth="yes"/>
      <point x="404" y="277"/>
      <point x="461" y="322"/>
      <point x="461" y="422" type="curve" smooth="yes"/>
      <point x="461" y="553" type="line" smooth="yes"/>
      <point x="461" y="559"/>
      <point x="464" y="563"/>
      <point x="472" y="563" type="curve" smooth="yes"/>
      <point x="527" y="563" type="line" smooth="yes"/>
      <point x="538" y="563"/>
      <point x="543" y="568"/>
      <point x="543" y="578" type="curve" smooth="yes"/>
      <point x="543" y="608" type="line" smooth="yes"/>
      <point x="543" y="618"/>
      <point x="538" y="623"/>
      <point x="527" y="623" type="curve" smooth="yes"/>
    </contour>
  </outline>
</glyph>
<glyph name="dvO" format="2">
  <advance width="834"/>
  <unicode hex="0913"/>
  <outline>
    <contour>
      <point x="761" y="623" type="line" smooth="yes"/>
      <point x="747" y="623"/>
      <point x="744" y="627"/>
      <point x="736" y="639" type="curve" smooth="yes"/>
      <point x="591" y="865" type="line" smooth="yes"/>
      <point x="585" y="875"/>
      <point x="579" y="878"/>
      <point x="569" y="878" type="curve" smooth="yes"/>
      <point x="524" y="878" type="line" smooth="yes"/>
      <point x="516" y="878"/>
      <point x="512" y="873"/>
      <point x="512" y="866" type="curve" smooth="yes"/>
      <point x="512" y="862"/>
      <point x="513" y="859"/>
      <point x="515" y="855" type="curve"/>
      <point x="574" y="768" type="line" smooth="yes"/>
      <point x="628" y="689"/>
      <point x="655" y="659"/>
      <point x="684" y="627" type="curve"/>
      <point x="684" y="623" type="line"/>
      <point x="479" y="623" type="line" smooth="yes"/>
      <point x="461" y="623"/>
      <point x="450" y="610"/>
      <point x="450" y="593" type="curve" smooth="yes"/>
      <point x="450" y="304" type="line" smooth="yes"/>
      <point x="450" y="297"/>
      <point x="448" y="293"/>
      <point x="440" y="293" type="curve" smooth="yes"/>
      <point x="310" y="293" type="line"/>
      <point x="299" y="314"/>
      <point x="282" y="328"/>
      <point x="260" y="336" type="curve"/>
      <point x="260" y="340" type="line"/>
      <point x="300" y="357"/>
      <point x="324" y="396"/>
      <point x="324" y="452" type="curve" smooth="yes"/>
      <point x="324" y="474" type="line" smooth="yes"/>
      <point x="324" y="569"/>
      <point x="272" y="623"/>
      <point x="175" y="623" type="curve" smooth="yes"/>
      <point x="85" y="623" type="line" smooth="yes"/>
      <point x="74" y="623"/>
      <point x="69" y="618"/>
      <point x="69" y="608" type="curve" smooth="yes"/>
      <point x="69" y="578" type="line" smooth="yes"/>
      <point x="69" y="568"/>
      <point x="74" y="563"/>
      <point x="85" y="563" type="curve" smooth="yes"/>
      <point x="168" y="563" type="line" smooth="yes"/>
      <point x="227" y="563"/>
      <point x="257" y="533"/>
      <point x="257" y="475" type="curve" smooth="yes"/>
      <point x="257" y="455" type="line" smooth="yes"/>
      <point x="257" y="398"/>
      <point x="227" y="368"/>
      <point x="168" y="368" type="curve" smooth="yes"/>
      <point x="110" y="368" type="line" smooth="yes"/>
      <point x="100" y="368"/>
      <point x="95" y="363"/>
      <point x="95" y="353" type="curve" smooth="yes"/>
      <point x="95" y="322" type="line" smooth="yes"/>
      <point x="95" y="312"/>
      <point x="100" y="307"/>
      <point x="111" y="307" type="curve" smooth="yes"/>
      <point x="168" y="307" type="line" smooth="yes"/>
      <point x="227" y="307"/>
      <point x="257" y="278"/>
      <point x="257" y="221" type="curve" smooth="yes"/>
      <point x="257" y="188" type="line" smooth="yes"/>
      <point x="257" y="130"/>
      <point x="227" y="99"/>
      <point x="168" y="99" type="curve" smooth="yes"/>
      <point x="52" y="99" type="line" smooth="yes"/>
      <point x="40" y="99"/>
      <point x="36" y="94"/>
      <point x="36" y="85" type="curve" smooth="yes"/>
      <point x="36" y="53" type="line" smooth="yes"/>
      <point x="36" y="43"/>
      <point x="40" y="38"/>
      <point x="52" y="38" type="curve" smooth="yes"/>
      <point x="172" y="38" type="line" smooth="yes"/>
      <point x="267" y="38"/>
      <point x="324" y="93"/>
      <point x="324" y="188" type="curve" smooth="yes"/>
      <point x="324" y="227" type="line"/>
      <point x="324" y="233" type="line"/>
      <point x="440" y="233" type="line" smooth="yes"/>
      <point x="448" y="233"/>
      <point x="450" y="229"/>
      <point x="450" y="223" type="curve" smooth="yes"/>
      <point x="450" y="15" type="line" smooth="yes"/>
      <point x="450" y="4"/>
      <point x="456" y="0"/>
      <point x="466" y="0" type="curve" smooth="yes"/>
      <point x="504" y="0" type="line" smooth="yes"/>
      <point x="514" y="0"/>
      <point x="519" y="4"/>
      <point x="519" y="15" type="curve" smooth="yes"/>
      <point x="519" y="553" type="line" smooth="yes"/>
      <point x="519" y="559"/>
      <point x="522" y="563"/>
      <point x="529" y="563" type="curve" smooth="yes"/>
      <point x="673" y="563" type="line" smooth="yes"/>
      <point x="681" y="563"/>
      <point x="684" y="559"/>
      <point x="684" y="553" type="curve" smooth="yes"/>
      <point x="684" y="15" type="line" smooth="yes"/>
      <point x="684" y="4"/>
      <point x="689" y="0"/>
      <point x="699" y="0" type="curve" smooth="yes"/>
      <point x="737" y="0" type="line" smooth="yes"/>
      <point x="747" y="0"/>
      <point x="752" y="4"/>
      <point x="752" y="15" type="curve" smooth="yes"/>
      <point x="752" y="553" type="line" smooth="yes"/>
      <point x="752" y="559"/>
      <point x="755" y="563"/>
      <point x="762" y="563" type="curve" smooth="yes"/>
      <point x="837" y="563" type="line" smooth="yes"/>
      <point x="849" y="563"/>
      <point x="853" y="568"/>
      <point x="853" y="578" type="curve" smooth="yes"/>
      <point x="853" y="608" type="line" smooth="yes"/>
      <point x="853" y="618"/>
      <point x="849" y="623"/>
      <point x="837" y="623" type="curve" smooth="yes"/>
    </contour>
  </outline>
</glyph>
<glyph name="dvAU" format="2">
  <advance width="834"/>
  <unicode hex="0914"/>
  <outline>
    <contour>
      <point x="760" y="623" type="line" smooth="yes"/>
      <point x="754" y="623"/>
      <point x="752" y="627"/>
      <point x="752" y="634" type="curve" smooth="yes"/>
      <point x="752" y="863" type="line" smooth="yes"/>
      <point x="752" y="875"/>
      <point x="747" y="878"/>
      <point x="737" y="878" type="curve" smooth="yes"/>
      <point x="701" y="878" type="line" smooth="yes"/>
      <point x="691" y="878"/>
      <point x="686" y="874"/>
      <point x="686" y="863" type="curve" smooth="yes"/>
      <point x="686" y="822" type="line" smooth="yes"/>
      <point x="686" y="748"/>
      <point x="699" y="679"/>
      <point x="714" y="645" type="curve"/>
      <point x="711" y="643" type="line"/>
      <point x="574" y="865" type="line" smooth="yes"/>
      <point x="569" y="874"/>
      <point x="563" y="878"/>
      <point x="548" y="878" type="curve" smooth="yes"/>
      <point x="511" y="878" type="line" smooth="yes"/>
      <point x="503" y="878"/>
      <point x="498" y="873"/>
      <point x="498" y="866" type="curve" smooth="yes"/>
      <point x="498" y="862"/>
      <point x="499" y="859"/>
      <point x="502" y="855" type="curve" smooth="yes"/>
      <point x="561" y="768" type="line" smooth="yes"/>
      <point x="608" y="701"/>
      <point x="656" y="645"/>
      <point x="680" y="627" type="curve"/>
      <point x="680" y="623" type="line"/>
      <point x="479" y="623" type="line" smooth="yes"/>
      <point x="461" y="623"/>
      <point x="450" y="610"/>
      <point x="450" y="593" type="curve" smooth="yes"/>
      <point x="450" y="304" type="line" smooth="yes"/>
      <point x="450" y="297"/>
      <point x="448" y="293"/>
      <point x="440" y="293" type="curve" smooth="yes"/>
      <point x="310" y="293" type="line"/>
      <point x="299" y="314"/>
      <point x="282" y="328"/>
      <point x="260" y="336" type="curve"/>
      <point x="260" y="340" type="line"/>
      <point x="300" y="357"/>
      <point x="324" y="396"/>
      <point x="324" y="452" type="curve" smooth="yes"/>
      <point x="324" y="474" type="line" smooth="yes"/>
      <point x="324" y="569"/>
      <point x="272" y="623"/>
      <point x="175" y="623" type="curve" smooth="yes"/>
      <point x="85" y="623" type="line" smooth="yes"/>
      <point x="74" y="623"/>
      <point x="69" y="618"/>
      <point x="69" y="608" type="curve" smooth="yes"/>
      <point x="69" y="578" type="line" smooth="yes"/>
      <point x="69" y="568"/>
      <point x="74" y="563"/>
      <point x="85" y="563" type="curve" smooth="yes"/>
      <point x="168" y="563" type="line" smooth="yes"/>
      <point x="227" y="563"/>
      <point x="257" y="533"/>
      <point x="257" y="475" type="curve" smooth="yes"/>
      <point x="257" y="455" type="line" smooth="yes"/>
      <point x="257" y="398"/>
      <point x="227" y="368"/>
      <point x="168" y="368" type="curve" smooth="yes"/>
      <point x="110" y="368" type="line" smooth="yes"/>
      <point x="100" y="368"/>
      <point x="95" y="363"/>
      <point x="95" y="353" type="curve" smooth="yes"/>
      <point x="95" y="322" type="line" smooth="yes"/>
      <point x="95" y="312"/>
      <point x="100" y="307"/>
      <point x="111" y="307" type="curve" smooth="yes"/>
      <point x="168" y="307" type="line" smooth="yes"/>
      <point x="227" y="307"/>
      <point x="257" y="278"/>
      <point x="257" y="221" type="curve" smooth="yes"/>
      <point x="257" y="188" type="line" smooth="yes"/>
      <point x="257" y="130"/>
      <point x="227" y="99"/>
      <point x="168" y="99" type="curve" smooth="yes"/>
      <point x="52" y="99" type="line" smooth="yes"/>
      <point x="40" y="99"/>
      <point x="36" y="94"/>
      <point x="36" y="85" type="curve" smooth="yes"/>
      <point x="36" y="53" type="line" smooth="yes"/>
      <point x="36" y="43"/>
      <point x="40" y="38"/>
      <point x="52" y="38" type="curve" smooth="yes"/>
      <point x="172" y="38" type="line" smooth="yes"/>
      <point x="267" y="38"/>
      <point x="324" y="93"/>
      <point x="324" y="188" type="curve" smooth="yes"/>
      <point x="324" y="227" type="line"/>
      <point x="324" y="233" type="line"/>
      <point x="440" y="233" type="line" smooth="yes"/>
      <point x="448" y="233"/>
      <point x="450" y="229"/>
      <point x="450" y="223" type="curve" smooth="yes"/>
      <point x="450" y="15" type="line" smooth="yes"/>
      <point x="450" y="4"/>
      <point x="456" y="0"/>
      <point x="466" y="0" type="curve" smooth="yes"/>
      <point x="504" y="0" type="line" smooth="yes"/>
      <point x="514" y="0"/>
      <point x="519" y="4"/>
      <point x="519" y="15" type="curve" smooth="yes"/>
      <point x="519" y="553" type="line" smooth="yes"/>
      <point x="519" y="559"/>
      <point x="522" y="563"/>
      <point x="529" y="563" type="curve" smooth="yes"/>
      <point x="673" y="563" type="line" smooth="yes"/>
      <point x="681" y="563"/>
      <point x="684" y="559"/>
      <point x="684" y="553" type="curve" smooth="yes"/>
      <point x="684" y="15" type="line" smooth="yes"/>
      <point x="684" y="4"/>
      <point x="689" y="0"/>
      <point x="699" y="0" type="curve" smooth="yes"/>
      <point x="737" y="0" type="line" smooth="yes"/>
      <point x="747" y="0"/>
      <point x="752" y="4"/>
      <point x="752" y="15" type="curve" smooth="yes"/>
      <point x="752" y="553" type="line" smooth="yes"/>
      <point x="752" y="559"/>
      <point x="755" y="563"/>
      <point x="762" y="563" type="curve" smooth="yes"/>
      <point x="837" y="563" type="line" smooth="yes"/>
      <point x="849" y="563"/>
      <point x="853" y="568"/>
      <point x="853" y="578" type="curve" smooth="yes"/>
      <point x="853" y="608" type="line" smooth="yes"/>
      <point x="853" y="618"/>
      <point x="849" y="623"/>
      <point x="837" y="623" type="curve" smooth="yes"/>
    </contour>
  </outline>
</glyph>
<glyph name="dvBA" format="2">
  <advance width="500"/>
  <unicode hex="092C"/>
  <outline>
    <contour>
      <point x="211" y="142" type="line" smooth="yes"/>
      <point x="151" y="142"/>
      <point x="122" y="174"/>
      <point x="122" y="233" type="curve" smooth="yes"/>
      <point x="122" y="328" type="line" smooth="yes"/>
      <point x="122" y="343"/>
      <point x="124" y="356"/>
      <point x="128" y="368" type="curve"/>
      <point x="329" y="171" type="line"/>
      <point x="314" y="153"/>
      <point x="290" y="142"/>
      <point x="257" y="142" type="curve" smooth="yes"/>
    </contour>
    <contour>
      <point x="-3" y="623" type="line" smooth="yes"/>
      <point x="-14" y="623"/>
      <point x="-19" y="618"/>
      <point x="-19" y="608" type="curve" smooth="yes"/>
      <point x="-19" y="578" type="line" smooth="yes"/>
      <point x="-19" y="568"/>
      <point x="-14" y="563"/>
      <point x="-3" y="563" type="curve" smooth="yes"/>
      <point x="339" y="563" type="line" smooth="yes"/>
      <point x="346" y="563"/>
      <point x="349" y="559"/>
      <point x="349" y="553" type="curve" smooth="yes"/>
      <point x="349" y="233" type="line" smooth="yes"/>
      <point x="349" y="226"/>
      <point x="349" y="220"/>
      <point x="348" y="214" type="curve"/>
      <point x="155" y="404" type="line"/>
      <point x="170" y="414"/>
      <point x="189" y="419"/>
      <point x="212" y="419" type="curve" smooth="yes"/>
      <point x="267" y="419" type="line" smooth="yes"/>
      <point x="278" y="419"/>
      <point x="282" y="424"/>
      <point x="282" y="434" type="curve" smooth="yes"/>
      <point x="282" y="464" type="line" smooth="yes"/>
      <point x="282" y="474"/>
      <point x="278" y="479"/>
      <point x="267" y="479" type="curve" smooth="yes"/>
      <point x="206" y="479" type="line" smooth="yes"/>
      <point x="112" y="479"/>
      <point x="57" y="423"/>
      <point x="56" y="330" type="curve"/>
      <point x="56" y="232" type="line" smooth="yes"/>
      <point x="56" y="138"/>
      <point x="114" y="83"/>
      <point x="207" y="83" type="curve" smooth="yes"/>
      <point x="249" y="83" type="line" smooth="yes"/>
      <point x="295" y="83"/>
      <point x="330" y="98"/>
      <point x="345" y="127" type="curve"/>
      <point x="349" y="127" type="line"/>
      <point x="349" y="16" type="line" smooth="yes"/>
      <point x="349" y="5"/>
      <point x="355" y="0"/>
      <point x="364" y="0" type="curve" smooth="yes"/>
      <point x="403" y="0" type="line" smooth="yes"/>
      <point x="412" y="0"/>
      <point x="418" y="5"/>
      <point x="418" y="16" type="curve" smooth="yes"/>
      <point x="418" y="553" type="line" smooth="yes"/>
      <point x="418" y="559"/>
      <point x="421" y="563"/>
      <point x="428" y="563" type="curve" smooth="yes"/>
      <point x="503" y="563" type="line" smooth="yes"/>
      <point x="514" y="563"/>
      <point x="519" y="568"/>
      <point x="519" y="578" type="curve" smooth="yes"/>
      <point x="519" y="608" type="line" smooth="yes"/>
      <point x="519" y="618"/>
      <point x="514" y="623"/>
      <point x="503" y="623" type="curve" smooth="yes"/>
    </contour>
  </outline>
</glyph>
<glyph name="dvGxA" format="2">
  <advance width="502"/>
  <unicode hex="095A"/>
  <outline>
    <contour>
      <point x="165" y="11" type="line" smooth="yes"/>
      <point x="165" y="21"/>
      <point x="160" y="26"/>
      <point x="151" y="26" type="curve" smooth="yes"/>
      <point x="109" y="26" type="line" smooth="yes"/>
      <point x="100" y="26"/>
      <point x="95" y="21"/>
      <point x="95" y="11" type="curve" smooth="yes"/>
      <point x="95" y="-32" type="line" smooth="yes"/>
      <point x="95" y="-42"/>
      <point x="100" y="-47"/>
      <point x="109" y="-47" type="curve" smooth="yes"/>
      <point x="151" y="-47" type="line" smooth="yes"/>
      <point x="160" y="-47"/>
      <point x="165" y="-42"/>
      <point x="165" y="-32" type="curve" smooth="yes"/>
    </contour>
    <contour>
      <point x="-3" y="623" type="line" smooth="yes"/>
      <point x="-14" y="623"/>
      <point x="-19" y="618"/>
      <point x="-19" y="608" type="curve" smooth="yes"/>
      <point x="-19" y="578" type="line" smooth="yes"/>
      <point x="-19" y="568"/>
      <point x="-14" y="563"/>
      <point x="-3" y="563" type="curve" smooth="yes"/>
      <point x="121" y="563" type="line" smooth="yes"/>
      <point x="128" y="563"/>
      <point x="131" y="559"/>
      <point x="131" y="553" type="curve" smooth="yes"/>
      <point x="131" y="359" type="line" smooth="yes"/>
      <point x="131" y="293"/>
      <point x="97" y="272"/>
      <point x="47" y="272" type="curve" smooth="yes"/>
      <point x="36" y="272" type="line" smooth="yes"/>
      <point x="25" y="272"/>
      <point x="21" y="267"/>
      <point x="21" y="257" type="curve" smooth="yes"/>
      <point x="21" y="224" type="line" smooth="yes"/>
      <point x="21" y="214"/>
      <point x="25" y="209"/>
      <point x="36" y="209" type="curve" smooth="yes"/>
      <point x="56" y="209" type="line" smooth="yes"/>
      <point x="144" y="209"/>
      <point x="199" y="256"/>
      <point x="199" y="357" type="curve" smooth="yes"/>
      <point x="199" y="553" type="line" smooth="yes"/>
      <point x="199" y="559"/>
      <point x="202" y="563"/>
      <point x="209" y="563" type="curve" smooth="yes"/>
      <point x="342" y="563" type="line" smooth="yes"/>
      <point x="349" y="563"/>
      <point x="352" y="559"/>
      <point x="352" y="553" type="curve" smooth="yes"/>
      <point x="352" y="15" type="line" smooth="yes"/>
      <point x="352" y="4"/>
      <point x="357" y="0"/>
      <point x="367" y="0" type="curve" smooth="yes"/>
      <point x="405" y="0" type="line" smooth="yes"/>
      <point x="415" y="0"/>
      <point x="420" y="4"/>
      <point x="420" y="15" type="curve" smooth="yes"/>
      <point x="420" y="553" type="line" smooth="yes"/>
      <point x="420" y="559"/>
      <point x="423" y="563"/>
      <point x="430" y="563" type="curve" smooth="yes"/>
      <point x="505" y="563" type="line" smooth="yes"/>
      <point x="517" y="563"/>
      <point x="521" y="568"/>
      <point x="521" y="578" type="curve" smooth="yes"/>
      <point x="521" y="608" type="line" smooth="yes"/>
      <point x="521" y="618"/>
      <point x="517" y="623"/>
      <point x="505" y="623" type="curve" smooth="yes"/>
    </contour>
  </outline>
</glyph>
<glyph name="dvAcandra" format="2">
  <advance width="601"/>
  <unicode hex="0972"/>
  <outline>
    <contour>
      <point x="479" y="623" type="line" smooth="yes"/>
      <point x="461" y="623"/>
      <point x="450" y="610"/>
      <point x="450" y="593" type="curve" smooth="yes"/>
      <point x="450" y="304" type="line" smooth="yes"/>
      <point x="450" y="297"/>
      <point x="448" y="293"/>
      <point x="440" y="293" type="curve" smooth="yes"/>
      <point x="310" y="293" type="line"/>
      <point x="299" y="314"/>
      <point x="282" y="328"/>
      <point x="260" y="336" type="curve"/>
      <point x="260" y="340" type="line"/>
      <point x="300" y="357"/>
      <point x="324" y="396"/>
      <point x="324" y="452" type="curve" smooth="yes"/>
      <point x="324" y="474" type="line" smooth="yes"/>
      <point x="324" y="569"/>
      <point x="272" y="623"/>
      <point x="175" y="623" type="curve" smooth="yes"/>
      <point x="85" y="623" type="line" smooth="yes"/>
      <point x="74" y="623"/>
      <point x="69" y="618"/>
      <point x="69" y="608" type="curve" smooth="yes"/>
      <point x="69" y="578" type="line" smooth="yes"/>
      <point x="69" y="568"/>
      <point x="74" y="563"/>
      <point x="85" y="563" type="curve" smooth="yes"/>
      <point x="168" y="563" type="line" smooth="yes"/>
      <point x="227" y="563"/>
      <point x="257" y="533"/>
      <point x="257" y="475" type="curve" smooth="yes"/>
      <point x="257" y="455" type="line" smooth="yes"/>
      <point x="257" y="398"/>
      <point x="227" y="368"/>
      <point x="168" y="368" type="curve" smooth="yes"/>
      <point x="110" y="368" type="line" smooth="yes"/>
      <point x="100" y="368"/>
      <point x="95" y="363"/>
      <point x="95" y="353" type="curve" smooth="yes"/>
      <point x="95" y="322" type="line" smooth="yes"/>
      <point x="95" y="312"/>
      <point x="100" y="307"/>
      <point x="111" y="307" type="curve" smooth="yes"/>
      <point x="168" y="307" type="line" smooth="yes"/>
      <point x="227" y="307"/>
      <point x="257" y="278"/>
      <point x="257" y="221" type="curve" smooth="yes"/>
      <point x="257" y="188" type="line" smooth="yes"/>
      <point x="257" y="130"/>
      <point x="227" y="99"/>
      <point x="168" y="99" type="curve" smooth="yes"/>
      <point x="52" y="99" type="line" smooth="yes"/>
      <point x="40" y="99"/>
      <point x="36" y="94"/>
      <point x="36" y="85" type="curve" smooth="yes"/>
      <point x="36" y="53" type="line" smooth="yes"/>
      <point x="36" y="43"/>
      <point x="40" y="38"/>
      <point x="52" y="38" type="curve" smooth="yes"/>
      <point x="172" y="38" type="line" smooth="yes"/>
      <point x="267" y="38"/>
      <point x="324" y="93"/>
      <point x="324" y="188" type="curve" smooth="yes"/>
      <point x="324" y="227" type="line"/>
      <point x="324" y="233" type="line"/>
      <point x="440" y="233" type="line" smooth="yes"/>
      <point x="448" y="233"/>
      <point x="450" y="229"/>
      <point x="450" y="223" type="curve" smooth="yes"/>
      <point x="450" y="15" type="line" smooth="yes"/>
      <point x="450" y="4"/>
      <point x="456" y="0"/>
      <point x="466" y="0" type="curve" smooth="yes"/>
      <point x="504" y="0" type="line" smooth="yes"/>
      <point x="514" y="0"/>
      <point x="519" y="4"/>
      <point x="519" y="15" type="curve" smooth="yes"/>
      <point x="519" y="553" type="line" smooth="yes"/>
      <point x="519" y="559"/>
      <point x="522" y="563"/>
      <point x="529" y="563" type="curve" smooth="yes"/>
      <point x="604" y="563" type="line" smooth="yes"/>
      <point x="616" y="563"/>
      <point x="620" y="568"/>
      <point x="620" y="578" type="curve" smooth="yes"/>
      <point x="620" y="608" type="line" smooth="yes"/>
      <point x="620" y="618"/>
      <point x="616" y="623"/>
      <point x="604" y="623" type="curve" smooth="yes"/>
    </contour>
    <contour>
      <point x="599" y="841" type="line" smooth="yes"/>
      <point x="589" y="841"/>
      <point x="581" y="836"/>
      <point x="581" y="822" type="curve" smooth="yes"/>
      <point x="581" y="815" type="line" smooth="yes"/>
      <point x="581" y="766"/>
      <point x="564" y="748"/>
      <point x="516" y="748" type="curve" smooth="yes"/>
      <point x="454" y="748" type="line" smooth="yes"/>
      <point x="405" y="748"/>
      <point x="387" y="766"/>
      <point x="387" y="815" type="curve" smooth="yes"/>
      <point x="387" y="822" type="line" smooth="yes"/>
      <point x="387" y="836"/>
      <point x="381" y="841"/>
      <point x="371" y="841" type="curve" smooth="yes"/>
      <point x="342" y="841" type="line" smooth="yes"/>
      <point x="330" y="841"/>
      <point x="325" y="835"/>
      <point x="325" y="821" type="curve" smooth="yes"/>
      <point x="325" y="814" type="line" smooth="yes"/>
      <point x="325" y="733"/>
      <point x="365" y="690"/>
      <point x="444" y="690" type="curve" smooth="yes"/>
      <point x="525" y="690" type="line" smooth="yes"/>
      <point x="605" y="690"/>
      <point x="644" y="733"/>
      <point x="644" y="816" type="curve" smooth="yes"/>
      <point x="644" y="821" type="line" smooth="yes"/>
      <point x="644" y="835"/>
      <point x="638" y="841"/>
      <point x="627" y="841" type="curve" smooth="yes"/>
    </contour>
  </outline>
</glyph>
<glyph name="rupee" format="2">
  <advance width="970"/>
  <unicode hex="20A8"/>
  <outline>
    <contour>
      <point x="779" y="0" type="line" smooth="yes"/>
      <point x="876" y="0"/>
      <point x="922" y="39"/>
      <point x="922" y="126" type="curve" smooth="yes"/>
      <point x="922" y="189"/>
      <point x="907" y="235"/>
      <point x="833" y="264" type="curve" smooth="yes"/>
      <point x="715" y="317" type="line"/>
      <point x="681" y="330"/>
      <point x="658" y="347"/>
      <point x="658" y="381" type="curve" smooth="yes"/>
      <point x="658" y="398" type="line" smooth="yes"/>
      <point x="658" y="422"/>
      <point x="679" y="448"/>
      <point x="731" y="448" type="curve" smooth="yes"/>
      <point x="882" y="448" type="line" smooth="yes"/>
      <point x="893" y="448"/>
      <point x="896" y="452"/>
      <point x="896" y="461" type="curve" smooth="yes"/>
      <point x="896" y="496" type="line" smooth="yes"/>
      <point x="896" y="505"/>
      <point x="892" y="510"/>
      <point x="882" y="510" type="curve" smooth="yes"/>
      <point x="718" y="510" type="line" smooth="yes"/>
      <point x="623" y="510"/>
      <point x="583" y="466"/>
      <point x="583" y="387" type="curve" smooth="yes"/>
      <point x="583" y="323"/>
      <point x="611" y="290"/>
      <point x="678" y="262" type="curve" smooth="yes"/>
      <point x="796" y="212" type="line" smooth="yes"/>
      <point x="834" y="197"/>
      <point x="847" y="171"/>
      <point x="847" y="139" type="curve" smooth="yes"/>
      <point x="847" y="120" type="line" smooth="yes"/>
      <point x="847" y="80"/>
      <point x="820" y="62"/>
      <point x="769" y="62" type="curve" smooth="yes"/>
      <point x="601" y="62" type="line" smooth="yes"/>
      <point x="590" y="62"/>
      <point x="587" y="58"/>
      <point x="587" y="49" type="curve" smooth="yes"/>
      <point x="587" y="14" type="line" smooth="yes"/>
      <point x="587" y="5"/>
      <point x="590" y="0"/>
      <point x="601" y="0" type="curve" smooth="yes"/>
    </contour>
    <contour>
      <point x="162" y="317" type="line" smooth="yes"/>
      <point x="155" y="317"/>
      <point x="152" y="320"/>
      <point x="152" y="326" type="curve" smooth="yes"/>
      <point x="152" y="570" type="line" smooth="yes"/>
      <point x="152" y="576"/>
      <point x="155" y="579"/>
      <point x="162" y="579" type="curve" smooth="yes"/>
      <point x="313" y="579" type="line" smooth="yes"/>
      <point x="370" y="579"/>
      <point x="399" y="548"/>
      <point x="399" y="492" type="curve" smooth="yes"/>
      <point x="399" y="403" type="line" smooth="yes"/>
      <point x="399" y="347"/>
      <point x="370" y="317"/>
      <point x="313" y="317" type="curve" smooth="yes"/>
    </contour>
    <contour>
      <point x="138" y="0" type="line" smooth="yes"/>
      <point x="147" y="0"/>
      <point x="152" y="3"/>
      <point x="152" y="14" type="curve" smooth="yes"/>
      <point x="152" y="247" type="line" smooth="yes"/>
      <point x="152" y="253"/>
      <point x="155" y="256"/>
      <point x="162" y="256" type="curve" smooth="yes"/>
      <point x="294" y="256" type="line"/>
      <point x="406" y="14" type="line"/>
      <point x="412" y="3"/>
      <point x="417" y="0"/>
      <point x="431" y="0" type="curve" smooth="yes"/>
      <point x="476" y="0" type="line" smooth="yes"/>
      <point x="485" y="0"/>
      <point x="492" y="5"/>
      <point x="486" y="16" type="curve"/>
      <point x="370" y="259" type="line"/>
      <point x="370" y="263" type="line"/>
      <point x="433" y="279"/>
      <point x="472" y="329"/>
      <point x="472" y="404" type="curve" smooth="yes"/>
      <point x="472" y="495" type="line" smooth="yes"/>
      <point x="472" y="587"/>
      <point x="415" y="643"/>
      <point x="323" y="643" type="curve" smooth="yes"/>
      <point x="93" y="643" type="line" smooth="yes"/>
      <point x="84" y="643"/>
      <point x="79" y="640"/>
      <point x="79" y="629" type="curve" smooth="yes"/>
      <point x="79" y="14" type="line" smooth="yes"/>
      <point x="79" y="3"/>
      <point x="84" y="0"/>
      <point x="93" y="0" type="curve" smooth="yes"/>
    </contour>
  </outline>
</glyph>
<glyph name="dvAnusvara.amI" format="2">
  <outline>
    <contour>
      <point x="113" y="790" type="line" smooth="yes"/>
      <point x="113" y="800"/>
      <point x="108" y="804"/>
      <point x="99" y="804" type="curve" smooth="yes"/>
      <point x="52" y="804" type="line" smooth="yes"/>
      <point x="43" y="804"/>
      <point x="38" y="800"/>
      <point x="38" y="790" type="curve" smooth="yes"/>
      <point x="38" y="742" type="line" smooth="yes"/>
      <point x="38" y="732"/>
      <point x="43" y="727"/>
      <point x="52" y="727" type="curve" smooth="yes"/>
      <point x="99" y="727" type="line" smooth="yes"/>
      <point x="108" y="727"/>
      <point x="113" y="732"/>
      <point x="113" y="742" type="curve" smooth="yes"/>
    </contour>
  </outline>
</glyph>
<glyph name="dvBH_LA" format="2">
  <advance width="935"/>
  <outline>
    <contour>
      <point x="265" y="623" type="line" smooth="yes"/>
      <point x="256" y="623"/>
      <point x="251" y="619"/>
      <point x="250" y="611" type="curve"/>
      <point x="250" y="610" type="line"/>
      <point x="250" y="610" type="line"/>
      <point x="250" y="610" type="line"/>
      <point x="250" y="610" type="line"/>
      <point x="250" y="609" type="line"/>
      <point x="250" y="609" type="line"/>
      <point x="250" y="609" type="line"/>
      <point x="250" y="609" type="line"/>
      <point x="250" y="608" type="line"/>
      <point x="250" y="578" type="line"/>
      <point x="250" y="577" type="line"/>
      <point x="250" y="577" type="line"/>
      <point x="250" y="577" type="line"/>
      <point x="250" y="577" type="line"/>
      <point x="250" y="576" type="line"/>
      <point x="250" y="576" type="line"/>
      <point x="250" y="576" type="line"/>
      <point x="250" y="576" type="line"/>
      <point x="250" y="575" type="line"/>
      <point x="251" y="567"/>
      <point x="256" y="563"/>
      <point x="265" y="563" type="curve" smooth="yes"/>
      <point x="774" y="563" type="line" smooth="yes"/>
      <point x="781" y="563"/>
      <point x="784" y="559"/>
      <point x="784" y="553" type="curve" smooth="yes"/>
      <point x="784" y="406" type="line"/>
      <point x="780" y="406" type="line"/>
      <point x="766" y="430"/>
      <point x="738" y="442"/>
      <point x="697" y="442" type="curve" smooth="yes"/>
      <point x="641" y="442"/>
      <point x="606" y="420"/>
      <point x="592" y="379" type="curve"/>
      <point x="588" y="379" type="line"/>
      <point x="572" y="424"/>
      <point x="533" y="443"/>
      <point x="475" y="443" type="curve" smooth="yes"/>
      <point x="400" y="443"/>
      <point x="349" y="408"/>
      <point x="335" y="335" type="curve"/>
      <point x="152" y="335" type="line" smooth="yes"/>
      <point x="146" y="335"/>
      <point x="142" y="338"/>
      <point x="142" y="346" type="curve" smooth="yes"/>
      <point x="142" y="490" type="line" smooth="yes"/>
      <point x="142" y="576"/>
      <point x="92" y="623"/>
      <point x="6" y="623" type="curve" smooth="yes"/>
      <point x="-3" y="623" type="line" smooth="yes"/>
      <point x="-14" y="623"/>
      <point x="-19" y="618"/>
      <point x="-19" y="608" type="curve" smooth="yes"/>
      <point x="-19" y="578" type="line" smooth="yes"/>
      <point x="-19" y="568"/>
      <point x="-14" y="563"/>
      <point x="-3" y="563" type="curve" smooth="yes"/>
      <point x="6" y="563" type="line" smooth="yes"/>
      <point x="52" y="563"/>
      <point x="74" y="537"/>
      <point x="74" y="488" type="curve" smooth="yes"/>
      <point x="74" y="178" type="line" smooth="yes"/>
      <point x="74" y="166"/>
      <point x="79" y="162"/>
      <point x="89" y="162" type="curve" smooth="yes"/>
      <point x="127" y="162" type="line" smooth="yes"/>
      <point x="137" y="162"/>
      <point x="142" y="166"/>
      <point x="142" y="178" type="curve" smooth="yes"/>
      <point x="142" y="264" type="line" smooth="yes"/>
      <point x="142" y="271"/>
      <point x="145" y="275"/>
      <point x="153" y="275" type="curve" smooth="yes"/>
      <point x="331" y="275" type="line"/>
      <point x="331" y="183" type="line" smooth="yes"/>
      <point x="331" y="83"/>
      <point x="387" y="34"/>
      <point x="480" y="34" type="curve" smooth="yes"/>
      <point x="524" y="34" type="line" smooth="yes"/>
      <point x="535" y="34"/>
      <point x="540" y="39"/>
      <point x="540" y="49" type="curve" smooth="yes"/>
      <point x="540" y="81" type="line" smooth="yes"/>
      <point x="540" y="91"/>
      <point x="535" y="95"/>
      <point x="524" y="95" type="curve" smooth="yes"/>
      <point x="488" y="95" type="line" smooth="yes"/>
      <point x="429" y="95"/>
      <point x="398" y="121"/>
      <point x="398" y="186" type="curve" smooth="yes"/>
      <point x="398" y="289" type="line" smooth="yes"/>
      <point x="398" y="354"/>
      <point x="425" y="380"/>
      <point x="479" y="380" type="curve" smooth="yes"/>
      <point x="530" y="380"/>
      <point x="558" y="358"/>
      <point x="558" y="295" type="curve" smooth="yes"/>
      <point x="558" y="215" type="line" smooth="yes"/>
      <point x="558" y="204"/>
      <point x="563" y="199"/>
      <point x="573" y="199" type="curve" smooth="yes"/>
      <point x="609" y="199" type="line" smooth="yes"/>
      <point x="619" y="199"/>
      <point x="624" y="204"/>
      <point x="624" y="215" type="curve" smooth="yes"/>
      <point x="624" y="292" type="line" smooth="yes"/>
      <point x="624" y="359"/>
      <point x="652" y="379"/>
      <point x="704" y="379" type="curve" smooth="yes"/>
      <point x="757" y="379"/>
      <point x="784" y="358"/>
      <point x="784" y="293" type="curve" smooth="yes"/>
      <point x="784" y="15" type="line" smooth="yes"/>
      <point x="784" y="4"/>
      <point x="789" y="0"/>
      <point x="799" y="0" type="curve" smooth="yes"/>
      <point x="837" y="0" type="line" smooth="yes"/>
      <point x="847" y="0"/>
      <point x="852" y="4"/>
      <point x="852" y="15" type="curve" smooth="yes"/>
      <point x="852" y="553" type="line" smooth="yes"/>
      <point x="852" y="559"/>
      <point x="855" y="563"/>
      <point x="862" y="563" type="curve" smooth="yes"/>
      <point x="938" y="563" type="line" smooth="yes"/>
      <point x="949" y="563"/>
      <point x="953" y="568"/>
      <point x="953" y="578" type="curve" smooth="yes"/>
      <point x="953" y="608" type="line" smooth="yes"/>
      <point x="953" y="618"/>
      <point x="949" y="623"/>
      <point x="938" y="623" type="curve" smooth="yes"/>
    </contour>
  </outline>
</glyph>
<glyph name="dvBH_R_YA" format="2">
  <advance width="844"/>
  <outline>
    <contour>
      <point x="693" y="268" type="line" smooth="yes"/>
      <point x="693" y="199"/>
      <point x="656" y="155"/>
      <point x="578" y="155" type="curve" smooth="yes"/>
      <point x="515" y="155" type="line" smooth="yes"/>
      <point x="440" y="155"/>
      <point x="402" y="196"/>
      <point x="402" y="265" type="curve" smooth="yes"/>
      <point x="402" y="334" type="line"/>
      <point x="418" y="334" type="line" smooth="yes"/>
      <point x="502" y="334"/>
      <point x="551" y="372"/>
      <point x="551" y="461" type="curve" smooth="yes"/>
      <point x="551" y="479" type="line" smooth="yes"/>
      <point x="551" y="519"/>
      <point x="537" y="546"/>
      <point x="515" y="559" type="curve"/>
      <point x="515" y="563" type="line"/>
      <point x="683" y="563" type="line" smooth="yes"/>
      <point x="691" y="563"/>
      <point x="693" y="559"/>
      <point x="693" y="553" type="curve" smooth="yes"/>
    </contour>
    <contour>
      <point x="272" y="623" type="line" smooth="yes"/>
      <point x="261" y="623"/>
      <point x="256" y="619"/>
      <point x="256" y="609" type="curve" smooth="yes"/>
      <point x="256" y="578" type="line" smooth="yes"/>
      <point x="256" y="568"/>
      <point x="261" y="563"/>
      <point x="272" y="563" type="curve" smooth="yes"/>
      <point x="407" y="563" type="line" smooth="yes"/>
      <point x="463" y="563"/>
      <point x="485" y="539"/>
      <point x="485" y="485" type="curve" smooth="yes"/>
      <point x="485" y="473" type="line" smooth="yes"/>
      <point x="485" y="413"/>
      <point x="462" y="394"/>
      <point x="407" y="394" type="curve" smooth="yes"/>
      <point x="350" y="394" type="line" smooth="yes"/>
      <point x="339" y="394"/>
      <point x="335" y="389"/>
      <point x="335" y="379" type="curve" smooth="yes"/>
      <point x="335" y="344" type="line"/>
      <point x="152" y="344" type="line" smooth="yes"/>
      <point x="146" y="344"/>
      <point x="142" y="347"/>
      <point x="142" y="355" type="curve" smooth="yes"/>
      <point x="142" y="490" type="line" smooth="yes"/>
      <point x="142" y="576"/>
      <point x="92" y="623"/>
      <point x="6" y="623" type="curve" smooth="yes"/>
      <point x="-3" y="623" type="line" smooth="yes"/>
      <point x="-14" y="623"/>
      <point x="-19" y="618"/>
      <point x="-19" y="608" type="curve" smooth="yes"/>
      <point x="-19" y="578" type="line" smooth="yes"/>
      <point x="-19" y="568"/>
      <point x="-14" y="563"/>
      <point x="-3" y="563" type="curve" smooth="yes"/>
      <point x="6" y="563" type="line" smooth="yes"/>
      <point x="49" y="563"/>
      <point x="74" y="541"/>
      <point x="74" y="488" type="curve" smooth="yes"/>
      <point x="74" y="186" type="line" smooth="yes"/>
      <point x="74" y="175"/>
      <point x="79" y="171"/>
      <point x="89" y="171" type="curve" smooth="yes"/>
      <point x="127" y="171" type="line" smooth="yes"/>
      <point x="137" y="171"/>
      <point x="142" y="175"/>
      <point x="142" y="186" type="curve" smooth="yes"/>
      <point x="142" y="273" type="line" smooth="yes"/>
      <point x="142" y="280"/>
      <point x="145" y="284"/>
      <point x="153" y="284" type="curve" smooth="yes"/>
      <point x="335" y="284" type="line"/>
      <point x="335" y="267" type="line"/>
      <point x="98" y="11" type="line"/>
      <point x="94" y="8"/>
      <point x="93" y="4"/>
      <point x="93" y="0" type="curve" smooth="yes"/>
      <point x="93" y="-5"/>
      <point x="97" y="-10"/>
      <point x="105" y="-10" type="curve" smooth="yes"/>
      <point x="150" y="-10" type="line" smooth="yes"/>
      <point x="161" y="-10"/>
      <point x="167" y="-6"/>
      <point x="174" y="2" type="curve" smooth="yes"/>
      <point x="348" y="195" type="line"/>
      <point x="371" y="136"/>
      <point x="426" y="94"/>
      <point x="509" y="94" type="curve" smooth="yes"/>
      <point x="577" y="94" type="line" smooth="yes"/>
      <point x="631" y="94"/>
      <point x="672" y="114"/>
      <point x="689" y="148" type="curve"/>
      <point x="693" y="148" type="line"/>
      <point x="693" y="15" type="line" smooth="yes"/>
      <point x="693" y="4"/>
      <point x="699" y="0"/>
      <point x="708" y="0" type="curve" smooth="yes"/>
      <point x="747" y="0" type="line" smooth="yes"/>
      <point x="757" y="0"/>
      <point x="762" y="4"/>
      <point x="762" y="15" type="curve" smooth="yes"/>
      <point x="762" y="553" type="line" smooth="yes"/>
      <point x="762" y="559"/>
      <point x="765" y="563"/>
      <point x="772" y="563" type="curve" smooth="yes"/>
      <point x="847" y="563" type="line" smooth="yes"/>
      <point x="859" y="563"/>
      <point x="863" y="568"/>
      <point x="863" y="578" type="curve" smooth="yes"/>
      <point x="863" y="608" type="line" smooth="yes"/>
      <point x="863" y="618"/>
      <point x="859" y="623"/>
      <point x="847" y="623" type="curve" smooth="yes"/>
    </contour>
  </outline>
</glyph>
<glyph name="dvBH_VA" format="2">
  <advance width="766"/>
  <outline>
    <contour>
      <point x="265" y="623" type="line" smooth="yes"/>
      <point x="255" y="623"/>
      <point x="250" y="618"/>
      <point x="250" y="608" type="curve" smooth="yes"/>
      <point x="250" y="578" type="line" smooth="yes"/>
      <point x="250" y="568"/>
      <point x="255" y="563"/>
      <point x="265" y="563" type="curve" smooth="yes"/>
      <point x="606" y="563" type="line" smooth="yes"/>
      <point x="613" y="563"/>
      <point x="616" y="559"/>
      <point x="616" y="553" type="curve" smooth="yes"/>
      <point x="616" y="238" type="line" smooth="yes"/>
      <point x="616" y="184"/>
      <point x="586" y="147"/>
      <point x="524" y="147" type="curve" smooth="yes"/>
      <point x="489" y="147" type="line" smooth="yes"/>
      <point x="428" y="147"/>
      <point x="399" y="179"/>
      <point x="399" y="238" type="curve" smooth="yes"/>
      <point x="399" y="321" type="line" smooth="yes"/>
      <point x="399" y="380"/>
      <point x="430" y="412"/>
      <point x="489" y="412" type="curve" smooth="yes"/>
      <point x="534" y="412" type="line" smooth="yes"/>
      <point x="545" y="412"/>
      <point x="550" y="417"/>
      <point x="550" y="427" type="curve" smooth="yes"/>
      <point x="550" y="459" type="line" smooth="yes"/>
      <point x="550" y="468"/>
      <point x="545" y="474"/>
      <point x="534" y="474" type="curve" smooth="yes"/>
      <point x="480" y="474" type="line" smooth="yes"/>
      <point x="390" y="474"/>
      <point x="335" y="422"/>
      <point x="330" y="335" type="curve"/>
      <point x="152" y="335" type="line" smooth="yes"/>
      <point x="146" y="335"/>
      <point x="142" y="338"/>
      <point x="142" y="346" type="curve" smooth="yes"/>
      <point x="142" y="490" type="line" smooth="yes"/>
      <point x="142" y="576"/>
      <point x="92" y="623"/>
      <point x="6" y="623" type="curve" smooth="yes"/>
      <point x="-3" y="623" type="line" smooth="yes"/>
      <point x="-14" y="623"/>
      <point x="-19" y="618"/>
      <point x="-19" y="608" type="curve" smooth="yes"/>
      <point x="-19" y="578" type="line" smooth="yes"/>
      <point x="-19" y="568"/>
      <point x="-14" y="563"/>
      <point x="-3" y="563" type="curve" smooth="yes"/>
      <point x="6" y="563" type="line" smooth="yes"/>
      <point x="52" y="563"/>
      <point x="74" y="537"/>
      <point x="74" y="488" type="curve" smooth="yes"/>
      <point x="74" y="178" type="line" smooth="yes"/>
      <point x="74" y="166"/>
      <point x="79" y="162"/>
      <point x="89" y="162" type="curve" smooth="yes"/>
      <point x="127" y="162" type="line" smooth="yes"/>
      <point x="137" y="162"/>
      <point x="142" y="166"/>
      <point x="142" y="178" type="curve" smooth="yes"/>
      <point x="142" y="264" type="line" smooth="yes"/>
      <point x="142" y="271"/>
      <point x="145" y="275"/>
      <point x="153" y="275" type="curve" smooth="yes"/>
      <point x="330" y="275" type="line"/>
      <point x="330" y="235" type="line" smooth="yes"/>
      <point x="330" y="141"/>
      <point x="388" y="86"/>
      <point x="481" y="86" type="curve" smooth="yes"/>
      <point x="516" y="86" type="line" smooth="yes"/>
      <point x="561" y="86"/>
      <point x="596" y="101"/>
      <point x="612" y="130" type="curve"/>
      <point x="616" y="130" type="line"/>
      <point x="616" y="16" type="line" smooth="yes"/>
      <point x="616" y="5"/>
      <point x="621" y="0"/>
      <point x="631" y="0" type="curve" smooth="yes"/>
      <point x="669" y="0" type="line" smooth="yes"/>
      <point x="679" y="0"/>
      <point x="684" y="5"/>
      <point x="684" y="16" type="curve" smooth="yes"/>
      <point x="684" y="553" type="line" smooth="yes"/>
      <point x="684" y="559"/>
      <point x="687" y="563"/>
      <point x="694" y="563" type="curve" smooth="yes"/>
      <point x="769" y="563" type="line" smooth="yes"/>
      <point x="780" y="563"/>
      <point x="785" y="568"/>
      <point x="785" y="578" type="curve" smooth="yes"/>
      <point x="785" y="608" type="line" smooth="yes"/>
      <point x="785" y="618"/>
      <point x="780" y="623"/>
      <point x="769" y="623" type="curve" smooth="yes"/>
    </contour>
  </outline>
</glyph>
<glyph name="dvBH_YA" format="2">
  <advance width="838"/>
  <outline>
    <contour>
      <point x="687" y="268" type="line" smooth="yes"/>
      <point x="687" y="199"/>
      <point x="650" y="155"/>
      <point x="572" y="155" type="curve" smooth="yes"/>
      <point x="509" y="155" type="line" smooth="yes"/>
      <point x="434" y="155"/>
      <point x="396" y="196"/>
      <point x="396" y="265" type="curve" smooth="yes"/>
      <point x="396" y="334" type="line"/>
      <point x="412" y="334" type="line" smooth="yes"/>
      <point x="496" y="334"/>
      <point x="545" y="372"/>
      <point x="545" y="461" type="curve" smooth="yes"/>
      <point x="545" y="479" type="line" smooth="yes"/>
      <point x="545" y="519"/>
      <point x="531" y="546"/>
      <point x="509" y="559" type="curve"/>
      <point x="509" y="563" type="line"/>
      <point x="677" y="563" type="line" smooth="yes"/>
      <point x="685" y="563"/>
      <point x="687" y="559"/>
      <point x="687" y="553" type="curve" smooth="yes"/>
    </contour>
    <contour>
      <point x="265" y="623" type="line" smooth="yes"/>
      <point x="263" y="623"/>
      <point x="261" y="623"/>
      <point x="260" y="622" type="curve"/>
      <point x="253" y="621"/>
      <point x="250" y="617"/>
      <point x="250" y="609" type="curve" smooth="yes"/>
      <point x="250" y="578" type="line"/>
      <point x="250" y="577" type="line"/>
      <point x="250" y="577" type="line"/>
      <point x="250" y="577" type="line"/>
      <point x="250" y="577" type="line"/>
      <point x="250" y="576" type="line"/>
      <point x="250" y="576" type="line"/>
      <point x="250" y="576" type="line"/>
      <point x="250" y="576" type="line"/>
      <point x="250" y="575" type="line"/>
      <point x="251" y="567"/>
      <point x="256" y="563"/>
      <point x="265" y="563" type="curve" smooth="yes"/>
      <point x="401" y="563" type="line" smooth="yes"/>
      <point x="457" y="563"/>
      <point x="479" y="539"/>
      <point x="479" y="485" type="curve" smooth="yes"/>
      <point x="479" y="473" type="line" smooth="yes"/>
      <point x="479" y="413"/>
      <point x="456" y="394"/>
      <point x="401" y="394" type="curve" smooth="yes"/>
      <point x="344" y="394" type="line" smooth="yes"/>
      <point x="333" y="394"/>
      <point x="329" y="389"/>
      <point x="329" y="379" type="curve" smooth="yes"/>
      <point x="329" y="335" type="line"/>
      <point x="152" y="335" type="line" smooth="yes"/>
      <point x="146" y="335"/>
      <point x="142" y="338"/>
      <point x="142" y="346" type="curve" smooth="yes"/>
      <point x="142" y="490" type="line" smooth="yes"/>
      <point x="142" y="576"/>
      <point x="92" y="623"/>
      <point x="6" y="623" type="curve" smooth="yes"/>
      <point x="-3" y="623" type="line" smooth="yes"/>
      <point x="-14" y="623"/>
      <point x="-19" y="618"/>
      <point x="-19" y="608" type="curve" smooth="yes"/>
      <point x="-19" y="578" type="line" smooth="yes"/>
      <point x="-19" y="568"/>
      <point x="-14" y="563"/>
      <point x="-3" y="563" type="curve" smooth="yes"/>
      <point x="6" y="563" type="line" smooth="yes"/>
      <point x="52" y="563"/>
      <point x="74" y="537"/>
      <point x="74" y="488" type="curve" smooth="yes"/>
      <point x="74" y="178" type="line" smooth="yes"/>
      <point x="74" y="166"/>
      <point x="79" y="162"/>
      <point x="89" y="162" type="curve" smooth="yes"/>
      <point x="127" y="162" type="line" smooth="yes"/>
      <point x="137" y="162"/>
      <point x="142" y="166"/>
      <point x="142" y="178" type="curve" smooth="yes"/>
      <point x="142" y="264" type="line" smooth="yes"/>
      <point x="142" y="271"/>
      <point x="145" y="275"/>
      <point x="153" y="275" type="curve" smooth="yes"/>
      <point x="329" y="275" type="line"/>
      <point x="329" y="265" type="line" smooth="yes"/>
      <point x="329" y="171"/>
      <point x="390" y="94"/>
      <point x="503" y="94" type="curve" smooth="yes"/>
      <point x="571" y="94" type="line" smooth="yes"/>
      <point x="625" y="94"/>
      <point x="666" y="114"/>
      <point x="683" y="148" type="curve"/>
      <point x="687" y="148" type="line"/>
      <point x="687" y="15" type="line" smooth="yes"/>
      <point x="687" y="4"/>
      <point x="693" y="0"/>
      <point x="702" y="0" type="curve" smooth="yes"/>
      <point x="741" y="0" type="line" smooth="yes"/>
      <point x="751" y="0"/>
      <point x="756" y="4"/>
      <point x="756" y="15" type="curve" smooth="yes"/>
      <point x="756" y="553" type="line" smooth="yes"/>
      <point x="756" y="559"/>
      <point x="759" y="563"/>
      <point x="766" y="563" type="curve" smooth="yes"/>
      <point x="841" y="563" type="line" smooth="yes"/>
      <point x="853" y="563"/>
      <point x="857" y="568"/>
      <point x="857" y="578" type="curve" smooth="yes"/>
      <point x="857" y="608" type="line" smooth="yes"/>
      <point x="857" y="618"/>
      <point x="853" y="623"/>
      <point x="841" y="623" type="curve" smooth="yes"/>
    </contour>
  </outline>
</glyph>
<glyph name="dvB_BA" format="2">
  <advance width="795"/>
  <outline>
    <contour>
      <point x="506" y="142" type="line" smooth="yes"/>
      <point x="446" y="142"/>
      <point x="417" y="174"/>
      <point x="417" y="233" type="curve" smooth="yes"/>
      <point x="417" y="328" type="line" smooth="yes"/>
      <point x="417" y="343"/>
      <point x="419" y="356"/>
      <point x="423" y="368" type="curve"/>
      <point x="624" y="171" type="line"/>
      <point x="609" y="153"/>
      <point x="585" y="142"/>
      <point x="552" y="142" type="curve" smooth="yes"/>
    </contour>
    <contour>
      <point x="212" y="142" type="line" smooth="yes"/>
      <point x="152" y="142"/>
      <point x="122" y="174"/>
      <point x="122" y="233" type="curve" smooth="yes"/>
      <point x="122" y="328" type="line" smooth="yes"/>
      <point x="122" y="342"/>
      <point x="124" y="354"/>
      <point x="127" y="365" type="curve"/>
      <point x="329" y="165" type="line"/>
      <point x="314" y="150"/>
      <point x="292" y="142"/>
      <point x="262" y="142" type="curve" smooth="yes"/>
    </contour>
    <contour>
      <point x="-3" y="623" type="line" smooth="yes"/>
      <point x="-14" y="623"/>
      <point x="-19" y="618"/>
      <point x="-19" y="608" type="curve" smooth="yes"/>
      <point x="-19" y="578" type="line" smooth="yes"/>
      <point x="-19" y="568"/>
      <point x="-14" y="563"/>
      <point x="-3" y="563" type="curve" smooth="yes"/>
      <point x="634" y="563" type="line" smooth="yes"/>
      <point x="641" y="563"/>
      <point x="644" y="559"/>
      <point x="644" y="553" type="curve" smooth="yes"/>
      <point x="644" y="233" type="line" smooth="yes"/>
      <point x="644" y="226"/>
      <point x="644" y="220"/>
      <point x="643" y="214" type="curve"/>
      <point x="450" y="404" type="line"/>
      <point x="465" y="414"/>
      <point x="484" y="419"/>
      <point x="507" y="419" type="curve" smooth="yes"/>
      <point x="562" y="419" type="line" smooth="yes"/>
      <point x="573" y="419"/>
      <point x="577" y="424"/>
      <point x="577" y="434" type="curve" smooth="yes"/>
      <point x="577" y="464" type="line" smooth="yes"/>
      <point x="577" y="474"/>
      <point x="573" y="479"/>
      <point x="562" y="479" type="curve" smooth="yes"/>
      <point x="501" y="479" type="line" smooth="yes"/>
      <point x="407" y="479"/>
      <point x="352" y="423"/>
      <point x="351" y="330" type="curve"/>
      <point x="351" y="232" type="line" smooth="yes"/>
      <point x="351" y="228"/>
      <point x="351" y="223"/>
      <point x="351" y="219" type="curve" smooth="yes"/>
      <point x="351" y="215"/>
      <point x="351" y="211"/>
      <point x="350" y="208" type="curve"/>
      <point x="153" y="402" type="line"/>
      <point x="168" y="413"/>
      <point x="188" y="419"/>
      <point x="213" y="419" type="curve" smooth="yes"/>
      <point x="267" y="419" type="line" smooth="yes"/>
      <point x="278" y="419"/>
      <point x="283" y="424"/>
      <point x="283" y="434" type="curve" smooth="yes"/>
      <point x="283" y="464" type="line" smooth="yes"/>
      <point x="283" y="474"/>
      <point x="278" y="479"/>
      <point x="267" y="479" type="curve" smooth="yes"/>
      <point x="207" y="479" type="line" smooth="yes"/>
      <point x="113" y="479"/>
      <point x="57" y="423"/>
      <point x="57" y="330" type="curve" smooth="yes"/>
      <point x="57" y="232" type="line" smooth="yes"/>
      <point x="57" y="138"/>
      <point x="115" y="82"/>
      <point x="207" y="82" type="curve" smooth="yes"/>
      <point x="259" y="82" type="line" smooth="yes"/>
      <point x="312" y="82"/>
      <point x="353" y="102"/>
      <point x="377" y="140" type="curve"/>
      <point x="402" y="103"/>
      <point x="446" y="83"/>
      <point x="502" y="83" type="curve" smooth="yes"/>
      <point x="544" y="83" type="line" smooth="yes"/>
      <point x="590" y="83"/>
      <point x="625" y="98"/>
      <point x="640" y="127" type="curve"/>
      <point x="644" y="127" type="line"/>
      <point x="644" y="16" type="line" smooth="yes"/>
      <point x="644" y="5"/>
      <point x="650" y="0"/>
      <point x="659" y="0" type="curve" smooth="yes"/>
      <point x="698" y="0" type="line" smooth="yes"/>
      <point x="707" y="0"/>
      <point x="713" y="5"/>
      <point x="713" y="16" type="curve" smooth="yes"/>
      <point x="713" y="553" type="line" smooth="yes"/>
      <point x="713" y="559"/>
      <point x="716" y="563"/>
      <point x="723" y="563" type="curve" smooth="yes"/>
      <point x="798" y="563" type="line" smooth="yes"/>
      <point x="809" y="563"/>
      <point x="814" y="568"/>
      <point x="814" y="578" type="curve" smooth="yes"/>
      <point x="814" y="608" type="line" smooth="yes"/>
      <point x="814" y="618"/>
      <point x="809" y="623"/>
      <point x="798" y="623" type="curve" smooth="yes"/>
    </contour>
  </outline>
</glyph>
<glyph name="dvB_DA" format="2">
  <advance width="778"/>
  <outline>
    <contour>
      <point x="212" y="142" type="line" smooth="yes"/>
      <point x="152" y="142"/>
      <point x="122" y="174"/>
      <point x="122" y="233" type="curve" smooth="yes"/>
      <point x="122" y="328" type="line" smooth="yes"/>
      <point x="122" y="342"/>
      <point x="124" y="354"/>
      <point x="127" y="365" type="curve"/>
      <point x="329" y="165" type="line"/>
      <point x="314" y="150"/>
      <point x="292" y="142"/>
      <point x="262" y="142" type="curve" smooth="yes"/>
    </contour>
    <contour>
      <point x="-3" y="623" type="line" smooth="yes"/>
      <point x="-14" y="623"/>
      <point x="-19" y="618"/>
      <point x="-19" y="608" type="curve" smooth="yes"/>
      <point x="-19" y="578" type="line" smooth="yes"/>
      <point x="-19" y="568"/>
      <point x="-14" y="563"/>
      <point x="-3" y="563" type="curve" smooth="yes"/>
      <point x="622" y="563" type="line" smooth="yes"/>
      <point x="629" y="563"/>
      <point x="632" y="559"/>
      <point x="632" y="553" type="curve" smooth="yes"/>
      <point x="632" y="473" type="line" smooth="yes"/>
      <point x="632" y="466"/>
      <point x="629" y="463"/>
      <point x="622" y="463" type="curve" smooth="yes"/>
      <point x="498" y="463" type="line" smooth="yes"/>
      <point x="405" y="463"/>
      <point x="352" y="408"/>
      <point x="352" y="313" type="curve" smooth="yes"/>
      <point x="352" y="233" type="line" smooth="yes"/>
      <point x="352" y="224"/>
      <point x="351" y="216"/>
      <point x="350" y="208" type="curve"/>
      <point x="153" y="402" type="line"/>
      <point x="168" y="413"/>
      <point x="188" y="419"/>
      <point x="213" y="419" type="curve" smooth="yes"/>
      <point x="267" y="419" type="line" smooth="yes"/>
      <point x="278" y="419"/>
      <point x="283" y="424"/>
      <point x="283" y="434" type="curve" smooth="yes"/>
      <point x="283" y="464" type="line" smooth="yes"/>
      <point x="283" y="474"/>
      <point x="278" y="479"/>
      <point x="267" y="479" type="curve" smooth="yes"/>
      <point x="207" y="479" type="line" smooth="yes"/>
      <point x="113" y="479"/>
      <point x="57" y="423"/>
      <point x="57" y="330" type="curve" smooth="yes"/>
      <point x="57" y="232" type="line" smooth="yes"/>
      <point x="57" y="138"/>
      <point x="115" y="82"/>
      <point x="207" y="82" type="curve" smooth="yes"/>
      <point x="259" y="82" type="line" smooth="yes"/>
      <point x="311" y="82"/>
      <point x="351" y="102"/>
      <point x="376" y="138" type="curve"/>
      <point x="400" y="101"/>
      <point x="442" y="79"/>
      <point x="500" y="79" type="curve" smooth="yes"/>
      <point x="563" y="79" type="line" smooth="yes"/>
      <point x="599" y="79"/>
      <point x="627" y="89"/>
      <point x="641" y="113" type="curve"/>
      <point x="645" y="113" type="line"/>
      <point x="645" y="15" type="line" smooth="yes"/>
      <point x="645" y="4"/>
      <point x="650" y="0"/>
      <point x="660" y="0" type="curve" smooth="yes"/>
      <point x="696" y="0" type="line" smooth="yes"/>
      <point x="706" y="0"/>
      <point x="711" y="4"/>
      <point x="711" y="15" type="curve" smooth="yes"/>
      <point x="711" y="249" type="line" smooth="yes"/>
      <point x="711" y="260"/>
      <point x="706" y="264"/>
      <point x="696" y="264" type="curve" smooth="yes"/>
      <point x="660" y="264" type="line" smooth="yes"/>
      <point x="650" y="264"/>
      <point x="645" y="260"/>
      <point x="645" y="249" type="curve" smooth="yes"/>
      <point x="645" y="211" type="line" smooth="yes"/>
      <point x="645" y="163"/>
      <point x="620" y="140"/>
      <point x="572" y="140" type="curve" smooth="yes"/>
      <point x="508" y="140" type="line" smooth="yes"/>
      <point x="449" y="140"/>
      <point x="420" y="169"/>
      <point x="420" y="229" type="curve" smooth="yes"/>
      <point x="420" y="310" type="line" smooth="yes"/>
      <point x="420" y="369"/>
      <point x="449" y="401"/>
      <point x="506" y="401" type="curve" smooth="yes"/>
      <point x="668" y="401" type="line" smooth="yes"/>
      <point x="686" y="401"/>
      <point x="699" y="413"/>
      <point x="699" y="433" type="curve" smooth="yes"/>
      <point x="699" y="553" type="line" smooth="yes"/>
      <point x="699" y="559"/>
      <point x="702" y="563"/>
      <point x="709" y="563" type="curve" smooth="yes"/>
      <point x="782" y="563" type="line" smooth="yes"/>
      <point x="793" y="563"/>
      <point x="798" y="568"/>
      <point x="798" y="578" type="curve" smooth="yes"/>
      <point x="798" y="608" type="line" smooth="yes"/>
      <point x="798" y="618"/>
      <point x="793" y="623"/>
      <point x="782" y="623" type="curve" smooth="yes"/>
    </contour>
  </outline>
</glyph>
<glyph name="dvB_DHA" format="2">
  <advance width="843"/>
  <outline>
    <contour>
      <point x="212" y="145" type="line" smooth="yes"/>
      <point x="152" y="145"/>
      <point x="122" y="177"/>
      <point x="122" y="236" type="curve" smooth="yes"/>
      <point x="122" y="328" type="line" smooth="yes"/>
      <point x="122" y="342"/>
      <point x="124" y="354"/>
      <point x="127" y="365" type="curve"/>
      <point x="328" y="167" type="line"/>
      <point x="313" y="152"/>
      <point x="291" y="145"/>
      <point x="262" y="145" type="curve" smooth="yes"/>
    </contour>
    <contour>
      <point x="614" y="623" type="line" smooth="yes"/>
      <point x="603" y="623"/>
      <point x="599" y="618"/>
      <point x="599" y="608" type="curve" smooth="yes"/>
      <point x="599" y="578" type="line" smooth="yes"/>
      <point x="599" y="568"/>
      <point x="603" y="563"/>
      <point x="614" y="563" type="curve" smooth="yes"/>
      <point x="681" y="563" type="line" smooth="yes"/>
      <point x="689" y="563"/>
      <point x="692" y="559"/>
      <point x="692" y="553" type="curve" smooth="yes"/>
      <point x="692" y="236" type="line" smooth="yes"/>
      <point x="692" y="176"/>
      <point x="662" y="137"/>
      <point x="590" y="136" type="curve" smooth="yes"/>
      <point x="500" y="136" type="line" smooth="yes"/>
      <point x="444" y="136"/>
      <point x="419" y="159"/>
      <point x="419" y="217" type="curve" smooth="yes"/>
      <point x="419" y="254" type="line" smooth="yes"/>
      <point x="419" y="300"/>
      <point x="442" y="325"/>
      <point x="487" y="325" type="curve" smooth="yes"/>
      <point x="550" y="325" type="line" smooth="yes"/>
      <point x="561" y="325"/>
      <point x="566" y="329"/>
      <point x="566" y="339" type="curve" smooth="yes"/>
      <point x="566" y="371" type="line" smooth="yes"/>
      <point x="566" y="381"/>
      <point x="561" y="386"/>
      <point x="550" y="386" type="curve" smooth="yes"/>
      <point x="487" y="386" type="line" smooth="yes"/>
      <point x="442" y="386"/>
      <point x="419" y="410"/>
      <point x="419" y="455" type="curve" smooth="yes"/>
      <point x="419" y="492" type="line" smooth="yes"/>
      <point x="419" y="540"/>
      <point x="438" y="563"/>
      <point x="482" y="563" type="curve" smooth="yes"/>
      <point x="503" y="563" type="line" smooth="yes"/>
      <point x="514" y="563"/>
      <point x="518" y="568"/>
      <point x="518" y="578" type="curve" smooth="yes"/>
      <point x="518" y="608" type="line" smooth="yes"/>
      <point x="518" y="618"/>
      <point x="514" y="623"/>
      <point x="503" y="623" type="curve" smooth="yes"/>
      <point x="-3" y="623" type="line" smooth="yes"/>
      <point x="-14" y="623"/>
      <point x="-19" y="618"/>
      <point x="-19" y="608" type="curve" smooth="yes"/>
      <point x="-19" y="578" type="line" smooth="yes"/>
      <point x="-19" y="568"/>
      <point x="-14" y="563"/>
      <point x="-3" y="563" type="curve" smooth="yes"/>
      <point x="384" y="563" type="line"/>
      <point x="384" y="559" type="line"/>
      <point x="360" y="546"/>
      <point x="351" y="523"/>
      <point x="351" y="488" type="curve" smooth="yes"/>
      <point x="351" y="451" type="line" smooth="yes"/>
      <point x="351" y="402"/>
      <point x="368" y="371"/>
      <point x="411" y="356" type="curve"/>
      <point x="411" y="352" type="line"/>
      <point x="370" y="338"/>
      <point x="351" y="304"/>
      <point x="351" y="253" type="curve" smooth="yes"/>
      <point x="351" y="218" type="line" smooth="yes"/>
      <point x="351" y="215"/>
      <point x="350" y="212"/>
      <point x="349" y="208" type="curve"/>
      <point x="153" y="402" type="line"/>
      <point x="168" y="413"/>
      <point x="188" y="419"/>
      <point x="213" y="419" type="curve" smooth="yes"/>
      <point x="261" y="419" type="line" smooth="yes"/>
      <point x="272" y="419"/>
      <point x="276" y="424"/>
      <point x="276" y="434" type="curve" smooth="yes"/>
      <point x="276" y="464" type="line" smooth="yes"/>
      <point x="276" y="474"/>
      <point x="272" y="479"/>
      <point x="261" y="479" type="curve" smooth="yes"/>
      <point x="207" y="479" type="line" smooth="yes"/>
      <point x="113" y="479"/>
      <point x="57" y="423"/>
      <point x="57" y="330" type="curve" smooth="yes"/>
      <point x="57" y="235" type="line" smooth="yes"/>
      <point x="57" y="141"/>
      <point x="115" y="85"/>
      <point x="207" y="85" type="curve" smooth="yes"/>
      <point x="256" y="85" type="line" smooth="yes"/>
      <point x="306" y="85"/>
      <point x="345" y="101"/>
      <point x="370" y="132" type="curve"/>
      <point x="393" y="94"/>
      <point x="435" y="74"/>
      <point x="492" y="74" type="curve" smooth="yes"/>
      <point x="594" y="74" type="line" smooth="yes"/>
      <point x="638" y="74"/>
      <point x="673" y="92"/>
      <point x="688" y="122" type="curve"/>
      <point x="692" y="122" type="line"/>
      <point x="692" y="15" type="line" smooth="yes"/>
      <point x="692" y="4"/>
      <point x="697" y="0"/>
      <point x="707" y="0" type="curve" smooth="yes"/>
      <point x="745" y="0" type="line" smooth="yes"/>
      <point x="755" y="0"/>
      <point x="760" y="4"/>
      <point x="760" y="15" type="curve" smooth="yes"/>
      <point x="760" y="553" type="line" smooth="yes"/>
      <point x="760" y="559"/>
      <point x="763" y="563"/>
      <point x="770" y="563" type="curve" smooth="yes"/>
      <point x="845" y="563" type="line" smooth="yes"/>
      <point x="857" y="563"/>
      <point x="861" y="568"/>
      <point x="861" y="578" type="curve" smooth="yes"/>
      <point x="861" y="608" type="line" smooth="yes"/>
      <point x="861" y="618"/>
      <point x="857" y="623"/>
      <point x="845" y="623" type="curve" smooth="yes"/>
    </contour>
  </outline>
</glyph>
<glyph name="dvB_DH_VA" format="2">
  <advance width="1107"/>
  <outline>
    <contour>
      <point x="211" y="142" type="line" smooth="yes"/>
      <point x="151" y="142"/>
      <point x="122" y="174"/>
      <point x="122" y="233" type="curve" smooth="yes"/>
      <point x="122" y="328" type="line" smooth="yes"/>
      <point x="122" y="343"/>
      <point x="124" y="356"/>
      <point x="128" y="368" type="curve"/>
      <point x="329" y="170" type="line"/>
      <point x="312" y="152"/>
      <point x="293" y="142"/>
      <point x="257" y="142" type="curve" smooth="yes"/>
    </contour>
    <contour>
      <point x="641" y="623" type="line" smooth="yes"/>
      <point x="630" y="623"/>
      <point x="625" y="618"/>
      <point x="625" y="608" type="curve" smooth="yes"/>
      <point x="625" y="578" type="line" smooth="yes"/>
      <point x="625" y="568"/>
      <point x="630" y="563"/>
      <point x="641" y="563" type="curve" smooth="yes"/>
      <point x="947" y="563" type="line" smooth="yes"/>
      <point x="954" y="563"/>
      <point x="957" y="559"/>
      <point x="957" y="553" type="curve" smooth="yes"/>
      <point x="957" y="238" type="line" smooth="yes"/>
      <point x="957" y="184"/>
      <point x="927" y="147"/>
      <point x="865" y="147" type="curve" smooth="yes"/>
      <point x="830" y="147" type="line" smooth="yes"/>
      <point x="769" y="147"/>
      <point x="740" y="179"/>
      <point x="740" y="238" type="curve" smooth="yes"/>
      <point x="740" y="321" type="line" smooth="yes"/>
      <point x="740" y="380"/>
      <point x="771" y="412"/>
      <point x="830" y="412" type="curve" smooth="yes"/>
      <point x="875" y="412" type="line" smooth="yes"/>
      <point x="886" y="412"/>
      <point x="891" y="417"/>
      <point x="891" y="427" type="curve" smooth="yes"/>
      <point x="891" y="459" type="line" smooth="yes"/>
      <point x="891" y="468"/>
      <point x="886" y="474"/>
      <point x="875" y="474" type="curve" smooth="yes"/>
      <point x="821" y="474" type="line" smooth="yes"/>
      <point x="727" y="474"/>
      <point x="672" y="418"/>
      <point x="671" y="324" type="curve"/>
      <point x="671" y="235" type="line" smooth="yes"/>
      <point x="671" y="214"/>
      <point x="674" y="195"/>
      <point x="679" y="179" type="curve"/>
      <point x="660" y="158"/>
      <point x="639" y="140"/>
      <point x="596" y="140" type="curve" smooth="yes"/>
      <point x="507" y="140" type="line" smooth="yes"/>
      <point x="451" y="140"/>
      <point x="425" y="164"/>
      <point x="425" y="221" type="curve" smooth="yes"/>
      <point x="425" y="254" type="line" smooth="yes"/>
      <point x="425" y="300"/>
      <point x="449" y="324"/>
      <point x="494" y="324" type="curve" smooth="yes"/>
      <point x="556" y="324" type="line" smooth="yes"/>
      <point x="567" y="324"/>
      <point x="572" y="329"/>
      <point x="572" y="339" type="curve" smooth="yes"/>
      <point x="572" y="371" type="line" smooth="yes"/>
      <point x="572" y="380"/>
      <point x="567" y="386"/>
      <point x="556" y="386" type="curve" smooth="yes"/>
      <point x="494" y="386" type="line" smooth="yes"/>
      <point x="449" y="386"/>
      <point x="425" y="409"/>
      <point x="425" y="455" type="curve" smooth="yes"/>
      <point x="425" y="492" type="line" smooth="yes"/>
      <point x="425" y="540"/>
      <point x="445" y="563"/>
      <point x="489" y="563" type="curve" smooth="yes"/>
      <point x="513" y="563" type="line" smooth="yes"/>
      <point x="525" y="563"/>
      <point x="529" y="568"/>
      <point x="529" y="578" type="curve" smooth="yes"/>
      <point x="529" y="608" type="line" smooth="yes"/>
      <point x="529" y="618"/>
      <point x="525" y="623"/>
      <point x="513" y="623" type="curve" smooth="yes"/>
      <point x="-3" y="623" type="line" smooth="yes"/>
      <point x="-14" y="623"/>
      <point x="-19" y="618"/>
      <point x="-19" y="608" type="curve" smooth="yes"/>
      <point x="-19" y="578" type="line" smooth="yes"/>
      <point x="-19" y="568"/>
      <point x="-14" y="563"/>
      <point x="-3" y="563" type="curve" smooth="yes"/>
      <point x="390" y="563" type="line"/>
      <point x="390" y="559" type="line"/>
      <point x="367" y="546"/>
      <point x="358" y="523"/>
      <point x="358" y="488" type="curve" smooth="yes"/>
      <point x="358" y="451" type="line" smooth="yes"/>
      <point x="358" y="401"/>
      <point x="375" y="371"/>
      <point x="418" y="356" type="curve"/>
      <point x="418" y="352" type="line"/>
      <point x="377" y="338"/>
      <point x="358" y="304"/>
      <point x="358" y="253" type="curve" smooth="yes"/>
      <point x="358" y="216" type="line"/>
      <point x="358" y="203" type="line"/>
      <point x="358" y="203" type="line"/>
      <point x="155" y="404" type="line"/>
      <point x="169" y="414"/>
      <point x="189" y="419"/>
      <point x="212" y="419" type="curve" smooth="yes"/>
      <point x="267" y="419" type="line" smooth="yes"/>
      <point x="278" y="419"/>
      <point x="282" y="424"/>
      <point x="282" y="434" type="curve" smooth="yes"/>
      <point x="282" y="464" type="line" smooth="yes"/>
      <point x="282" y="474"/>
      <point x="278" y="479"/>
      <point x="267" y="479" type="curve" smooth="yes"/>
      <point x="206" y="479" type="line" smooth="yes"/>
      <point x="112" y="479"/>
      <point x="57" y="423"/>
      <point x="56" y="330" type="curve"/>
      <point x="56" y="232" type="line" smooth="yes"/>
      <point x="56" y="138"/>
      <point x="114" y="83"/>
      <point x="207" y="83" type="curve" smooth="yes"/>
      <point x="253" y="83" type="line" smooth="yes"/>
      <point x="313" y="83"/>
      <point x="352" y="107"/>
      <point x="378" y="135" type="curve"/>
      <point x="401" y="97"/>
      <point x="442" y="78"/>
      <point x="498" y="78" type="curve" smooth="yes"/>
      <point x="600" y="78" type="line" smooth="yes"/>
      <point x="653" y="78"/>
      <point x="687" y="100"/>
      <point x="711" y="126" type="curve"/>
      <point x="737" y="100"/>
      <point x="775" y="86"/>
      <point x="822" y="86" type="curve" smooth="yes"/>
      <point x="857" y="86" type="line" smooth="yes"/>
      <point x="902" y="86"/>
      <point x="937" y="101"/>
      <point x="953" y="130" type="curve"/>
      <point x="957" y="130" type="line"/>
      <point x="957" y="16" type="line" smooth="yes"/>
      <point x="957" y="5"/>
      <point x="962" y="0"/>
      <point x="972" y="0" type="curve" smooth="yes"/>
      <point x="1010" y="0" type="line" smooth="yes"/>
      <point x="1020" y="0"/>
      <point x="1025" y="5"/>
      <point x="1025" y="16" type="curve" smooth="yes"/>
      <point x="1025" y="553" type="line" smooth="yes"/>
      <point x="1025" y="559"/>
      <point x="1028" y="563"/>
      <point x="1035" y="563" type="curve" smooth="yes"/>
      <point x="1110" y="563" type="line" smooth="yes"/>
      <point x="1121" y="563"/>
      <point x="1126" y="568"/>
      <point x="1126" y="578" type="curve" smooth="yes"/>
      <point x="1126" y="608" type="line" smooth="yes"/>
      <point x="1126" y="618"/>
      <point x="1121" y="623"/>
      <point x="1110" y="623" type="curve" smooth="yes"/>
    </contour>
  </outline>
</glyph>
<glyph name="dvB_JA" format="2">
  <advance width="889"/>
  <outline>
    <contour>
      <point x="122" y="309" type="line" smooth="yes"/>
      <point x="122" y="325"/>
      <point x="124" y="339"/>
      <point x="129" y="351" type="curve"/>
      <point x="340" y="124" type="line"/>
      <point x="211" y="124" type="line" smooth="yes"/>
      <point x="151" y="124"/>
      <point x="122" y="157"/>
      <point x="122" y="215" type="curve" smooth="yes"/>
    </contour>
    <contour>
      <point x="-3" y="623" type="line" smooth="yes"/>
      <point x="-14" y="623"/>
      <point x="-19" y="618"/>
      <point x="-19" y="608" type="curve" smooth="yes"/>
      <point x="-19" y="578" type="line" smooth="yes"/>
      <point x="-19" y="568"/>
      <point x="-14" y="563"/>
      <point x="-3" y="563" type="curve" smooth="yes"/>
      <point x="729" y="563" type="line" smooth="yes"/>
      <point x="736" y="563"/>
      <point x="739" y="559"/>
      <point x="739" y="553" type="curve" smooth="yes"/>
      <point x="739" y="436" type="line" smooth="yes"/>
      <point x="739" y="429"/>
      <point x="736" y="426"/>
      <point x="728" y="426" type="curve" smooth="yes"/>
      <point x="422" y="426" type="line" smooth="yes"/>
      <point x="412" y="426"/>
      <point x="407" y="421"/>
      <point x="407" y="412" type="curve" smooth="yes"/>
      <point x="407" y="377" type="line" smooth="yes"/>
      <point x="407" y="368"/>
      <point x="411" y="362"/>
      <point x="423" y="362" type="curve" smooth="yes"/>
      <point x="472" y="362" type="line" smooth="yes"/>
      <point x="519" y="362"/>
      <point x="555" y="342"/>
      <point x="555" y="276" type="curve" smooth="yes"/>
      <point x="555" y="211" type="line" smooth="yes"/>
      <point x="555" y="151"/>
      <point x="530" y="124"/>
      <point x="472" y="124" type="curve" smooth="yes"/>
      <point x="401" y="124" type="line"/>
      <point x="158" y="387" type="line"/>
      <point x="172" y="396"/>
      <point x="190" y="400"/>
      <point x="212" y="400" type="curve" smooth="yes"/>
      <point x="267" y="400" type="line" smooth="yes"/>
      <point x="278" y="400"/>
      <point x="282" y="405"/>
      <point x="282" y="414" type="curve" smooth="yes"/>
      <point x="282" y="448" type="line" smooth="yes"/>
      <point x="282" y="458"/>
      <point x="278" y="463"/>
      <point x="267" y="463" type="curve" smooth="yes"/>
      <point x="206" y="463" type="line" smooth="yes"/>
      <point x="112" y="463"/>
      <point x="57" y="407"/>
      <point x="56" y="314" type="curve"/>
      <point x="56" y="212" type="line" smooth="yes"/>
      <point x="56" y="118"/>
      <point x="114" y="63"/>
      <point x="207" y="63" type="curve" smooth="yes"/>
      <point x="489" y="63" type="line" smooth="yes"/>
      <point x="571" y="63"/>
      <point x="622" y="111"/>
      <point x="622" y="206" type="curve" smooth="yes"/>
      <point x="622" y="280" type="line" smooth="yes"/>
      <point x="622" y="318"/>
      <point x="610" y="345"/>
      <point x="584" y="358" type="curve"/>
      <point x="584" y="362" type="line"/>
      <point x="728" y="362" type="line" smooth="yes"/>
      <point x="736" y="362"/>
      <point x="739" y="358"/>
      <point x="739" y="352" type="curve" smooth="yes"/>
      <point x="739" y="15" type="line" smooth="yes"/>
      <point x="739" y="4"/>
      <point x="744" y="0"/>
      <point x="754" y="0" type="curve" smooth="yes"/>
      <point x="792" y="0" type="line" smooth="yes"/>
      <point x="802" y="0"/>
      <point x="807" y="4"/>
      <point x="807" y="15" type="curve" smooth="yes"/>
      <point x="807" y="553" type="line" smooth="yes"/>
      <point x="807" y="559"/>
      <point x="810" y="563"/>
      <point x="817" y="563" type="curve" smooth="yes"/>
      <point x="893" y="563" type="line" smooth="yes"/>
      <point x="904" y="563"/>
      <point x="908" y="568"/>
      <point x="908" y="578" type="curve" smooth="yes"/>
      <point x="908" y="608" type="line" smooth="yes"/>
      <point x="908" y="618"/>
      <point x="904" y="623"/>
      <point x="893" y="623" type="curve" smooth="yes"/>
    </contour>
  </outline>
</glyph>
<glyph name="dvB_LA" format="2">
  <advance width="955"/>
  <outline>
    <contour>
      <point x="212" y="142" type="line" smooth="yes"/>
      <point x="152" y="142"/>
      <point x="122" y="174"/>
      <point x="122" y="233" type="curve" smooth="yes"/>
      <point x="122" y="328" type="line" smooth="yes"/>
      <point x="122" y="342"/>
      <point x="124" y="354"/>
      <point x="127" y="365" type="curve"/>
      <point x="329" y="165" type="line"/>
      <point x="314" y="150"/>
      <point x="292" y="142"/>
      <point x="262" y="142" type="curve" smooth="yes"/>
    </contour>
    <contour>
      <point x="-3" y="623" type="line" smooth="yes"/>
      <point x="-14" y="623"/>
      <point x="-19" y="618"/>
      <point x="-19" y="608" type="curve" smooth="yes"/>
      <point x="-19" y="578" type="line" smooth="yes"/>
      <point x="-19" y="568"/>
      <point x="-14" y="563"/>
      <point x="-3" y="563" type="curve" smooth="yes"/>
      <point x="795" y="563" type="line" smooth="yes"/>
      <point x="802" y="563"/>
      <point x="805" y="559"/>
      <point x="805" y="553" type="curve" smooth="yes"/>
      <point x="805" y="406" type="line"/>
      <point x="801" y="406" type="line"/>
      <point x="787" y="430"/>
      <point x="759" y="442"/>
      <point x="718" y="442" type="curve" smooth="yes"/>
      <point x="663" y="442"/>
      <point x="627" y="420"/>
      <point x="613" y="379" type="curve"/>
      <point x="609" y="379" type="line"/>
      <point x="593" y="424"/>
      <point x="554" y="443"/>
      <point x="496" y="443" type="curve" smooth="yes"/>
      <point x="409" y="443"/>
      <point x="352" y="394"/>
      <point x="352" y="293" type="curve" smooth="yes"/>
      <point x="352" y="233" type="line" smooth="yes"/>
      <point x="352" y="224"/>
      <point x="351" y="216"/>
      <point x="350" y="208" type="curve"/>
      <point x="153" y="402" type="line"/>
      <point x="168" y="413"/>
      <point x="188" y="419"/>
      <point x="213" y="419" type="curve" smooth="yes"/>
      <point x="267" y="419" type="line" smooth="yes"/>
      <point x="278" y="419"/>
      <point x="283" y="424"/>
      <point x="283" y="434" type="curve" smooth="yes"/>
      <point x="283" y="464" type="line" smooth="yes"/>
      <point x="283" y="474"/>
      <point x="278" y="479"/>
      <point x="267" y="479" type="curve" smooth="yes"/>
      <point x="207" y="479" type="line" smooth="yes"/>
      <point x="113" y="479"/>
      <point x="57" y="423"/>
      <point x="57" y="330" type="curve" smooth="yes"/>
      <point x="57" y="232" type="line" smooth="yes"/>
      <point x="57" y="138"/>
      <point x="115" y="82"/>
      <point x="207" y="82" type="curve" smooth="yes"/>
      <point x="259" y="82" type="line" smooth="yes"/>
      <point x="303" y="82"/>
      <point x="338" y="96"/>
      <point x="362" y="122" type="curve"/>
      <point x="381" y="62"/>
      <point x="431" y="34"/>
      <point x="501" y="34" type="curve" smooth="yes"/>
      <point x="545" y="34" type="line" smooth="yes"/>
      <point x="556" y="34"/>
      <point x="561" y="39"/>
      <point x="561" y="49" type="curve" smooth="yes"/>
      <point x="561" y="81" type="line" smooth="yes"/>
      <point x="561" y="91"/>
      <point x="556" y="95"/>
      <point x="545" y="95" type="curve" smooth="yes"/>
      <point x="509" y="95" type="line" smooth="yes"/>
      <point x="450" y="95"/>
      <point x="419" y="121"/>
      <point x="419" y="186" type="curve" smooth="yes"/>
      <point x="419" y="289" type="line" smooth="yes"/>
      <point x="419" y="354"/>
      <point x="446" y="380"/>
      <point x="500" y="380" type="curve" smooth="yes"/>
      <point x="551" y="380"/>
      <point x="579" y="358"/>
      <point x="579" y="295" type="curve" smooth="yes"/>
      <point x="579" y="215" type="line" smooth="yes"/>
      <point x="579" y="204"/>
      <point x="584" y="199"/>
      <point x="594" y="199" type="curve" smooth="yes"/>
      <point x="630" y="199" type="line" smooth="yes"/>
      <point x="640" y="199"/>
      <point x="645" y="204"/>
      <point x="645" y="215" type="curve" smooth="yes"/>
      <point x="645" y="292" type="line" smooth="yes"/>
      <point x="645" y="359"/>
      <point x="673" y="379"/>
      <point x="725" y="379" type="curve" smooth="yes"/>
      <point x="778" y="379"/>
      <point x="805" y="358"/>
      <point x="805" y="293" type="curve" smooth="yes"/>
      <point x="805" y="15" type="line" smooth="yes"/>
      <point x="805" y="4"/>
      <point x="810" y="0"/>
      <point x="820" y="0" type="curve" smooth="yes"/>
      <point x="858" y="0" type="line" smooth="yes"/>
      <point x="868" y="0"/>
      <point x="873" y="4"/>
      <point x="873" y="15" type="curve" smooth="yes"/>
      <point x="873" y="553" type="line" smooth="yes"/>
      <point x="873" y="559"/>
      <point x="876" y="563"/>
      <point x="883" y="563" type="curve" smooth="yes"/>
      <point x="959" y="563" type="line" smooth="yes"/>
      <point x="970" y="563"/>
      <point x="974" y="568"/>
      <point x="974" y="578" type="curve" smooth="yes"/>
      <point x="974" y="608" type="line" smooth="yes"/>
      <point x="974" y="618"/>
      <point x="970" y="623"/>
      <point x="959" y="623" type="curve" smooth="yes"/>
    </contour>
  </outline>
</glyph>
<glyph name="dvB_TA" format="2">
  <advance width="793"/>
  <outline>
    <contour>
      <point x="212" y="142" type="line" smooth="yes"/>
      <point x="152" y="142"/>
      <point x="122" y="174"/>
      <point x="122" y="233" type="curve" smooth="yes"/>
      <point x="122" y="328" type="line" smooth="yes"/>
      <point x="122" y="342"/>
      <point x="124" y="354"/>
      <point x="127" y="365" type="curve"/>
      <point x="329" y="165" type="line"/>
      <point x="314" y="150"/>
      <point x="292" y="142"/>
      <point x="262" y="142" type="curve" smooth="yes"/>
    </contour>
    <contour>
      <point x="-3" y="623" type="line" smooth="yes"/>
      <point x="-14" y="623"/>
      <point x="-19" y="618"/>
      <point x="-19" y="608" type="curve" smooth="yes"/>
      <point x="-19" y="578" type="line" smooth="yes"/>
      <point x="-19" y="568"/>
      <point x="-14" y="563"/>
      <point x="-3" y="563" type="curve" smooth="yes"/>
      <point x="633" y="563" type="line" smooth="yes"/>
      <point x="640" y="563"/>
      <point x="642" y="559"/>
      <point x="642" y="553" type="curve" smooth="yes"/>
      <point x="642" y="432" type="line" smooth="yes"/>
      <point x="642" y="425"/>
      <point x="639" y="421"/>
      <point x="632" y="421" type="curve" smooth="yes"/>
      <point x="498" y="421" type="line" smooth="yes"/>
      <point x="409" y="421"/>
      <point x="352" y="374"/>
      <point x="352" y="274" type="curve" smooth="yes"/>
      <point x="352" y="233" type="line" smooth="yes"/>
      <point x="352" y="224"/>
      <point x="351" y="216"/>
      <point x="350" y="208" type="curve"/>
      <point x="153" y="402" type="line"/>
      <point x="168" y="413"/>
      <point x="188" y="419"/>
      <point x="213" y="419" type="curve" smooth="yes"/>
      <point x="267" y="419" type="line" smooth="yes"/>
      <point x="278" y="419"/>
      <point x="283" y="424"/>
      <point x="283" y="434" type="curve" smooth="yes"/>
      <point x="283" y="464" type="line" smooth="yes"/>
      <point x="283" y="474"/>
      <point x="278" y="479"/>
      <point x="267" y="479" type="curve" smooth="yes"/>
      <point x="207" y="479" type="line" smooth="yes"/>
      <point x="113" y="479"/>
      <point x="57" y="423"/>
      <point x="57" y="330" type="curve" smooth="yes"/>
      <point x="57" y="232" type="line" smooth="yes"/>
      <point x="57" y="138"/>
      <point x="115" y="82"/>
      <point x="207" y="82" type="curve" smooth="yes"/>
      <point x="259" y="82" type="line" smooth="yes"/>
      <point x="298" y="82"/>
      <point x="330" y="93"/>
      <point x="354" y="114" type="curve"/>
      <point x="366" y="36"/>
      <point x="418" y="0"/>
      <point x="495" y="0" type="curve" smooth="yes"/>
      <point x="520" y="0" type="line" smooth="yes"/>
      <point x="531" y="0"/>
      <point x="536" y="5"/>
      <point x="536" y="15" type="curve" smooth="yes"/>
      <point x="536" y="45" type="line" smooth="yes"/>
      <point x="536" y="54"/>
      <point x="531" y="60"/>
      <point x="520" y="60" type="curve" smooth="yes"/>
      <point x="508" y="60" type="line" smooth="yes"/>
      <point x="455" y="60"/>
      <point x="420" y="80"/>
      <point x="420" y="147" type="curve" smooth="yes"/>
      <point x="420" y="271" type="line" smooth="yes"/>
      <point x="420" y="337"/>
      <point x="455" y="359"/>
      <point x="505" y="359" type="curve" smooth="yes"/>
      <point x="632" y="359" type="line" smooth="yes"/>
      <point x="639" y="359"/>
      <point x="642" y="355"/>
      <point x="642" y="348" type="curve" smooth="yes"/>
      <point x="642" y="15" type="line" smooth="yes"/>
      <point x="642" y="4"/>
      <point x="647" y="0"/>
      <point x="657" y="0" type="curve" smooth="yes"/>
      <point x="695" y="0" type="line" smooth="yes"/>
      <point x="705" y="0"/>
      <point x="710" y="4"/>
      <point x="710" y="15" type="curve" smooth="yes"/>
      <point x="710" y="553" type="line" smooth="yes"/>
      <point x="710" y="559"/>
      <point x="713" y="563"/>
      <point x="721" y="563" type="curve" smooth="yes"/>
      <point x="796" y="563" type="line" smooth="yes"/>
      <point x="808" y="563"/>
      <point x="812" y="568"/>
      <point x="812" y="578" type="curve" smooth="yes"/>
      <point x="812" y="608" type="line" smooth="yes"/>
      <point x="812" y="618"/>
      <point x="808" y="623"/>
      <point x="796" y="623" type="curve" smooth="yes"/>
    </contour>
  </outline>
</glyph>
<glyph name="dvB_VA" format="2">
  <advance width="788"/>
  <outline>
    <contour>
      <point x="212" y="142" type="line" smooth="yes"/>
      <point x="152" y="142"/>
      <point x="122" y="174"/>
      <point x="122" y="233" type="curve" smooth="yes"/>
      <point x="122" y="328" type="line" smooth="yes"/>
      <point x="122" y="342"/>
      <point x="124" y="354"/>
      <point x="127" y="365" type="curve"/>
      <point x="329" y="165" type="line"/>
      <point x="314" y="150"/>
      <point x="292" y="142"/>
      <point x="262" y="142" type="curve" smooth="yes"/>
    </contour>
    <contour>
      <point x="-3" y="623" type="line" smooth="yes"/>
      <point x="-14" y="623"/>
      <point x="-19" y="618"/>
      <point x="-19" y="608" type="curve" smooth="yes"/>
      <point x="-19" y="578" type="line" smooth="yes"/>
      <point x="-19" y="568"/>
      <point x="-14" y="563"/>
      <point x="-3" y="563" type="curve" smooth="yes"/>
      <point x="627" y="563" type="line" smooth="yes"/>
      <point x="635" y="563"/>
      <point x="637" y="559"/>
      <point x="637" y="553" type="curve" smooth="yes"/>
      <point x="637" y="238" type="line" smooth="yes"/>
      <point x="637" y="184"/>
      <point x="607" y="147"/>
      <point x="545" y="147" type="curve" smooth="yes"/>
      <point x="510" y="147" type="line" smooth="yes"/>
      <point x="449" y="147"/>
      <point x="420" y="179"/>
      <point x="420" y="238" type="curve" smooth="yes"/>
      <point x="420" y="321" type="line" smooth="yes"/>
      <point x="420" y="380"/>
      <point x="452" y="412"/>
      <point x="511" y="412" type="curve" smooth="yes"/>
      <point x="555" y="412" type="line" smooth="yes"/>
      <point x="566" y="412"/>
      <point x="571" y="417"/>
      <point x="571" y="427" type="curve" smooth="yes"/>
      <point x="571" y="459" type="line" smooth="yes"/>
      <point x="571" y="468"/>
      <point x="566" y="474"/>
      <point x="555" y="474" type="curve" smooth="yes"/>
      <point x="501" y="474" type="line" smooth="yes"/>
      <point x="408" y="474"/>
      <point x="352" y="418"/>
      <point x="352" y="324" type="curve" smooth="yes"/>
      <point x="352" y="233" type="line" smooth="yes"/>
      <point x="352" y="224"/>
      <point x="351" y="216"/>
      <point x="350" y="208" type="curve"/>
      <point x="153" y="402" type="line"/>
      <point x="168" y="413"/>
      <point x="188" y="419"/>
      <point x="213" y="419" type="curve" smooth="yes"/>
      <point x="267" y="419" type="line" smooth="yes"/>
      <point x="278" y="419"/>
      <point x="283" y="424"/>
      <point x="283" y="434" type="curve" smooth="yes"/>
      <point x="283" y="464" type="line" smooth="yes"/>
      <point x="283" y="474"/>
      <point x="278" y="479"/>
      <point x="267" y="479" type="curve" smooth="yes"/>
      <point x="207" y="479" type="line" smooth="yes"/>
      <point x="113" y="479"/>
      <point x="57" y="423"/>
      <point x="57" y="330" type="curve" smooth="yes"/>
      <point x="57" y="232" type="line" smooth="yes"/>
      <point x="57" y="138"/>
      <point x="115" y="82"/>
      <point x="207" y="82" type="curve" smooth="yes"/>
      <point x="259" y="82" type="line" smooth="yes"/>
      <point x="314" y="82"/>
      <point x="355" y="104"/>
      <point x="378" y="145" type="curve"/>
      <point x="403" y="107"/>
      <point x="446" y="86"/>
      <point x="502" y="86" type="curve" smooth="yes"/>
      <point x="537" y="86" type="line" smooth="yes"/>
      <point x="583" y="86"/>
      <point x="618" y="101"/>
      <point x="633" y="130" type="curve"/>
      <point x="637" y="130" type="line"/>
      <point x="637" y="16" type="line" smooth="yes"/>
      <point x="637" y="5"/>
      <point x="643" y="0"/>
      <point x="652" y="0" type="curve" smooth="yes"/>
      <point x="690" y="0" type="line" smooth="yes"/>
      <point x="700" y="0"/>
      <point x="705" y="5"/>
      <point x="705" y="16" type="curve" smooth="yes"/>
      <point x="705" y="553" type="line" smooth="yes"/>
      <point x="705" y="559"/>
      <point x="708" y="563"/>
      <point x="715" y="563" type="curve" smooth="yes"/>
      <point x="791" y="563" type="line" smooth="yes"/>
      <point x="802" y="563"/>
      <point x="806" y="568"/>
      <point x="806" y="578" type="curve" smooth="yes"/>
      <point x="806" y="608" type="line" smooth="yes"/>
      <point x="806" y="618"/>
      <point x="802" y="623"/>
      <point x="791" y="623" type="curve" smooth="yes"/>
    </contour>
  </outline>
</glyph>
<glyph name="dvCH_R" format="2">
  <advance width="573"/>
  <outline>
    <contour>
      <point x="329" y="-132" type="line" smooth="yes"/>
      <point x="323" y="-123"/>
      <point x="317" y="-118"/>
      <point x="307" y="-118" type="curve" smooth="yes"/>
      <point x="272" y="-118" type="line" smooth="yes"/>
      <point x="264" y="-118"/>
      <point x="260" y="-123"/>
      <point x="260" y="-130" type="curve" smooth="yes"/>
      <point x="260" y="-133"/>
      <point x="261" y="-135"/>
      <point x="262" y="-138" type="curve"/>
      <point x="350" y="-275" type="line"/>
      <point x="354" y="-282"/>
      <point x="360" y="-287"/>
      <point x="369" y="-287" type="curve" smooth="yes"/>
      <point x="410" y="-287" type="line" smooth="yes"/>
      <point x="418" y="-287"/>
      <point x="423" y="-281"/>
      <point x="423" y="-274" type="curve" smooth="yes"/>
      <point x="423" y="-270"/>
      <point x="422" y="-266"/>
      <point x="420" y="-263" type="curve" smooth="yes"/>
    </contour>
    <contour>
      <point x="342" y="426" type="line" smooth="yes"/>
      <point x="331" y="426"/>
      <point x="326" y="421"/>
      <point x="326" y="412" type="curve" smooth="yes"/>
      <point x="326" y="381" type="line" smooth="yes"/>
      <point x="326" y="371"/>
      <point x="331" y="366"/>
      <point x="342" y="366" type="curve" smooth="yes"/>
      <point x="378" y="366" type="line" smooth="yes"/>
      <point x="422" y="366"/>
      <point x="442" y="344"/>
      <point x="442" y="300" type="curve" smooth="yes"/>
      <point x="442" y="193" type="line" smooth="yes"/>
      <point x="442" y="133"/>
      <point x="413" y="103"/>
      <point x="354" y="103" type="curve" smooth="yes"/>
      <point x="219" y="103" type="line" smooth="yes"/>
      <point x="161" y="103"/>
      <point x="137" y="126"/>
      <point x="137" y="183" type="curve" smooth="yes"/>
      <point x="137" y="217" type="line" smooth="yes"/>
      <point x="137" y="266"/>
      <point x="160" y="292"/>
      <point x="211" y="292" type="curve" smooth="yes"/>
      <point x="245" y="292" type="line" smooth="yes"/>
      <point x="256" y="292"/>
      <point x="260" y="297"/>
      <point x="260" y="306" type="curve" smooth="yes"/>
      <point x="260" y="337" type="line" smooth="yes"/>
      <point x="260" y="347"/>
      <point x="256" y="352"/>
      <point x="245" y="352" type="curve" smooth="yes"/>
      <point x="206" y="352" type="line" smooth="yes"/>
      <point x="161" y="352"/>
      <point x="137" y="377"/>
      <point x="137" y="422" type="curve" smooth="yes"/>
      <point x="137" y="486" type="line" smooth="yes"/>
      <point x="137" y="537"/>
      <point x="158" y="563"/>
      <point x="208" y="563" type="curve" smooth="yes"/>
      <point x="407" y="563" type="line" smooth="yes"/>
      <point x="415" y="563"/>
      <point x="418" y="560"/>
      <point x="418" y="553" type="curve" smooth="yes"/>
      <point x="418" y="447" type="line" smooth="yes"/>
      <point x="418" y="438"/>
      <point x="417" y="430"/>
      <point x="414" y="424" type="curve"/>
      <point x="404" y="425"/>
      <point x="394" y="426"/>
      <point x="382" y="426" type="curve" smooth="yes"/>
    </contour>
    <contour>
      <point x="-3" y="623" type="line" smooth="yes"/>
      <point x="-14" y="623"/>
      <point x="-19" y="618"/>
      <point x="-19" y="608" type="curve" smooth="yes"/>
      <point x="-19" y="579" type="line" smooth="yes"/>
      <point x="-19" y="568"/>
      <point x="-14" y="564"/>
      <point x="-3" y="563" type="curve"/>
      <point x="104" y="563" type="line"/>
      <point x="104" y="559" type="line"/>
      <point x="80" y="547"/>
      <point x="69" y="523"/>
      <point x="69" y="485" type="curve" smooth="yes"/>
      <point x="69" y="413" type="line" smooth="yes"/>
      <point x="69" y="367"/>
      <point x="88" y="335"/>
      <point x="130" y="323" type="curve"/>
      <point x="130" y="319" type="line"/>
      <point x="87" y="305"/>
      <point x="69" y="270"/>
      <point x="69" y="218" type="curve" smooth="yes"/>
      <point x="69" y="177" type="line" smooth="yes"/>
      <point x="69" y="88"/>
      <point x="122" y="42"/>
      <point x="211" y="41" type="curve"/>
      <point x="126" y="-72" type="line" smooth="yes"/>
      <point x="123" y="-76"/>
      <point x="121" y="-79"/>
      <point x="121" y="-84" type="curve" smooth="yes"/>
      <point x="121" y="-92"/>
      <point x="126" y="-95"/>
      <point x="135" y="-95" type="curve" smooth="yes"/>
      <point x="181" y="-95" type="line" smooth="yes"/>
      <point x="190" y="-95"/>
      <point x="195" y="-91"/>
      <point x="200" y="-84" type="curve" smooth="yes"/>
      <point x="286" y="35" type="line"/>
      <point x="291" y="35" type="line"/>
      <point x="377" y="-84" type="line" smooth="yes"/>
      <point x="382" y="-91"/>
      <point x="387" y="-95"/>
      <point x="396" y="-95" type="curve" smooth="yes"/>
      <point x="442" y="-95" type="line" smooth="yes"/>
      <point x="450" y="-95"/>
      <point x="456" y="-92"/>
      <point x="456" y="-84" type="curve" smooth="yes"/>
      <point x="456" y="-79"/>
      <point x="454" y="-76"/>
      <point x="451" y="-72" type="curve" smooth="yes"/>
      <point x="366" y="41" type="line"/>
      <point x="459" y="41"/>
      <point x="508" y="105"/>
      <point x="508" y="185" type="curve" smooth="yes"/>
      <point x="508" y="299" type="line" smooth="yes"/>
      <point x="508" y="347"/>
      <point x="494" y="382"/>
      <point x="466" y="403" type="curve"/>
      <point x="478" y="413"/>
      <point x="487" y="431"/>
      <point x="487" y="455" type="curve" smooth="yes"/>
      <point x="487" y="553" type="line" smooth="yes"/>
      <point x="487" y="560"/>
      <point x="491" y="563"/>
      <point x="499" y="563" type="curve" smooth="yes"/>
      <point x="576" y="563" type="line"/>
      <point x="587" y="564"/>
      <point x="591" y="568"/>
      <point x="591" y="579" type="curve" smooth="yes"/>
      <point x="591" y="608" type="line" smooth="yes"/>
      <point x="591" y="618"/>
      <point x="587" y="623"/>
      <point x="576" y="623" type="curve" smooth="yes"/>
    </contour>
  </outline>
</glyph>
<glyph name="dvCH_R_YA" format="2">
  <advance width="1068"/>
  <outline>
    <contour>
      <point x="917" y="244" type="line" smooth="yes"/>
      <point x="917" y="181"/>
      <point x="879" y="129"/>
      <point x="802" y="129" type="curve" smooth="yes"/>
      <point x="762" y="129" type="line" smooth="yes"/>
      <point x="690" y="129"/>
      <point x="655" y="158"/>
      <point x="655" y="231" type="curve"/>
      <point x="671" y="231" type="line" smooth="yes"/>
      <point x="749" y="231"/>
      <point x="808" y="262"/>
      <point x="808" y="354" type="curve" smooth="yes"/>
      <point x="808" y="432"/>
      <point x="757" y="470"/>
      <point x="671" y="470" type="curve" smooth="yes"/>
      <point x="342" y="470" type="line" smooth="yes"/>
      <point x="331" y="470"/>
      <point x="326" y="465"/>
      <point x="326" y="456" type="curve" smooth="yes"/>
      <point x="326" y="426" type="line" smooth="yes"/>
      <point x="326" y="416"/>
      <point x="331" y="411"/>
      <point x="342" y="411" type="curve" smooth="yes"/>
      <point x="378" y="411" type="line" smooth="yes"/>
      <point x="422" y="411"/>
      <point x="442" y="388"/>
      <point x="442" y="344" type="curve" smooth="yes"/>
      <point x="442" y="193" type="line" smooth="yes"/>
      <point x="442" y="133"/>
      <point x="413" y="103"/>
      <point x="354" y="103" type="curve" smooth="yes"/>
      <point x="219" y="103" type="line" smooth="yes"/>
      <point x="161" y="103"/>
      <point x="137" y="126"/>
      <point x="137" y="183" type="curve" smooth="yes"/>
      <point x="137" y="217" type="line" smooth="yes"/>
      <point x="137" y="266"/>
      <point x="160" y="292"/>
      <point x="211" y="292" type="curve" smooth="yes"/>
      <point x="245" y="292" type="line" smooth="yes"/>
      <point x="256" y="292"/>
      <point x="260" y="297"/>
      <point x="260" y="306" type="curve" smooth="yes"/>
      <point x="260" y="337" type="line" smooth="yes"/>
      <point x="260" y="347"/>
      <point x="256" y="352"/>
      <point x="245" y="352" type="curve" smooth="yes"/>
      <point x="206" y="352" type="line" smooth="yes"/>
      <point x="161" y="352"/>
      <point x="137" y="377"/>
      <point x="137" y="422" type="curve" smooth="yes"/>
      <point x="137" y="486" type="line" smooth="yes"/>
      <point x="137" y="537"/>
      <point x="158" y="563"/>
      <point x="208" y="563" type="curve" smooth="yes"/>
      <point x="907" y="563" type="line" smooth="yes"/>
      <point x="914" y="563"/>
      <point x="917" y="559"/>
      <point x="917" y="553" type="curve" smooth="yes"/>
    </contour>
    <contour>
      <point x="-3" y="623" type="line" smooth="yes"/>
      <point x="-14" y="623"/>
      <point x="-19" y="618"/>
      <point x="-19" y="608" type="curve" smooth="yes"/>
      <point x="-19" y="579" type="line" smooth="yes"/>
      <point x="-19" y="568"/>
      <point x="-14" y="564"/>
      <point x="-3" y="563" type="curve"/>
      <point x="104" y="563" type="line"/>
      <point x="104" y="559" type="line"/>
      <point x="80" y="547"/>
      <point x="69" y="523"/>
      <point x="69" y="485" type="curve" smooth="yes"/>
      <point x="69" y="413" type="line" smooth="yes"/>
      <point x="69" y="367"/>
      <point x="88" y="335"/>
      <point x="130" y="323" type="curve"/>
      <point x="130" y="319" type="line"/>
      <point x="87" y="305"/>
      <point x="69" y="270"/>
      <point x="69" y="218" type="curve" smooth="yes"/>
      <point x="69" y="177" type="line" smooth="yes"/>
      <point x="69" y="87"/>
      <point x="123" y="41"/>
      <point x="213" y="41" type="curve" smooth="yes"/>
      <point x="231" y="41" type="line"/>
      <point x="138" y="-82" type="line" smooth="yes"/>
      <point x="135" y="-86"/>
      <point x="133" y="-89"/>
      <point x="133" y="-94" type="curve" smooth="yes"/>
      <point x="133" y="-102"/>
      <point x="138" y="-105"/>
      <point x="147" y="-105" type="curve" smooth="yes"/>
      <point x="193" y="-105" type="line" smooth="yes"/>
      <point x="202" y="-105"/>
      <point x="207" y="-101"/>
      <point x="212" y="-94" type="curve" smooth="yes"/>
      <point x="298" y="25" type="line"/>
      <point x="303" y="25" type="line"/>
      <point x="389" y="-94" type="line" smooth="yes"/>
      <point x="394" y="-101"/>
      <point x="399" y="-105"/>
      <point x="408" y="-105" type="curve" smooth="yes"/>
      <point x="454" y="-105" type="line" smooth="yes"/>
      <point x="462" y="-105"/>
      <point x="468" y="-102"/>
      <point x="468" y="-94" type="curve" smooth="yes"/>
      <point x="468" y="-89"/>
      <point x="466" y="-86"/>
      <point x="463" y="-82" type="curve" smooth="yes"/>
      <point x="370" y="41" type="line"/>
      <point x="461" y="43"/>
      <point x="508" y="106"/>
      <point x="508" y="185" type="curve" smooth="yes"/>
      <point x="508" y="344" type="line" smooth="yes"/>
      <point x="508" y="371"/>
      <point x="504" y="393"/>
      <point x="495" y="411" type="curve"/>
      <point x="673" y="411" type="line" smooth="yes"/>
      <point x="720" y="411"/>
      <point x="742" y="395"/>
      <point x="742" y="353" type="curve" smooth="yes"/>
      <point x="742" y="309"/>
      <point x="721" y="289"/>
      <point x="673" y="289" type="curve" smooth="yes"/>
      <point x="605" y="289" type="line" smooth="yes"/>
      <point x="594" y="289"/>
      <point x="590" y="284"/>
      <point x="590" y="274" type="curve" smooth="yes"/>
      <point x="590" y="226" type="line" smooth="yes"/>
      <point x="590" y="131"/>
      <point x="642" y="70"/>
      <point x="754" y="70" type="curve" smooth="yes"/>
      <point x="802" y="70" type="line" smooth="yes"/>
      <point x="856" y="70"/>
      <point x="895" y="89"/>
      <point x="913" y="123" type="curve"/>
      <point x="917" y="123" type="line"/>
      <point x="917" y="15" type="line" smooth="yes"/>
      <point x="917" y="4"/>
      <point x="923" y="0"/>
      <point x="932" y="0" type="curve" smooth="yes"/>
      <point x="971" y="0" type="line" smooth="yes"/>
      <point x="980" y="0"/>
      <point x="986" y="4"/>
      <point x="986" y="15" type="curve" smooth="yes"/>
      <point x="986" y="553" type="line" smooth="yes"/>
      <point x="986" y="559"/>
      <point x="988" y="563"/>
      <point x="996" y="563" type="curve" smooth="yes"/>
      <point x="1072" y="563" type="line" smooth="yes"/>
      <point x="1084" y="563"/>
      <point x="1088" y="568"/>
      <point x="1088" y="578" type="curve" smooth="yes"/>
      <point x="1088" y="608" type="line" smooth="yes"/>
      <point x="1088" y="618"/>
      <point x="1084" y="623"/>
      <point x="1072" y="623" type="curve" smooth="yes"/>
    </contour>
  </outline>
</glyph>
<glyph name="dvC_CA" format="2">
  <advance width="880"/>
  <outline>
    <contour>
      <point x="-3" y="623" type="line" smooth="yes"/>
      <point x="-14" y="623"/>
      <point x="-19" y="618"/>
      <point x="-19" y="608" type="curve" smooth="yes"/>
      <point x="-19" y="578" type="line" smooth="yes"/>
      <point x="-19" y="568"/>
      <point x="-14" y="563"/>
      <point x="-3" y="563" type="curve" smooth="yes"/>
      <point x="719" y="563" type="line" smooth="yes"/>
      <point x="726" y="563"/>
      <point x="729" y="559"/>
      <point x="729" y="553" type="curve" smooth="yes"/>
      <point x="729" y="253" type="line" smooth="yes"/>
      <point x="729" y="193"/>
      <point x="695" y="159"/>
      <point x="636" y="159" type="curve" smooth="yes"/>
      <point x="569" y="159" type="line" smooth="yes"/>
      <point x="510" y="159"/>
      <point x="479" y="190"/>
      <point x="479" y="249" type="curve" smooth="yes"/>
      <point x="479" y="288" type="line" smooth="yes"/>
      <point x="479" y="346"/>
      <point x="509" y="378"/>
      <point x="564" y="378" type="curve" smooth="yes"/>
      <point x="624" y="378" type="line" smooth="yes"/>
      <point x="635" y="378"/>
      <point x="640" y="383"/>
      <point x="640" y="393" type="curve" smooth="yes"/>
      <point x="640" y="425" type="line" smooth="yes"/>
      <point x="640" y="434"/>
      <point x="635" y="440"/>
      <point x="624" y="440" type="curve" smooth="yes"/>
      <point x="374" y="440" type="line" smooth="yes"/>
      <point x="363" y="440"/>
      <point x="359" y="434"/>
      <point x="359" y="425" type="curve" smooth="yes"/>
      <point x="359" y="393" type="line" smooth="yes"/>
      <point x="359" y="383"/>
      <point x="363" y="378"/>
      <point x="374" y="378" type="curve" smooth="yes"/>
      <point x="455" y="378" type="line"/>
      <point x="455" y="374" type="line"/>
      <point x="425" y="358"/>
      <point x="412" y="324"/>
      <point x="412" y="283" type="curve" smooth="yes"/>
      <point x="412" y="245" type="line" smooth="yes"/>
      <point x="412" y="233"/>
      <point x="413" y="221"/>
      <point x="415" y="210" type="curve"/>
      <point x="412" y="207" type="line" smooth="yes"/>
      <point x="389" y="183"/>
      <point x="368" y="159"/>
      <point x="319" y="159" type="curve" smooth="yes"/>
      <point x="261" y="159" type="line" smooth="yes"/>
      <point x="201" y="159"/>
      <point x="171" y="190"/>
      <point x="171" y="249" type="curve" smooth="yes"/>
      <point x="171" y="288" type="line" smooth="yes"/>
      <point x="171" y="346"/>
      <point x="200" y="378"/>
      <point x="255" y="378" type="curve" smooth="yes"/>
      <point x="275" y="378" type="line" smooth="yes"/>
      <point x="286" y="378"/>
      <point x="291" y="383"/>
      <point x="291" y="393" type="curve" smooth="yes"/>
      <point x="291" y="425" type="line" smooth="yes"/>
      <point x="291" y="434"/>
      <point x="286" y="440"/>
      <point x="275" y="440" type="curve" smooth="yes"/>
      <point x="38" y="440" type="line" smooth="yes"/>
      <point x="27" y="440"/>
      <point x="22" y="434"/>
      <point x="22" y="425" type="curve" smooth="yes"/>
      <point x="22" y="393" type="line" smooth="yes"/>
      <point x="22" y="383"/>
      <point x="27" y="378"/>
      <point x="38" y="378" type="curve" smooth="yes"/>
      <point x="146" y="378" type="line"/>
      <point x="146" y="374" type="line"/>
      <point x="116" y="358"/>
      <point x="103" y="324"/>
      <point x="103" y="283" type="curve" smooth="yes"/>
      <point x="103" y="245" type="line" smooth="yes"/>
      <point x="103" y="151"/>
      <point x="159" y="97"/>
      <point x="252" y="97" type="curve" smooth="yes"/>
      <point x="320" y="97" type="line" smooth="yes"/>
      <point x="376" y="97"/>
      <point x="414" y="122"/>
      <point x="440" y="149" type="curve"/>
      <point x="465" y="115"/>
      <point x="507" y="97"/>
      <point x="561" y="97" type="curve" smooth="yes"/>
      <point x="626" y="97" type="line" smooth="yes"/>
      <point x="678" y="97"/>
      <point x="710" y="116"/>
      <point x="725" y="145" type="curve"/>
      <point x="729" y="145" type="line"/>
      <point x="729" y="16" type="line" smooth="yes"/>
      <point x="729" y="5"/>
      <point x="734" y="0"/>
      <point x="744" y="0" type="curve" smooth="yes"/>
      <point x="783" y="0" type="line" smooth="yes"/>
      <point x="793" y="0"/>
      <point x="798" y="5"/>
      <point x="798" y="16" type="curve" smooth="yes"/>
      <point x="798" y="553" type="line" smooth="yes"/>
      <point x="798" y="559"/>
      <point x="801" y="563"/>
      <point x="808" y="563" type="curve" smooth="yes"/>
      <point x="883" y="563" type="line" smooth="yes"/>
      <point x="894" y="563"/>
      <point x="899" y="568"/>
      <point x="899" y="578" type="curve" smooth="yes"/>
      <point x="899" y="608" type="line" smooth="yes"/>
      <point x="899" y="618"/>
      <point x="894" y="623"/>
      <point x="883" y="623" type="curve" smooth="yes"/>
    </contour>
  </outline>
</glyph>
<glyph name="dvC_CHA" format="2">
  <advance width="920"/>
  <outline>
    <contour>
      <point x="689" y="426" type="line" smooth="yes"/>
      <point x="678" y="426"/>
      <point x="673" y="421"/>
      <point x="673" y="412" type="curve" smooth="yes"/>
      <point x="673" y="381" type="line" smooth="yes"/>
      <point x="673" y="371"/>
      <point x="678" y="366"/>
      <point x="689" y="366" type="curve" smooth="yes"/>
      <point x="725" y="366" type="line" smooth="yes"/>
      <point x="769" y="366"/>
      <point x="789" y="344"/>
      <point x="789" y="300" type="curve" smooth="yes"/>
      <point x="789" y="193" type="line" smooth="yes"/>
      <point x="789" y="133"/>
      <point x="760" y="103"/>
      <point x="701" y="103" type="curve" smooth="yes"/>
      <point x="566" y="103" type="line" smooth="yes"/>
      <point x="508" y="103"/>
      <point x="484" y="126"/>
      <point x="484" y="183" type="curve" smooth="yes"/>
      <point x="484" y="217" type="line" smooth="yes"/>
      <point x="484" y="266"/>
      <point x="507" y="292"/>
      <point x="558" y="292" type="curve" smooth="yes"/>
      <point x="592" y="292" type="line" smooth="yes"/>
      <point x="603" y="292"/>
      <point x="607" y="297"/>
      <point x="607" y="306" type="curve" smooth="yes"/>
      <point x="607" y="337" type="line" smooth="yes"/>
      <point x="607" y="347"/>
      <point x="603" y="352"/>
      <point x="592" y="352" type="curve" smooth="yes"/>
      <point x="553" y="352" type="line" smooth="yes"/>
      <point x="508" y="352"/>
      <point x="484" y="377"/>
      <point x="484" y="422" type="curve" smooth="yes"/>
      <point x="484" y="486" type="line" smooth="yes"/>
      <point x="484" y="537"/>
      <point x="505" y="563"/>
      <point x="555" y="563" type="curve" smooth="yes"/>
      <point x="754" y="563" type="line" smooth="yes"/>
      <point x="762" y="563"/>
      <point x="765" y="560"/>
      <point x="765" y="553" type="curve" smooth="yes"/>
      <point x="765" y="447" type="line" smooth="yes"/>
      <point x="765" y="438"/>
      <point x="764" y="430"/>
      <point x="761" y="424" type="curve"/>
      <point x="751" y="425"/>
      <point x="741" y="426"/>
      <point x="729" y="426" type="curve" smooth="yes"/>
    </contour>
    <contour>
      <point x="-3" y="623" type="line" smooth="yes"/>
      <point x="-14" y="623"/>
      <point x="-19" y="618"/>
      <point x="-19" y="608" type="curve" smooth="yes"/>
      <point x="-19" y="578" type="line" smooth="yes"/>
      <point x="-19" y="568"/>
      <point x="-14" y="563"/>
      <point x="-3" y="563" type="curve" smooth="yes"/>
      <point x="451" y="563" type="line"/>
      <point x="451" y="559" type="line"/>
      <point x="427" y="547"/>
      <point x="416" y="523"/>
      <point x="416" y="485" type="curve" smooth="yes"/>
      <point x="416" y="413" type="line" smooth="yes"/>
      <point x="416" y="367"/>
      <point x="435" y="335"/>
      <point x="477" y="323" type="curve"/>
      <point x="477" y="319" type="line"/>
      <point x="434" y="305"/>
      <point x="416" y="270"/>
      <point x="416" y="218" type="curve" smooth="yes"/>
      <point x="416" y="204" type="line"/>
      <point x="394" y="180"/>
      <point x="373" y="159"/>
      <point x="326" y="159" type="curve" smooth="yes"/>
      <point x="261" y="159" type="line" smooth="yes"/>
      <point x="201" y="159"/>
      <point x="171" y="190"/>
      <point x="171" y="249" type="curve" smooth="yes"/>
      <point x="171" y="288" type="line" smooth="yes"/>
      <point x="171" y="346"/>
      <point x="200" y="378"/>
      <point x="255" y="378" type="curve" smooth="yes"/>
      <point x="315" y="378" type="line" smooth="yes"/>
      <point x="326" y="378"/>
      <point x="331" y="383"/>
      <point x="331" y="393" type="curve" smooth="yes"/>
      <point x="331" y="425" type="line" smooth="yes"/>
      <point x="331" y="434"/>
      <point x="326" y="440"/>
      <point x="315" y="440" type="curve" smooth="yes"/>
      <point x="38" y="440" type="line" smooth="yes"/>
      <point x="27" y="440"/>
      <point x="22" y="434"/>
      <point x="22" y="425" type="curve" smooth="yes"/>
      <point x="22" y="393" type="line" smooth="yes"/>
      <point x="22" y="383"/>
      <point x="27" y="378"/>
      <point x="38" y="378" type="curve" smooth="yes"/>
      <point x="146" y="378" type="line"/>
      <point x="146" y="374" type="line"/>
      <point x="116" y="358"/>
      <point x="103" y="324"/>
      <point x="103" y="283" type="curve" smooth="yes"/>
      <point x="103" y="245" type="line" smooth="yes"/>
      <point x="103" y="151"/>
      <point x="159" y="97"/>
      <point x="252" y="97" type="curve" smooth="yes"/>
      <point x="327" y="97" type="line" smooth="yes"/>
      <point x="367" y="97"/>
      <point x="399" y="110"/>
      <point x="423" y="128" type="curve"/>
      <point x="439" y="70"/>
      <point x="488" y="41"/>
      <point x="560" y="41" type="curve" smooth="yes"/>
      <point x="712" y="41" type="line" smooth="yes"/>
      <point x="806" y="41"/>
      <point x="855" y="105"/>
      <point x="855" y="185" type="curve" smooth="yes"/>
      <point x="855" y="299" type="line" smooth="yes"/>
      <point x="855" y="347"/>
      <point x="841" y="382"/>
      <point x="813" y="403" type="curve"/>
      <point x="825" y="413"/>
      <point x="834" y="431"/>
      <point x="834" y="455" type="curve" smooth="yes"/>
      <point x="834" y="553" type="line" smooth="yes"/>
      <point x="834" y="560"/>
      <point x="838" y="563"/>
      <point x="846" y="563" type="curve" smooth="yes"/>
      <point x="923" y="563" type="line"/>
      <point x="934" y="564"/>
      <point x="938" y="568"/>
      <point x="938" y="579" type="curve" smooth="yes"/>
      <point x="938" y="608" type="line" smooth="yes"/>
      <point x="938" y="618"/>
      <point x="934" y="623"/>
      <point x="923" y="623" type="curve" smooth="yes"/>
    </contour>
  </outline>
</glyph>
<glyph name="dvC_CH_VA" format="2">
  <advance width="913"/>
  <outline>
    <contour>
      <point x="689" y="451" type="line" smooth="yes"/>
      <point x="678" y="451"/>
      <point x="673" y="445"/>
      <point x="673" y="436" type="curve" smooth="yes"/>
      <point x="673" y="406" type="line" smooth="yes"/>
      <point x="673" y="396"/>
      <point x="678" y="391"/>
      <point x="689" y="391" type="curve" smooth="yes"/>
      <point x="725" y="391" type="line" smooth="yes"/>
      <point x="769" y="391"/>
      <point x="789" y="369"/>
      <point x="789" y="324" type="curve" smooth="yes"/>
      <point x="789" y="242" type="line" smooth="yes"/>
      <point x="789" y="182"/>
      <point x="760" y="152"/>
      <point x="701" y="152" type="curve" smooth="yes"/>
      <point x="566" y="152" type="line" smooth="yes"/>
      <point x="508" y="152"/>
      <point x="484" y="175"/>
      <point x="484" y="232" type="curve" smooth="yes"/>
      <point x="484" y="242" type="line" smooth="yes"/>
      <point x="484" y="291"/>
      <point x="507" y="316"/>
      <point x="558" y="316" type="curve" smooth="yes"/>
      <point x="592" y="316" type="line" smooth="yes"/>
      <point x="603" y="316"/>
      <point x="607" y="322"/>
      <point x="607" y="331" type="curve" smooth="yes"/>
      <point x="607" y="362" type="line" smooth="yes"/>
      <point x="607" y="372"/>
      <point x="603" y="377"/>
      <point x="592" y="377" type="curve" smooth="yes"/>
      <point x="553" y="377" type="line" smooth="yes"/>
      <point x="508" y="377"/>
      <point x="484" y="401"/>
      <point x="484" y="447" type="curve" smooth="yes"/>
      <point x="484" y="486" type="line" smooth="yes"/>
      <point x="484" y="537"/>
      <point x="505" y="563"/>
      <point x="555" y="563" type="curve" smooth="yes"/>
      <point x="747" y="563" type="line" smooth="yes"/>
      <point x="755" y="563"/>
      <point x="758" y="560"/>
      <point x="758" y="553" type="curve" smooth="yes"/>
      <point x="758" y="471" type="line" smooth="yes"/>
      <point x="758" y="463"/>
      <point x="757" y="456"/>
      <point x="755" y="449" type="curve"/>
      <point x="747" y="450"/>
      <point x="738" y="451"/>
      <point x="729" y="451" type="curve" smooth="yes"/>
    </contour>
    <contour>
      <point x="598" y="-55" type="line" smooth="yes"/>
      <point x="537" y="-55"/>
      <point x="514" y="-30"/>
      <point x="514" y="24" type="curve" smooth="yes"/>
      <point x="514" y="63"/>
      <point x="533" y="92"/>
      <point x="581" y="92" type="curve" smooth="yes"/>
      <point x="700" y="92" type="line" smooth="yes"/>
      <point x="722" y="92"/>
      <point x="743" y="96"/>
      <point x="762" y="103" type="curve"/>
      <point x="762" y="34" type="line" smooth="yes"/>
      <point x="762" y="-19"/>
      <point x="736" y="-55"/>
      <point x="672" y="-55" type="curve" smooth="yes"/>
    </contour>
    <contour>
      <point x="-3" y="623" type="line" smooth="yes"/>
      <point x="-14" y="623"/>
      <point x="-19" y="618"/>
      <point x="-19" y="608" type="curve" smooth="yes"/>
      <point x="-19" y="578" type="line" smooth="yes"/>
      <point x="-19" y="568"/>
      <point x="-14" y="563"/>
      <point x="-3" y="563" type="curve" smooth="yes"/>
      <point x="451" y="563" type="line"/>
      <point x="451" y="559" type="line"/>
      <point x="427" y="547"/>
      <point x="416" y="523"/>
      <point x="416" y="485" type="curve" smooth="yes"/>
      <point x="416" y="438" type="line" smooth="yes"/>
      <point x="416" y="392"/>
      <point x="435" y="360"/>
      <point x="477" y="348" type="curve"/>
      <point x="477" y="344" type="line"/>
      <point x="434" y="330"/>
      <point x="416" y="295"/>
      <point x="416" y="243" type="curve" smooth="yes"/>
      <point x="416" y="226" type="line" smooth="yes"/>
      <point x="416" y="218"/>
      <point x="416" y="210"/>
      <point x="417" y="203" type="curve"/>
      <point x="396" y="180"/>
      <point x="374" y="159"/>
      <point x="328" y="159" type="curve" smooth="yes"/>
      <point x="261" y="159" type="line" smooth="yes"/>
      <point x="201" y="159"/>
      <point x="171" y="190"/>
      <point x="171" y="249" type="curve" smooth="yes"/>
      <point x="171" y="288" type="line" smooth="yes"/>
      <point x="171" y="346"/>
      <point x="200" y="378"/>
      <point x="255" y="378" type="curve" smooth="yes"/>
      <point x="311" y="378" type="line" smooth="yes"/>
      <point x="322" y="378"/>
      <point x="326" y="383"/>
      <point x="326" y="393" type="curve" smooth="yes"/>
      <point x="326" y="425" type="line" smooth="yes"/>
      <point x="326" y="434"/>
      <point x="322" y="440"/>
      <point x="311" y="440" type="curve" smooth="yes"/>
      <point x="38" y="440" type="line" smooth="yes"/>
      <point x="27" y="440"/>
      <point x="22" y="434"/>
      <point x="22" y="425" type="curve" smooth="yes"/>
      <point x="22" y="393" type="line" smooth="yes"/>
      <point x="22" y="383"/>
      <point x="27" y="378"/>
      <point x="38" y="378" type="curve" smooth="yes"/>
      <point x="146" y="378" type="line"/>
      <point x="146" y="374" type="line"/>
      <point x="116" y="358"/>
      <point x="103" y="324"/>
      <point x="103" y="283" type="curve" smooth="yes"/>
      <point x="103" y="245" type="line" smooth="yes"/>
      <point x="103" y="151"/>
      <point x="159" y="97"/>
      <point x="252" y="97" type="curve" smooth="yes"/>
      <point x="329" y="97" type="line" smooth="yes"/>
      <point x="379" y="97"/>
      <point x="415" y="117"/>
      <point x="441" y="141" type="curve"/>
      <point x="451" y="126"/>
      <point x="465" y="115"/>
      <point x="482" y="107" type="curve"/>
      <point x="460" y="90"/>
      <point x="446" y="61"/>
      <point x="446" y="18" type="curve" smooth="yes"/>
      <point x="446" y="-67"/>
      <point x="498" y="-115"/>
      <point x="586" y="-115" type="curve" smooth="yes"/>
      <point x="683" y="-115" type="line" smooth="yes"/>
      <point x="772" y="-115"/>
      <point x="828" y="-56"/>
      <point x="828" y="37" type="curve" smooth="yes"/>
      <point x="828" y="156" type="line"/>
      <point x="845" y="181"/>
      <point x="855" y="213"/>
      <point x="855" y="249" type="curve" smooth="yes"/>
      <point x="855" y="324" type="line" smooth="yes"/>
      <point x="855" y="374"/>
      <point x="840" y="410"/>
      <point x="810" y="430" type="curve"/>
      <point x="821" y="441"/>
      <point x="828" y="457"/>
      <point x="828" y="480" type="curve" smooth="yes"/>
      <point x="828" y="553" type="line" smooth="yes"/>
      <point x="828" y="560"/>
      <point x="831" y="563"/>
      <point x="839" y="563" type="curve" smooth="yes"/>
      <point x="923" y="563" type="line"/>
      <point x="934" y="564"/>
      <point x="938" y="568"/>
      <point x="938" y="579" type="curve" smooth="yes"/>
      <point x="938" y="608" type="line" smooth="yes"/>
      <point x="938" y="618"/>
      <point x="934" y="623"/>
      <point x="923" y="623" type="curve" smooth="yes"/>
    </contour>
  </outline>
</glyph>
<glyph name="dvC_YA" format="2">
  <advance width="918"/>
  <outline>
    <contour>
      <point x="766" y="268" type="line" smooth="yes"/>
      <point x="766" y="199"/>
      <point x="729" y="155"/>
      <point x="651" y="155" type="curve" smooth="yes"/>
      <point x="588" y="155" type="line" smooth="yes"/>
      <point x="513" y="155"/>
      <point x="475" y="196"/>
      <point x="475" y="265" type="curve" smooth="yes"/>
      <point x="475" y="334" type="line"/>
      <point x="491" y="334" type="line" smooth="yes"/>
      <point x="575" y="334"/>
      <point x="624" y="372"/>
      <point x="624" y="461" type="curve" smooth="yes"/>
      <point x="624" y="479" type="line" smooth="yes"/>
      <point x="624" y="519"/>
      <point x="610" y="546"/>
      <point x="588" y="559" type="curve"/>
      <point x="588" y="563" type="line"/>
      <point x="756" y="563" type="line" smooth="yes"/>
      <point x="764" y="563"/>
      <point x="766" y="559"/>
      <point x="766" y="553" type="curve" smooth="yes"/>
    </contour>
    <contour>
      <point x="-3" y="623" type="line" smooth="yes"/>
      <point x="-14" y="623"/>
      <point x="-19" y="618"/>
      <point x="-19" y="608" type="curve" smooth="yes"/>
      <point x="-19" y="578" type="line" smooth="yes"/>
      <point x="-19" y="568"/>
      <point x="-14" y="563"/>
      <point x="-3" y="563" type="curve" smooth="yes"/>
      <point x="480" y="563" type="line" smooth="yes"/>
      <point x="536" y="563"/>
      <point x="558" y="539"/>
      <point x="558" y="485" type="curve" smooth="yes"/>
      <point x="558" y="473" type="line" smooth="yes"/>
      <point x="558" y="413"/>
      <point x="535" y="394"/>
      <point x="480" y="394" type="curve" smooth="yes"/>
      <point x="423" y="394" type="line" smooth="yes"/>
      <point x="412" y="394"/>
      <point x="408" y="389"/>
      <point x="408" y="379" type="curve" smooth="yes"/>
      <point x="408" y="265" type="line" smooth="yes"/>
      <point x="408" y="246"/>
      <point x="411" y="228"/>
      <point x="415" y="210" type="curve"/>
      <point x="412" y="207" type="line" smooth="yes"/>
      <point x="389" y="182"/>
      <point x="368" y="159"/>
      <point x="319" y="159" type="curve" smooth="yes"/>
      <point x="261" y="159" type="line" smooth="yes"/>
      <point x="201" y="159"/>
      <point x="171" y="190"/>
      <point x="171" y="249" type="curve" smooth="yes"/>
      <point x="171" y="288" type="line" smooth="yes"/>
      <point x="171" y="346"/>
      <point x="200" y="378"/>
      <point x="255" y="378" type="curve" smooth="yes"/>
      <point x="315" y="378" type="line" smooth="yes"/>
      <point x="326" y="378"/>
      <point x="331" y="383"/>
      <point x="331" y="393" type="curve" smooth="yes"/>
      <point x="331" y="425" type="line" smooth="yes"/>
      <point x="331" y="434"/>
      <point x="326" y="440"/>
      <point x="315" y="440" type="curve" smooth="yes"/>
      <point x="38" y="440" type="line" smooth="yes"/>
      <point x="27" y="440"/>
      <point x="22" y="434"/>
      <point x="22" y="425" type="curve" smooth="yes"/>
      <point x="22" y="393" type="line" smooth="yes"/>
      <point x="22" y="383"/>
      <point x="27" y="378"/>
      <point x="38" y="378" type="curve" smooth="yes"/>
      <point x="146" y="378" type="line"/>
      <point x="146" y="374" type="line"/>
      <point x="116" y="358"/>
      <point x="103" y="324"/>
      <point x="103" y="283" type="curve" smooth="yes"/>
      <point x="103" y="245" type="line" smooth="yes"/>
      <point x="103" y="151"/>
      <point x="159" y="97"/>
      <point x="252" y="97" type="curve" smooth="yes"/>
      <point x="320" y="97" type="line" smooth="yes"/>
      <point x="379" y="97"/>
      <point x="419" y="125"/>
      <point x="444" y="154" type="curve"/>
      <point x="474" y="117"/>
      <point x="520" y="94"/>
      <point x="582" y="94" type="curve" smooth="yes"/>
      <point x="650" y="94" type="line" smooth="yes"/>
      <point x="704" y="94"/>
      <point x="745" y="114"/>
      <point x="762" y="148" type="curve"/>
      <point x="766" y="148" type="line"/>
      <point x="766" y="15" type="line" smooth="yes"/>
      <point x="766" y="4"/>
      <point x="772" y="0"/>
      <point x="781" y="0" type="curve" smooth="yes"/>
      <point x="820" y="0" type="line" smooth="yes"/>
      <point x="830" y="0"/>
      <point x="835" y="4"/>
      <point x="835" y="15" type="curve" smooth="yes"/>
      <point x="835" y="553" type="line" smooth="yes"/>
      <point x="835" y="559"/>
      <point x="838" y="563"/>
      <point x="845" y="563" type="curve" smooth="yes"/>
      <point x="920" y="563" type="line" smooth="yes"/>
      <point x="932" y="563"/>
      <point x="936" y="568"/>
      <point x="936" y="578" type="curve" smooth="yes"/>
      <point x="936" y="608" type="line" smooth="yes"/>
      <point x="936" y="618"/>
      <point x="932" y="623"/>
      <point x="920" y="623" type="curve" smooth="yes"/>
    </contour>
  </outline>
</glyph>
<glyph name="dvD" format="2">
  <advance width="487"/>
  <outline>
    <contour>
      <point x="215" y="4" type="line" smooth="yes"/>
      <point x="207" y="4"/>
      <point x="203" y="-1"/>
      <point x="203" y="-8" type="curve" smooth="yes"/>
      <point x="203" y="-11"/>
      <point x="204" y="-13"/>
      <point x="205" y="-16" type="curve"/>
      <point x="293" y="-153" type="line"/>
      <point x="297" y="-160"/>
      <point x="303" y="-165"/>
      <point x="312" y="-165" type="curve" smooth="yes"/>
      <point x="353" y="-165" type="line" smooth="yes"/>
      <point x="361" y="-165"/>
      <point x="366" y="-159"/>
      <point x="366" y="-152" type="curve" smooth="yes"/>
      <point x="366" y="-148"/>
      <point x="365" y="-144"/>
      <point x="363" y="-141" type="curve" smooth="yes"/>
      <point x="272" y="-10" type="line" smooth="yes"/>
      <point x="266" y="-1"/>
      <point x="260" y="4"/>
      <point x="250" y="4" type="curve" smooth="yes"/>
    </contour>
    <contour>
      <point x="206" y="463" type="line" smooth="yes"/>
      <point x="113" y="463"/>
      <point x="60" y="408"/>
      <point x="60" y="313" type="curve" smooth="yes"/>
      <point x="60" y="229" type="line" smooth="yes"/>
      <point x="60" y="138"/>
      <point x="112" y="79"/>
      <point x="208" y="79" type="curve" smooth="yes"/>
      <point x="271" y="79" type="line" smooth="yes"/>
      <point x="307" y="79"/>
      <point x="335" y="89"/>
      <point x="349" y="113" type="curve"/>
      <point x="353" y="113" type="line"/>
      <point x="353" y="15" type="line" smooth="yes"/>
      <point x="353" y="4"/>
      <point x="358" y="0"/>
      <point x="368" y="0" type="curve" smooth="yes"/>
      <point x="404" y="0" type="line" smooth="yes"/>
      <point x="414" y="0"/>
      <point x="419" y="4"/>
      <point x="419" y="15" type="curve" smooth="yes"/>
      <point x="419" y="249" type="line" smooth="yes"/>
      <point x="419" y="260"/>
      <point x="414" y="264"/>
      <point x="404" y="264" type="curve" smooth="yes"/>
      <point x="368" y="264" type="line" smooth="yes"/>
      <point x="358" y="264"/>
      <point x="353" y="260"/>
      <point x="353" y="249" type="curve" smooth="yes"/>
      <point x="353" y="211" type="line" smooth="yes"/>
      <point x="353" y="163"/>
      <point x="328" y="140"/>
      <point x="280" y="140" type="curve" smooth="yes"/>
      <point x="216" y="140" type="line" smooth="yes"/>
      <point x="157" y="140"/>
      <point x="128" y="169"/>
      <point x="128" y="229" type="curve" smooth="yes"/>
      <point x="128" y="310" type="line" smooth="yes"/>
      <point x="128" y="369"/>
      <point x="157" y="401"/>
      <point x="214" y="401" type="curve" smooth="yes"/>
      <point x="376" y="401" type="line" smooth="yes"/>
      <point x="394" y="401"/>
      <point x="407" y="413"/>
      <point x="407" y="433" type="curve" smooth="yes"/>
      <point x="407" y="553" type="line" smooth="yes"/>
      <point x="407" y="559"/>
      <point x="410" y="563"/>
      <point x="417" y="563" type="curve" smooth="yes"/>
      <point x="490" y="563" type="line" smooth="yes"/>
      <point x="501" y="563"/>
      <point x="506" y="568"/>
      <point x="506" y="578" type="curve" smooth="yes"/>
      <point x="506" y="608" type="line" smooth="yes"/>
      <point x="506" y="618"/>
      <point x="501" y="623"/>
      <point x="490" y="623" type="curve" smooth="yes"/>
      <point x="-3" y="623" type="line" smooth="yes"/>
      <point x="-15" y="623"/>
      <point x="-19" y="618"/>
      <point x="-19" y="608" type="curve" smooth="yes"/>
      <point x="-19" y="578" type="line" smooth="yes"/>
      <point x="-19" y="568"/>
      <point x="-15" y="563"/>
      <point x="-3" y="563" type="curve" smooth="yes"/>
      <point x="330" y="563" type="line" smooth="yes"/>
      <point x="337" y="563"/>
      <point x="340" y="559"/>
      <point x="340" y="553" type="curve" smooth="yes"/>
      <point x="340" y="473" type="line" smooth="yes"/>
      <point x="340" y="466"/>
      <point x="337" y="463"/>
      <point x="330" y="463" type="curve" smooth="yes"/>
    </contour>
  </outline>
</glyph>
<glyph name="dvDDH_RA" format="2">
  <advance width="486"/>
  <outline>
    <contour>
      <point x="-3" y="623" type="line" smooth="yes"/>
      <point x="-15" y="623"/>
      <point x="-19" y="618"/>
      <point x="-19" y="608" type="curve" smooth="yes"/>
      <point x="-19" y="578" type="line" smooth="yes"/>
      <point x="-19" y="568"/>
      <point x="-15" y="563"/>
      <point x="-3" y="563" type="curve" smooth="yes"/>
      <point x="319" y="563" type="line" smooth="yes"/>
      <point x="326" y="563"/>
      <point x="329" y="559"/>
      <point x="329" y="553" type="curve" smooth="yes"/>
      <point x="329" y="460" type="line" smooth="yes"/>
      <point x="329" y="454"/>
      <point x="326" y="450"/>
      <point x="319" y="450" type="curve" smooth="yes"/>
      <point x="209" y="450" type="line" smooth="yes"/>
      <point x="115" y="450"/>
      <point x="62" y="395"/>
      <point x="62" y="300" type="curve" smooth="yes"/>
      <point x="62" y="187" type="line" smooth="yes"/>
      <point x="62" y="103"/>
      <point x="105" y="48"/>
      <point x="185" y="38" type="curve"/>
      <point x="97" y="-78" type="line" smooth="yes"/>
      <point x="94" y="-82"/>
      <point x="92" y="-85"/>
      <point x="92" y="-90" type="curve" smooth="yes"/>
      <point x="92" y="-98"/>
      <point x="97" y="-101"/>
      <point x="106" y="-101" type="curve" smooth="yes"/>
      <point x="152" y="-101" type="line" smooth="yes"/>
      <point x="161" y="-101"/>
      <point x="166" y="-97"/>
      <point x="171" y="-90" type="curve" smooth="yes"/>
      <point x="257" y="29" type="line"/>
      <point x="262" y="29" type="line"/>
      <point x="348" y="-90" type="line" smooth="yes"/>
      <point x="353" y="-97"/>
      <point x="358" y="-101"/>
      <point x="367" y="-101" type="curve" smooth="yes"/>
      <point x="413" y="-101" type="line" smooth="yes"/>
      <point x="421" y="-101"/>
      <point x="427" y="-98"/>
      <point x="427" y="-90" type="curve" smooth="yes"/>
      <point x="427" y="-85"/>
      <point x="425" y="-82"/>
      <point x="422" y="-78" type="curve" smooth="yes"/>
      <point x="334" y="39" type="line"/>
      <point x="406" y="48"/>
      <point x="442" y="94"/>
      <point x="442" y="171" type="curve" smooth="yes"/>
      <point x="442" y="189" type="line" smooth="yes"/>
      <point x="442" y="262"/>
      <point x="411" y="301"/>
      <point x="333" y="301" type="curve" smooth="yes"/>
      <point x="256" y="301"/>
      <point x="231" y="260"/>
      <point x="231" y="193" type="curve" smooth="yes"/>
      <point x="231" y="177" type="line" smooth="yes"/>
      <point x="231" y="164"/>
      <point x="236" y="160"/>
      <point x="251" y="160" type="curve" smooth="yes"/>
      <point x="275" y="160" type="line" smooth="yes"/>
      <point x="285" y="160"/>
      <point x="290" y="165"/>
      <point x="290" y="176" type="curve" smooth="yes"/>
      <point x="290" y="190" type="line" smooth="yes"/>
      <point x="290" y="229"/>
      <point x="298" y="247"/>
      <point x="335" y="247" type="curve" smooth="yes"/>
      <point x="373" y="247"/>
      <point x="381" y="228"/>
      <point x="381" y="190" type="curve" smooth="yes"/>
      <point x="381" y="174" type="line" smooth="yes"/>
      <point x="381" y="120"/>
      <point x="359" y="96"/>
      <point x="304" y="96" type="curve" smooth="yes"/>
      <point x="216" y="96" type="line" smooth="yes"/>
      <point x="157" y="96"/>
      <point x="128" y="126"/>
      <point x="128" y="185" type="curve" smooth="yes"/>
      <point x="128" y="299" type="line" smooth="yes"/>
      <point x="128" y="358"/>
      <point x="157" y="390"/>
      <point x="214" y="390" type="curve" smooth="yes"/>
      <point x="366" y="390" type="line" smooth="yes"/>
      <point x="383" y="390"/>
      <point x="397" y="402"/>
      <point x="397" y="422" type="curve" smooth="yes"/>
      <point x="397" y="553" type="line" smooth="yes"/>
      <point x="397" y="559"/>
      <point x="399" y="563"/>
      <point x="407" y="563" type="curve" smooth="yes"/>
      <point x="489" y="563" type="line" smooth="yes"/>
      <point x="500" y="563"/>
      <point x="505" y="568"/>
      <point x="505" y="578" type="curve" smooth="yes"/>
      <point x="505" y="608" type="line" smooth="yes"/>
      <point x="505" y="618"/>
      <point x="500" y="623"/>
      <point x="489" y="623" type="curve" smooth="yes"/>
    </contour>
  </outline>
</glyph>
<glyph name="dvDDH_VA" format="2">
  <advance width="480"/>
  <outline>
    <contour>
      <point x="302" y="59" type="line" smooth="yes"/>
      <point x="324" y="59"/>
      <point x="343" y="62"/>
      <point x="359" y="67" type="curve"/>
      <point x="359" y="-2" type="line" smooth="yes"/>
      <point x="359" y="-55"/>
      <point x="331" y="-87"/>
      <point x="267" y="-87" type="curve" smooth="yes"/>
      <point x="222" y="-87" type="line" smooth="yes"/>
      <point x="161" y="-87"/>
      <point x="137" y="-62"/>
      <point x="137" y="-12" type="curve" smooth="yes"/>
      <point x="137" y="30"/>
      <point x="158" y="55"/>
      <point x="198" y="59" type="curve"/>
      <point x="208" y="59" type="line"/>
    </contour>
    <contour>
      <point x="-6" y="623" type="line" smooth="yes"/>
      <point x="-17" y="623"/>
      <point x="-22" y="618"/>
      <point x="-22" y="608" type="curve" smooth="yes"/>
      <point x="-22" y="578" type="line" smooth="yes"/>
      <point x="-22" y="568"/>
      <point x="-17" y="563"/>
      <point x="-6" y="563" type="curve" smooth="yes"/>
      <point x="316" y="563" type="line" smooth="yes"/>
      <point x="323" y="563"/>
      <point x="326" y="559"/>
      <point x="326" y="553" type="curve" smooth="yes"/>
      <point x="326" y="482" type="line" smooth="yes"/>
      <point x="326" y="476"/>
      <point x="323" y="472"/>
      <point x="316" y="472" type="curve" smooth="yes"/>
      <point x="206" y="472" type="line" smooth="yes"/>
      <point x="112" y="472"/>
      <point x="59" y="417"/>
      <point x="59" y="323" type="curve" smooth="yes"/>
      <point x="59" y="210" type="line" smooth="yes"/>
      <point x="59" y="152"/>
      <point x="80" y="107"/>
      <point x="119" y="82" type="curve"/>
      <point x="90" y="65"/>
      <point x="70" y="36"/>
      <point x="70" y="-18" type="curve" smooth="yes"/>
      <point x="70" y="-100"/>
      <point x="124" y="-147"/>
      <point x="213" y="-147" type="curve" smooth="yes"/>
      <point x="278" y="-147" type="line" smooth="yes"/>
      <point x="367" y="-147"/>
      <point x="423" y="-92"/>
      <point x="423" y="1" type="curve" smooth="yes"/>
      <point x="423" y="118" type="line"/>
      <point x="434" y="138"/>
      <point x="439" y="163"/>
      <point x="439" y="193" type="curve" smooth="yes"/>
      <point x="439" y="228" type="line" smooth="yes"/>
      <point x="439" y="301"/>
      <point x="409" y="339"/>
      <point x="330" y="339" type="curve" smooth="yes"/>
      <point x="253" y="339"/>
      <point x="229" y="299"/>
      <point x="229" y="231" type="curve" smooth="yes"/>
      <point x="229" y="215" type="line" smooth="yes"/>
      <point x="229" y="203"/>
      <point x="233" y="199"/>
      <point x="248" y="199" type="curve" smooth="yes"/>
      <point x="273" y="199" type="line" smooth="yes"/>
      <point x="282" y="199"/>
      <point x="287" y="203"/>
      <point x="287" y="214" type="curve" smooth="yes"/>
      <point x="287" y="229" type="line" smooth="yes"/>
      <point x="287" y="268"/>
      <point x="295" y="285"/>
      <point x="332" y="285" type="curve" smooth="yes"/>
      <point x="370" y="285"/>
      <point x="378" y="267"/>
      <point x="378" y="228" type="curve" smooth="yes"/>
      <point x="378" y="196" type="line" smooth="yes"/>
      <point x="378" y="143"/>
      <point x="356" y="119"/>
      <point x="301" y="119" type="curve" smooth="yes"/>
      <point x="214" y="119" type="line" smooth="yes"/>
      <point x="154" y="119"/>
      <point x="126" y="148"/>
      <point x="126" y="207" type="curve" smooth="yes"/>
      <point x="126" y="321" type="line" smooth="yes"/>
      <point x="126" y="380"/>
      <point x="154" y="412"/>
      <point x="211" y="412" type="curve" smooth="yes"/>
      <point x="363" y="412" type="line" smooth="yes"/>
      <point x="381" y="412"/>
      <point x="394" y="424"/>
      <point x="394" y="444" type="curve" smooth="yes"/>
      <point x="394" y="553" type="line" smooth="yes"/>
      <point x="394" y="559"/>
      <point x="397" y="563"/>
      <point x="404" y="563" type="curve" smooth="yes"/>
      <point x="486" y="563" type="line" smooth="yes"/>
      <point x="497" y="563"/>
      <point x="502" y="568"/>
      <point x="502" y="578" type="curve" smooth="yes"/>
      <point x="502" y="608" type="line" smooth="yes"/>
      <point x="502" y="618"/>
      <point x="497" y="623"/>
      <point x="486" y="623" type="curve" smooth="yes"/>
    </contour>
  </outline>
</glyph>
<glyph name="dvDDH_YA" format="2">
  <advance width="988"/>
  <outline>
    <contour>
      <point x="837" y="221" type="line" smooth="yes"/>
      <point x="837" y="159"/>
      <point x="799" y="106"/>
      <point x="722" y="106" type="curve" smooth="yes"/>
      <point x="681" y="106" type="line" smooth="yes"/>
      <point x="610" y="106"/>
      <point x="575" y="136"/>
      <point x="575" y="209" type="curve"/>
      <point x="590" y="209" type="line" smooth="yes"/>
      <point x="668" y="209"/>
      <point x="727" y="239"/>
      <point x="727" y="331" type="curve" smooth="yes"/>
      <point x="727" y="410"/>
      <point x="677" y="450"/>
      <point x="591" y="450" type="curve" smooth="yes"/>
      <point x="397" y="450" type="line"/>
      <point x="397" y="553" type="line" smooth="yes"/>
      <point x="397" y="559"/>
      <point x="399" y="563"/>
      <point x="407" y="563" type="curve" smooth="yes"/>
      <point x="827" y="563" type="line" smooth="yes"/>
      <point x="834" y="563"/>
      <point x="837" y="559"/>
      <point x="837" y="553" type="curve" smooth="yes"/>
    </contour>
    <contour>
      <point x="-3" y="623" type="line" smooth="yes"/>
      <point x="-15" y="623"/>
      <point x="-19" y="618"/>
      <point x="-19" y="608" type="curve" smooth="yes"/>
      <point x="-19" y="578" type="line" smooth="yes"/>
      <point x="-19" y="568"/>
      <point x="-15" y="563"/>
      <point x="-3" y="563" type="curve" smooth="yes"/>
      <point x="319" y="563" type="line" smooth="yes"/>
      <point x="326" y="563"/>
      <point x="329" y="559"/>
      <point x="329" y="553" type="curve" smooth="yes"/>
      <point x="329" y="460" type="line" smooth="yes"/>
      <point x="329" y="454"/>
      <point x="326" y="450"/>
      <point x="319" y="450" type="curve" smooth="yes"/>
      <point x="209" y="450" type="line" smooth="yes"/>
      <point x="115" y="450"/>
      <point x="62" y="395"/>
      <point x="62" y="300" type="curve" smooth="yes"/>
      <point x="62" y="187" type="line" smooth="yes"/>
      <point x="62" y="95"/>
      <point x="114" y="37"/>
      <point x="210" y="37" type="curve" smooth="yes"/>
      <point x="305" y="37" type="line" smooth="yes"/>
      <point x="397" y="37"/>
      <point x="442" y="84"/>
      <point x="442" y="171" type="curve" smooth="yes"/>
      <point x="442" y="189" type="line" smooth="yes"/>
      <point x="442" y="262"/>
      <point x="411" y="301"/>
      <point x="333" y="301" type="curve" smooth="yes"/>
      <point x="256" y="301"/>
      <point x="231" y="260"/>
      <point x="231" y="193" type="curve" smooth="yes"/>
      <point x="231" y="177" type="line" smooth="yes"/>
      <point x="231" y="164"/>
      <point x="236" y="160"/>
      <point x="251" y="160" type="curve" smooth="yes"/>
      <point x="275" y="160" type="line" smooth="yes"/>
      <point x="285" y="160"/>
      <point x="290" y="165"/>
      <point x="290" y="176" type="curve" smooth="yes"/>
      <point x="290" y="190" type="line" smooth="yes"/>
      <point x="290" y="229"/>
      <point x="298" y="247"/>
      <point x="335" y="247" type="curve" smooth="yes"/>
      <point x="373" y="247"/>
      <point x="381" y="228"/>
      <point x="381" y="190" type="curve" smooth="yes"/>
      <point x="381" y="174" type="line" smooth="yes"/>
      <point x="381" y="120"/>
      <point x="359" y="96"/>
      <point x="304" y="96" type="curve" smooth="yes"/>
      <point x="216" y="96" type="line" smooth="yes"/>
      <point x="157" y="96"/>
      <point x="128" y="126"/>
      <point x="128" y="185" type="curve" smooth="yes"/>
      <point x="128" y="299" type="line" smooth="yes"/>
      <point x="128" y="358"/>
      <point x="157" y="390"/>
      <point x="214" y="390" type="curve" smooth="yes"/>
      <point x="593" y="390" type="line" smooth="yes"/>
      <point x="639" y="390"/>
      <point x="662" y="374"/>
      <point x="662" y="331" type="curve" smooth="yes"/>
      <point x="662" y="287"/>
      <point x="640" y="267"/>
      <point x="592" y="267" type="curve" smooth="yes"/>
      <point x="525" y="267" type="line" smooth="yes"/>
      <point x="514" y="267"/>
      <point x="509" y="261"/>
      <point x="509" y="252" type="curve" smooth="yes"/>
      <point x="509" y="203" type="line" smooth="yes"/>
      <point x="509" y="109"/>
      <point x="562" y="47"/>
      <point x="674" y="47" type="curve" smooth="yes"/>
      <point x="721" y="47" type="line" smooth="yes"/>
      <point x="775" y="47"/>
      <point x="815" y="67"/>
      <point x="833" y="101" type="curve"/>
      <point x="837" y="101" type="line"/>
      <point x="837" y="15" type="line" smooth="yes"/>
      <point x="837" y="4"/>
      <point x="842" y="0"/>
      <point x="852" y="0" type="curve" smooth="yes"/>
      <point x="890" y="0" type="line" smooth="yes"/>
      <point x="900" y="0"/>
      <point x="905" y="4"/>
      <point x="905" y="15" type="curve" smooth="yes"/>
      <point x="905" y="553" type="line" smooth="yes"/>
      <point x="905" y="559"/>
      <point x="908" y="563"/>
      <point x="916" y="563" type="curve" smooth="yes"/>
      <point x="992" y="563" type="line" smooth="yes"/>
      <point x="1004" y="563"/>
      <point x="1007" y="568"/>
      <point x="1007" y="578" type="curve" smooth="yes"/>
      <point x="1007" y="608" type="line" smooth="yes"/>
      <point x="1007" y="618"/>
      <point x="1004" y="623"/>
      <point x="992" y="623" type="curve" smooth="yes"/>
    </contour>
  </outline>
</glyph>
<glyph name="dvDD_R" format="2">
  <advance width="470"/>
  <outline>
    <contour>
      <point x="282" y="-168" type="line" smooth="yes"/>
      <point x="276" y="-159"/>
      <point x="270" y="-154"/>
      <point x="260" y="-154" type="curve" smooth="yes"/>
      <point x="225" y="-154" type="line" smooth="yes"/>
      <point x="217" y="-154"/>
      <point x="213" y="-159"/>
      <point x="213" y="-166" type="curve" smooth="yes"/>
      <point x="213" y="-169"/>
      <point x="214" y="-171"/>
      <point x="215" y="-174" type="curve"/>
      <point x="303" y="-311" type="line"/>
      <point x="307" y="-318"/>
      <point x="313" y="-323"/>
      <point x="322" y="-323" type="curve" smooth="yes"/>
      <point x="363" y="-323" type="line" smooth="yes"/>
      <point x="371" y="-323"/>
      <point x="376" y="-317"/>
      <point x="376" y="-310" type="curve" smooth="yes"/>
      <point x="376" y="-306"/>
      <point x="375" y="-302"/>
      <point x="373" y="-299" type="curve" smooth="yes"/>
    </contour>
    <contour>
      <point x="-3" y="623" type="line" smooth="yes"/>
      <point x="-14" y="623"/>
      <point x="-19" y="618"/>
      <point x="-19" y="608" type="curve" smooth="yes"/>
      <point x="-19" y="578" type="line" smooth="yes"/>
      <point x="-19" y="568"/>
      <point x="-14" y="563"/>
      <point x="-3" y="563" type="curve" smooth="yes"/>
      <point x="307" y="563" type="line" smooth="yes"/>
      <point x="314" y="563"/>
      <point x="317" y="559"/>
      <point x="317" y="553" type="curve" smooth="yes"/>
      <point x="317" y="474" type="line" smooth="yes"/>
      <point x="317" y="467"/>
      <point x="314" y="463"/>
      <point x="307" y="463" type="curve" smooth="yes"/>
      <point x="195" y="463" type="line" smooth="yes"/>
      <point x="115" y="463"/>
      <point x="66" y="427"/>
      <point x="66" y="351" type="curve" smooth="yes"/>
      <point x="66" y="330" type="line" smooth="yes"/>
      <point x="66" y="251"/>
      <point x="109" y="219"/>
      <point x="195" y="219" type="curve" smooth="yes"/>
      <point x="278" y="219" type="line" smooth="yes"/>
      <point x="325" y="219"/>
      <point x="345" y="205"/>
      <point x="345" y="159" type="curve" smooth="yes"/>
      <point x="345" y="121" type="line" smooth="yes"/>
      <point x="345" y="76"/>
      <point x="325" y="60"/>
      <point x="278" y="60" type="curve" smooth="yes"/>
      <point x="201" y="60" type="line" smooth="yes"/>
      <point x="148" y="60"/>
      <point x="126" y="72"/>
      <point x="126" y="128" type="curve" smooth="yes"/>
      <point x="126" y="135" type="line" smooth="yes"/>
      <point x="126" y="148"/>
      <point x="121" y="153"/>
      <point x="112" y="153" type="curve" smooth="yes"/>
      <point x="77" y="153" type="line" smooth="yes"/>
      <point x="66" y="153"/>
      <point x="61" y="148"/>
      <point x="61" y="135" type="curve" smooth="yes"/>
      <point x="61" y="128" type="line" smooth="yes"/>
      <point x="61" y="43"/>
      <point x="101" y="8"/>
      <point x="169" y="1" type="curve"/>
      <point x="80" y="-117" type="line" smooth="yes"/>
      <point x="77" y="-121"/>
      <point x="75" y="-125"/>
      <point x="75" y="-130" type="curve" smooth="yes"/>
      <point x="75" y="-137"/>
      <point x="80" y="-141"/>
      <point x="89" y="-141" type="curve" smooth="yes"/>
      <point x="135" y="-141" type="line" smooth="yes"/>
      <point x="143" y="-141"/>
      <point x="148" y="-136"/>
      <point x="153" y="-129" type="curve" smooth="yes"/>
      <point x="240" y="-10" type="line"/>
      <point x="245" y="-10" type="line"/>
      <point x="330" y="-129" type="line" smooth="yes"/>
      <point x="335" y="-136"/>
      <point x="341" y="-141"/>
      <point x="349" y="-141" type="curve" smooth="yes"/>
      <point x="395" y="-141" type="line" smooth="yes"/>
      <point x="404" y="-141"/>
      <point x="409" y="-137"/>
      <point x="409" y="-130" type="curve" smooth="yes"/>
      <point x="409" y="-125"/>
      <point x="407" y="-121"/>
      <point x="404" y="-117" type="curve" smooth="yes"/>
      <point x="315" y="2" type="line"/>
      <point x="378" y="10"/>
      <point x="413" y="49"/>
      <point x="413" y="116" type="curve" smooth="yes"/>
      <point x="413" y="166" type="line" smooth="yes"/>
      <point x="413" y="241"/>
      <point x="367" y="276"/>
      <point x="287" y="276" type="curve" smooth="yes"/>
      <point x="200" y="276" type="line" smooth="yes"/>
      <point x="153" y="276"/>
      <point x="133" y="288"/>
      <point x="133" y="334" type="curve" smooth="yes"/>
      <point x="133" y="344" type="line" smooth="yes"/>
      <point x="133" y="389"/>
      <point x="153" y="402"/>
      <point x="200" y="402" type="curve" smooth="yes"/>
      <point x="350" y="402" type="line" smooth="yes"/>
      <point x="369" y="402"/>
      <point x="385" y="413"/>
      <point x="385" y="436" type="curve" smooth="yes"/>
      <point x="385" y="553" type="line" smooth="yes"/>
      <point x="385" y="559"/>
      <point x="388" y="563"/>
      <point x="395" y="563" type="curve" smooth="yes"/>
      <point x="474" y="563" type="line" smooth="yes"/>
      <point x="484" y="563"/>
      <point x="489" y="568"/>
      <point x="489" y="578" type="curve" smooth="yes"/>
      <point x="489" y="608" type="line" smooth="yes"/>
      <point x="489" y="618"/>
      <point x="484" y="623"/>
      <point x="474" y="623" type="curve" smooth="yes"/>
    </contour>
  </outline>
</glyph>
<glyph name="dvDD_RA" format="2">
  <advance width="470"/>
  <outline>
    <contour>
      <point x="-3" y="623" type="line" smooth="yes"/>
      <point x="-14" y="623"/>
      <point x="-19" y="618"/>
      <point x="-19" y="608" type="curve" smooth="yes"/>
      <point x="-19" y="578" type="line" smooth="yes"/>
      <point x="-19" y="568"/>
      <point x="-14" y="563"/>
      <point x="-3" y="563" type="curve" smooth="yes"/>
      <point x="307" y="563" type="line" smooth="yes"/>
      <point x="314" y="563"/>
      <point x="317" y="559"/>
      <point x="317" y="553" type="curve" smooth="yes"/>
      <point x="317" y="474" type="line" smooth="yes"/>
      <point x="317" y="467"/>
      <point x="314" y="463"/>
      <point x="307" y="463" type="curve" smooth="yes"/>
      <point x="195" y="463" type="line" smooth="yes"/>
      <point x="115" y="463"/>
      <point x="66" y="427"/>
      <point x="66" y="351" type="curve" smooth="yes"/>
      <point x="66" y="330" type="line" smooth="yes"/>
      <point x="66" y="251"/>
      <point x="109" y="219"/>
      <point x="195" y="219" type="curve" smooth="yes"/>
      <point x="278" y="219" type="line" smooth="yes"/>
      <point x="325" y="219"/>
      <point x="345" y="205"/>
      <point x="345" y="159" type="curve" smooth="yes"/>
      <point x="345" y="121" type="line" smooth="yes"/>
      <point x="345" y="76"/>
      <point x="325" y="60"/>
      <point x="278" y="60" type="curve" smooth="yes"/>
      <point x="201" y="60" type="line" smooth="yes"/>
      <point x="148" y="60"/>
      <point x="126" y="72"/>
      <point x="126" y="128" type="curve" smooth="yes"/>
      <point x="126" y="135" type="line" smooth="yes"/>
      <point x="126" y="148"/>
      <point x="121" y="153"/>
      <point x="112" y="153" type="curve" smooth="yes"/>
      <point x="77" y="153" type="line" smooth="yes"/>
      <point x="66" y="153"/>
      <point x="61" y="148"/>
      <point x="61" y="135" type="curve" smooth="yes"/>
      <point x="61" y="128" type="line" smooth="yes"/>
      <point x="61" y="43"/>
      <point x="100" y="8"/>
      <point x="167" y="1" type="curve"/>
      <point x="80" y="-115" type="line" smooth="yes"/>
      <point x="77" y="-119"/>
      <point x="75" y="-122"/>
      <point x="75" y="-127" type="curve" smooth="yes"/>
      <point x="75" y="-135"/>
      <point x="80" y="-138"/>
      <point x="89" y="-138" type="curve" smooth="yes"/>
      <point x="135" y="-138" type="line" smooth="yes"/>
      <point x="143" y="-138"/>
      <point x="149" y="-134"/>
      <point x="154" y="-127" type="curve" smooth="yes"/>
      <point x="240" y="-7" type="line"/>
      <point x="245" y="-7" type="line"/>
      <point x="331" y="-127" type="line" smooth="yes"/>
      <point x="336" y="-134"/>
      <point x="341" y="-138"/>
      <point x="350" y="-138" type="curve" smooth="yes"/>
      <point x="396" y="-138" type="line" smooth="yes"/>
      <point x="404" y="-138"/>
      <point x="409" y="-135"/>
      <point x="409" y="-127" type="curve" smooth="yes"/>
      <point x="409" y="-122"/>
      <point x="407" y="-119"/>
      <point x="404" y="-115" type="curve" smooth="yes"/>
      <point x="317" y="2" type="line"/>
      <point x="378" y="11"/>
      <point x="413" y="50"/>
      <point x="413" y="116" type="curve" smooth="yes"/>
      <point x="413" y="166" type="line" smooth="yes"/>
      <point x="413" y="241"/>
      <point x="367" y="276"/>
      <point x="287" y="276" type="curve" smooth="yes"/>
      <point x="200" y="276" type="line" smooth="yes"/>
      <point x="153" y="276"/>
      <point x="133" y="288"/>
      <point x="133" y="334" type="curve" smooth="yes"/>
      <point x="133" y="344" type="line" smooth="yes"/>
      <point x="133" y="389"/>
      <point x="153" y="402"/>
      <point x="200" y="402" type="curve" smooth="yes"/>
      <point x="350" y="402" type="line" smooth="yes"/>
      <point x="369" y="402"/>
      <point x="385" y="413"/>
      <point x="385" y="436" type="curve" smooth="yes"/>
      <point x="385" y="553" type="line" smooth="yes"/>
      <point x="385" y="559"/>
      <point x="388" y="563"/>
      <point x="395" y="563" type="curve" smooth="yes"/>
      <point x="474" y="563" type="line" smooth="yes"/>
      <point x="484" y="563"/>
      <point x="489" y="568"/>
      <point x="489" y="578" type="curve" smooth="yes"/>
      <point x="489" y="608" type="line" smooth="yes"/>
      <point x="489" y="618"/>
      <point x="484" y="623"/>
      <point x="474" y="623" type="curve" smooth="yes"/>
    </contour>
  </outline>
</glyph>
